{
.appVersion = "3187";
.formatVersion = 3;
customParameters = (
{
name = panose;
value = (
2,
0,
6,
4,
6,
0,
0,
2,
0,
4
);
},
{
name = fsType;
value = (
0,
0,
0,
0,
0,
0,
0,
0,
0,
0,
0,
0,
0,
0,
0,
0
);
},
{
name = "Use Typo Metrics";
value = 1;
}
);
date = "2011-01-01 18:19:45 +0000";
familyName = Gruppo;
featurePrefixes = (
{
automatic = 1;
code = "languagesystem DFLT dflt;

languagesystem latn dflt;
languagesystem latn ROM;
languagesystem latn MOL;
languagesystem latn CAT;
";
name = Languagesystems;
}
);
features = (
{
automatic = 1;
code = "feature locl;
feature frac;
feature ordn;
";
tag = aalt;
},
{
automatic = 1;
code = "script latn;
language ROM;
lookup locl_latn_0 {
	sub Scedilla by Scommaaccent;
	sub scedilla by scommaaccent;
} locl_latn_0;
language MOL;
lookup locl_latn_0;

script latn;
language CAT;
lookup locl_latn_1 {
	sub  l' periodcentered' l by ldot;
	sub  L' periodcentered' L by Ldot;
} locl_latn_1;
";
tag = locl;
},
{
automatic = 1;
code = "sub one slash four by onequarter;
sub one slash two by onehalf;
sub three slash four by threequarters;
";
tag = frac;
},
{
automatic = 1;
code = "sub [zero one two three four five six seven eight nine] [A a]' by ordfeminine;
sub [zero one two three four five six seven eight nine] [O o]' by ordmasculine;
";
tag = ordn;
},
{
automatic = 1;
code = "lookupflag IgnoreMarks;
sub f i by uniFB01;
sub f l by uniFB02;
";
tag = dlig;
}
);
fontMaster = (
{
customParameters = (
{
name = typoAscender;
value = 1639;
},
{
name = typoDescender;
value = -340;
},
{
name = typoLineGap;
value = 0;
},
{
name = hheaAscender;
value = 1639;
},
{
name = hheaDescender;
value = -340;
},
{
name = hheaLineGap;
value = 0;
},
{
name = winAscent;
value = 1639;
},
{
name = winDescent;
value = 372;
},
{
name = strikeoutPosition;
value = 512;
},
{
name = strikeoutSize;
value = 102;
},
{
name = underlineThickness;
value = 41;
},
{
name = underlinePosition;
value = -232;
}
);
id = master01;
metricValues = (
{
pos = 1638;
},
{
pos = 1114;
},
{

glyphs = (
{
glyphname = A;
lastChange = "2023-04-21 12:17:34 +0000";
layers = (
{
background = {
shapes = (
{
closed = 1;
nodes = (
(1001,401,l),
(674,998,l),
(347,401,l)
);
},
{
closed = 1;
nodes = (
(622,1063,ls),
(643,1102,o),
(650,1114,o),
(674,1114,cs),
(693,1114,o),
(704,1103,o),
(726,1063,cs),
(1278,67,ls),
(1286,53,o),
(1289,40,o),
(1289,28,cs),
(1289,4,o),
(1274,-10,o),
(1255,-10,cs),
(1237,-10,o),
(1218,1,o),
(1200,34,cs),
(1030,342,l),
(318,342,l),
(146,30,ls),
(131,2,o),
(110,-10,o),
(92,-10,cs),
(69,-10,o),
(59,7,o),
(59,34,cs),
(59,44,o),
(64,55,o),
(71,68,cs)
);
}
);
};
layerId = master01;
shapes = (
{
closed = 1;
nodes = (
(1001,401,l),
(674,998,l),
(347,401,l)
);
},
{
closed = 1;
nodes = (
(622,1063,ls),
(643,1102,o),
(650,1114,o),
(674,1114,cs),
(693,1114,o),
(704,1103,o),
(726,1063,cs),
(1278,67,ls),
(1286,53,o),
(1289,40,o),
(1289,28,cs),
(1289,4,o),
(1274,-10,o),
(1255,-10,cs),
(1237,-10,o),
(1218,1,o),
(1200,34,cs),
(1030,342,l),
(318,342,l),
(146,30,ls),
(131,2,o),
(110,-10,o),
(92,-10,cs),
(69,-10,o),
(59,7,o),
(59,34,cs),
(59,44,o),
(64,55,o),
(71,68,cs)
);
}
);
userData = {
com.fontlab.hintData = {
hhints = (
{
position = 342;
width = 59;
},
{
position = 1094;
width = 20;
}
);
};
};
width = 1349;
}
);
unicode = 65;
},
{
glyphname = Aacute;
lastChange = "2023-04-21 12:17:44 +0000";
layers = (
{
background = {
shapes = (
{
closed = 1;
nodes = (
(1001,401,l),
(674,998,l),
(347,401,l)
);
},
{
closed = 1;
nodes = (
(622,1063,ls),
(643,1102,o),
(650,1114,o),
(674,1114,cs),
(693,1114,o),
(704,1103,o),
(726,1063,cs),
(1278,67,ls),
(1286,53,o),
(1289,40,o),
(1289,28,cs),
(1289,4,o),
(1274,-10,o),
(1255,-10,cs),
(1237,-10,o),
(1218,1,o),
(1200,34,cs),
(1030,342,l),
(318,342,l),
(146,30,ls),
(131,2,o),
(110,-10,o),
(92,-10,cs),
(69,-10,o),
(59,7,o),
(59,34,cs),
(59,44,o),
(64,55,o),
(71,68,cs)
);
},
{
closed = 1;
nodes = (
(900,1577,ls),
(907,1584,o),
(916,1588,o),
(925,1588,cs),
(954,1588,o),
(989,1556,o),
(989,1527,cs),
(989,1516,o),
(984,1507,o),
(974,1499,cs),
(682,1262,ls),
(678,1259,o),
(673,1257,o),
(667,1257,cs),
(652,1257,o),
(640,1268,o),
(640,1283,cs),
(640,1290,o),
(643,1296,o),
(648,1301,cs)
);
}
);
};
layerId = master01;
shapes = (
{
alignment = -1;
ref = A;
},
{
alignment = -1;
pos = (625,300);
ref = acute;
}
);
userData = {
com.fontlab.hintData = {
hhints = (
{
position = 342;
width = 59;
},
{
position = 1094;
width = 20;
},
{
position = 1257;
width = 331;
}
);
vhints = (
{
position = 640;
width = 349;
}
);
};
};
width = 1349;
}
);
unicode = 193;
},
{
glyphname = Abreve;
lastChange = "2023-04-21 12:17:44 +0000";
layers = (
{
background = {
shapes = (
{
closed = 1;
nodes = (
(1001,401,l),
(674,998,l),
(347,401,l)
);
},
{
closed = 1;
nodes = (
(622,1063,ls),
(643,1102,o),
(650,1114,o),
(674,1114,cs),
(693,1114,o),
(704,1103,o),
(726,1063,cs),
(1278,67,ls),
(1286,53,o),
(1289,40,o),
(1289,28,cs),
(1289,4,o),
(1274,-10,o),
(1255,-10,cs),
(1237,-10,o),
(1218,1,o),
(1200,34,cs),
(1030,342,l),
(318,342,l),
(146,30,ls),
(131,2,o),
(110,-10,o),
(92,-10,cs),
(69,-10,o),
(59,7,o),
(59,34,cs),
(59,44,o),
(64,55,o),
(71,68,cs)
);
},
{
closed = 1;
nodes = (
(859,1443,l),
(859,1363,o),
(835,1257,o),
(674,1257,cs),
(508,1257,o),
(489,1370,o),
(489,1443,c),
(526,1443,l),
(528,1385,o),
(558,1309,o),
(674,1309,cs),
(787,1309,o),
(817,1384,o),
(822,1443,c)
);
}
);
};
layerId = master01;
shapes = (
{
alignment = -1;
ref = A;
},
{
alignment = -1;
pos = (315,268);
ref = breve;
}
);
userData = {
com.fontlab.hintData = {
hhints = (
{
position = 342;
width = 59;
},
{
position = 1094;
width = 20;
},
{
position = 1257;
width = 52;
}
);
vhints = (
{
position = 489;
width = 37;
},
{
position = 822;
width = 37;
}
);
};
};
width = 1349;
}
);
unicode = 258;
},
{
glyphname = Acircumflex;
lastChange = "2023-04-21 12:17:44 +0000";
layers = (
{
background = {
shapes = (
{
closed = 1;
nodes = (
(1001,401,l),
(674,998,l),
(347,401,l)
);
},
{
closed = 1;
nodes = (
(622,1063,ls),
(643,1102,o),
(650,1114,o),
(674,1114,cs),
(693,1114,o),
(704,1103,o),
(726,1063,cs),
(1278,67,ls),
(1286,53,o),
(1289,40,o),
(1289,28,cs),
(1289,4,o),
(1274,-10,o),
(1255,-10,cs),
(1237,-10,o),
(1218,1,o),
(1200,34,cs),
(1030,342,l),
(318,342,l),
(146,30,ls),
(131,2,o),
(110,-10,o),
(92,-10,cs),
(69,-10,o),
(59,7,o),
(59,34,cs),
(59,44,o),
(64,55,o),
(71,68,cs)
);
},
{
closed = 1;
nodes = (
(544,1231,l),
(468,1231,l),
(621,1466,ls),
(637,1491,o),
(655,1504,o),
(674,1504,cs),
(690,1504,o),
(710,1491,o),
(727,1466,cs),
(880,1231,l),
(804,1231,l),
(674,1449,l)
);
}
);
};
layerId = master01;
shapes = (
{
alignment = -1;
ref = A;
},
{
alignment = -1;
pos = (433,339);
ref = circumflex;
}
);
userData = {
com.fontlab.hintData = {
hhints = (
{
position = 342;
width = 59;
},
{
position = 1094;
width = 20;
},
{
position = 1231;
width = 273;
}
);
vhints = (
{
position = 468;
width = 412;
}
);
};
};
width = 1349;
}
);
unicode = 194;
},
{
glyphname = Adblgrave;
lastChange = "2023-04-21 12:21:45 +0000";
layers = (
{
background = {
shapes = (
{
closed = 1;
nodes = (
(1001,401,l),
(674,998,l),
(347,401,l)
);
},
{
closed = 1;
nodes = (
(622,1063,ls),
(643,1102,o),
(650,1114,o),
(674,1114,cs),
(693,1114,o),
(704,1103,o),
(726,1063,cs),
(1278,67,ls),
(1286,53,o),
(1289,40,o),
(1289,28,cs),
(1289,4,o),
(1274,-10,o),
(1255,-10,cs),
(1237,-10,o),
(1218,1,o),
(1200,34,cs),
(1030,342,l),
(318,342,l),
(146,30,ls),
(131,2,o),
(110,-10,o),
(92,-10,cs),
(69,-10,o),
(59,7,o),
(59,34,cs),
(59,44,o),
(64,55,o),
(71,68,cs)
);
},
{
closed = 1;
nodes = (
(815,1301,ls),
(819,1296,o),
(823,1290,o),
(823,1283,cs),
(823,1268,o),
(811,1257,o),
(796,1257,cs),
(790,1257,o),
(785,1259,o),
(781,1262,cs),
(489,1499,ls),
(479,1507,o),
(474,1516,o),
(474,1527,cs),
(474,1551,o),
(503,1578,o),
(528,1578,cs),
(537,1578,o),
(546,1574,o),
(553,1567,cs)
);
},
{
closed = 1;
nodes = (
(587,1301,ls),
(591,1296,o),
(595,1290,o),
(595,1283,cs),
(595,1268,o),
(583,1257,o),
(568,1257,cs),
(562,1257,o),
(557,1259,o),
(553,1262,cs),
(261,1499,ls),
(251,1507,o),
(246,1516,o),
(246,1527,cs),
(246,1551,o),
(275,1578,o),
(300,1578,cs),
(309,1578,o),
(318,1574,o),
(325,1567,cs)
);
}
);
};
layerId = master01;
shapes = (
{
ref = A;
},
{
pos = (467.5,296);
ref = dblgravecomb;
}
);
userData = {
com.fontlab.hintData = {
hhints = (
{
position = 342;
width = 59;
},
{
position = 1094;
width = 20;
},
{
position = 1257;
width = 321;
}
);
vhints = (
{
position = 246;
width = 577;
}
);
};
};
width = 1349;
}
);
unicode = 512;
},
{
glyphname = Adieresis;
lastChange = "2023-04-21 12:17:44 +0000";
layers = (
{
background = {
shapes = (
{
closed = 1;
nodes = (
(1001,401,l),
(674,998,l),
(347,401,l)
);
},
{
closed = 1;
nodes = (
(622,1063,ls),
(643,1102,o),
(650,1114,o),
(674,1114,cs),
(693,1114,o),
(704,1103,o),
(726,1063,cs),
(1278,67,ls),
(1286,53,o),
(1289,40,o),
(1289,28,cs),
(1289,4,o),
(1274,-10,o),
(1255,-10,cs),
(1237,-10,o),
(1218,1,o),
(1200,34,cs),
(1030,342,l),
(318,342,l),
(146,30,ls),
(131,2,o),
(110,-10,o),
(92,-10,cs),
(69,-10,o),
(59,7,o),
(59,34,cs),
(59,44,o),
(64,55,o),
(71,68,cs)
);
},
{
closed = 1;
nodes = (
(825,1381,o),
(848,1405,o),
(883,1405,cs),
(916,1405,o),
(943,1381,o),
(943,1346,cs),
(943,1313,o),
(916,1290,o),
(883,1290,cs),
(848,1290,o),
(825,1313,o),
(825,1346,cs)
);
},
{
closed = 1;
nodes = (
(386,1381,o),
(409,1405,o),
(444,1405,cs),
(477,1405,o),
(504,1381,o),
(504,1346,cs),
(504,1313,o),
(477,1290,o),
(444,1290,cs),
(409,1290,o),
(386,1313,o),
(386,1346,cs)
);
}
);
};
layerId = master01;
shapes = (
{
alignment = -1;
ref = A;
},
{
alignment = -1;
pos = (299,350);
ref = dieresis;
}
);
userData = {
com.fontlab.hintData = {
hhints = (
{
position = 342;
width = 59;
},
{
position = 1094;
width = 20;
},
{
position = 1290;
width = 115;
}
);
vhints = (
{
position = 386;
width = 118;
},
{
position = 825;
width = 118;
}
);
};
};
width = 1349;
}
);
unicode = 196;
},
{
glyphname = Agrave;
lastChange = "2023-04-21 12:17:44 +0000";
layers = (
{
background = {
shapes = (
{
closed = 1;
nodes = (
(1001,401,l),
(674,998,l),
(347,401,l)
);
},
{
closed = 1;
nodes = (
(622,1063,ls),
(643,1102,o),
(650,1114,o),
(674,1114,cs),
(693,1114,o),
(704,1103,o),
(726,1063,cs),
(1278,67,ls),
(1286,53,o),
(1289,40,o),
(1289,28,cs),
(1289,4,o),
(1274,-10,o),
(1255,-10,cs),
(1237,-10,o),
(1218,1,o),
(1200,34,cs),
(1030,342,l),
(318,342,l),
(146,30,ls),
(131,2,o),
(110,-10,o),
(92,-10,cs),
(69,-10,o),
(59,7,o),
(59,34,cs),
(59,44,o),
(64,55,o),
(71,68,cs)
);
},
{
closed = 1;
nodes = (
(841,1352,ls),
(846,1347,o),
(849,1341,o),
(849,1334,cs),
(849,1319,o),
(837,1308,o),
(822,1308,cs),
(816,1308,o),
(811,1310,o),
(807,1313,cs),
(515,1550,ls),
(505,1558,o),
(500,1567,o),
(500,1578,cs),
(500,1607,o),
(535,1639,o),
(564,1639,cs),
(573,1639,o),
(582,1635,o),
(589,1628,cs)
);
}
);
};
layerId = master01;
shapes = (
{
alignment = -1;
ref = A;
},
{
alignment = -1;
pos = (488,339);
ref = grave;
}
);
userData = {
com.fontlab.hintData = {
hhints = (
{
position = 342;
width = 59;
},
{
position = 1094;
width = 20;
},
{
position = 1308;
width = 331;
}
);
vhints = (
{
position = 500;
width = 349;
}
);
};
};
width = 1349;
}
);
unicode = 192;
},
{
glyphname = Ainvertedbreve;
lastChange = "2023-04-21 12:21:45 +0000";
layers = (
{
background = {
shapes = (
{
closed = 1;
nodes = (
(1001,401,l),
(674,998,l),
(347,401,l)
);
},
{
closed = 1;
nodes = (
(622,1063,ls),
(643,1102,o),
(650,1114,o),
(674,1114,cs),
(693,1114,o),
(704,1103,o),
(726,1063,cs),
(1278,67,ls),
(1286,53,o),
(1289,40,o),
(1289,28,cs),
(1289,4,o),
(1274,-10,o),
(1255,-10,cs),
(1237,-10,o),
(1218,1,o),
(1200,34,cs),
(1030,342,l),
(318,342,l),
(146,30,ls),
(131,2,o),
(110,-10,o),
(92,-10,cs),
(69,-10,o),
(59,7,o),
(59,34,cs),
(59,44,o),
(64,55,o),
(71,68,cs)
);
},
{
closed = 1;
nodes = (
(812,1257,l),
(807,1312,o),
(779,1381,o),
(674,1381,cs),
(566,1381,o),
(538,1311,o),
(536,1257,c),
(489,1257,l),
(489,1330,o),
(508,1443,o),
(674,1443,cs),
(835,1443,o),
(859,1337,o),
(859,1257,c)
);
}
);
};
layerId = master01;
shapes = (
{
ref = A;
},
{
pos = (315,268);
ref = breveinvertedcomb;
}
);
userData = {
com.fontlab.hintData = {
hhints = (
{
position = 342;
width = 59;
},
{
position = 1094;
width = 20;
},
{
position = 1381;
width = 62;
}
);
vhints = (
{
position = 489;
width = 47;
},
{
position = 812;
width = 47;
}
);
};
};
width = 1349;
}
);
unicode = 514;
},
{
glyphname = Amacron;
lastChange = "2023-04-21 12:17:44 +0000";
layers = (
{
background = {
shapes = (
{
closed = 1;
nodes = (
(1001,401,l),
(674,998,l),
(347,401,l)
);
},
{
closed = 1;
nodes = (
(622,1063,ls),
(643,1102,o),
(650,1114,o),
(674,1114,cs),
(693,1114,o),
(704,1103,o),
(726,1063,cs),
(1278,67,ls),
(1286,53,o),
(1289,40,o),
(1289,28,cs),
(1289,4,o),
(1274,-10,o),
(1255,-10,cs),
(1237,-10,o),
(1218,1,o),
(1200,34,cs),
(1030,342,l),
(318,342,l),
(146,30,ls),
(131,2,o),
(110,-10,o),
(92,-10,cs),
(69,-10,o),
(59,7,o),
(59,34,cs),
(59,44,o),
(64,55,o),
(71,68,cs)
);
},
{
closed = 1;
nodes = (
(850,1312,ls),
(869,1312,o),
(877,1295,o),
(877,1283,cs),
(877,1272,o),
(869,1257,o),
(850,1257,cs),
(498,1257,ls),
(479,1257,o),
(471,1272,o),
(471,1283,cs),
(471,1295,o),
(479,1312,o),
(498,1312,cs)
);
}
);
};
layerId = master01;
shapes = (
{
alignment = -1;
ref = A;
},
{
alignment = -1;
pos = (336,331);
ref = macron;
}
);
userData = {
com.fontlab.hintData = {
hhints = (
{
position = 342;
width = 59;
},
{
position = 1094;
width = 20;
},
{
position = 1257;
width = 55;
}
);
vhints = (
{
position = 471;
width = 406;
}
);
};
};
width = 1349;
}
);
unicode = 256;
},
{
glyphname = Aogonek;
lastChange = "2023-04-21 12:17:44 +0000";
layers = (
{
background = {
shapes = (
{
closed = 1;
nodes = (
(1001,401,l),
(674,998,l),
(347,401,l)
);
},
{
closed = 1;
nodes = (
(622,1063,ls),
(643,1102,o),
(650,1114,o),
(674,1114,cs),
(693,1114,o),
(704,1103,o),
(726,1063,cs),
(1278,67,ls),
(1286,53,o),
(1289,40,o),
(1289,28,cs),
(1289,4,o),
(1274,-10,o),
(1255,-10,cs),
(1237,-10,o),
(1218,1,o),
(1200,34,cs),
(1030,342,l),
(318,342,l),
(146,30,ls),
(131,2,o),
(110,-10,o),
(92,-10,cs),
(69,-10,o),
(59,7,o),
(59,34,cs),
(59,44,o),
(64,55,o),
(71,68,cs)
);
},
{
closed = 1;
nodes = (
(1253,6,l),
(1206,-49,o),
(1183,-108,o),
(1183,-151,cs),
(1183,-206,o),
(1213,-223,o),
(1234,-223,cs),
(1261,-223,o),
(1288,-204,o),
(1305,-193,c),
(1315,-202,l),
(1292,-249,o),
(1240,-279,o),
(1189,-279,cs),
(1144,-279,o),
(1094,-251,o),
(1094,-182,cs),
(1094,-118,o),
(1148,-55,o),
(1223,6,c)
);
}
);
};
layerId = master01;
shapes = (
{
alignment = -1;
ref = A;
},
{
alignment = -1;
pos = (1048,0);
ref = ogonek;
}
);
userData = {
com.fontlab.hintData = {
hhints = (
{
position = -279;
width = 56;
},
{
position = 342;
width = 59;
},
{
position = 1094;
width = 20;
}
);
vhints = (
{
position = 1094;
width = 89;
}
);
};
};
width = 1349;
}
);
unicode = 260;
},
{
glyphname = Aring;
lastChange = "2023-04-21 12:17:44 +0000";
layers = (
{
background = {
shapes = (
{
closed = 1;
nodes = (
(1001,401,l),
(674,998,l),
(347,401,l)
);
},
{
closed = 1;
nodes = (
(622,1063,ls),
(643,1102,o),
(650,1114,o),
(674,1114,cs),
(693,1114,o),
(704,1103,o),
(726,1063,cs),
(1278,67,ls),
(1286,53,o),
(1289,40,o),
(1289,28,cs),
(1289,4,o),
(1274,-10,o),
(1255,-10,cs),
(1237,-10,o),
(1218,1,o),
(1200,34,cs),
(1030,342,l),
(318,342,l),
(146,30,ls),
(131,2,o),
(110,-10,o),
(92,-10,cs),
(69,-10,o),
(59,7,o),
(59,34,cs),
(59,44,o),
(64,55,o),
(71,68,cs)
);
},
{
closed = 1;
nodes = (
(608,1265,o),
(638,1235,o),
(675,1235,cs),
(712,1235,o),
(743,1265,o),
(743,1300,cs),
(743,1336,o),
(712,1364,o),
(675,1364,cs),
(638,1364,o),
(608,1336,o),
(608,1300,cs)
);
},
{
closed = 1;
nodes = (
(792,1236,o),
(739,1188,o),
(675,1188,cs),
(612,1188,o),
(557,1236,o),
(557,1300,cs),
(557,1364,o),
(608,1413,o),
(675,1413,cs),
(739,1413,o),
(792,1364,o),
(792,1300,cs)
);
}
);
};
layerId = master01;
shapes = (
{
alignment = -1;
ref = A;
},
{
alignment = -1;
pos = (491,303);
ref = ring;
}
);
userData = {
com.fontlab.hintData = {
hhints = (
{
position = 342;
width = 59;
},
{
position = 1094;
width = 20;
},
{
position = 1188;
width = 47;
},
{
position = 1364;
width = 49;
}
);
vhints = (
{
position = 556;
width = 51;
},
{
position = 742;
width = 49;
}
);
};
};
width = 1349;
}
);
unicode = 197;
},
{
glyphname = Atilde;
lastChange = "2023-04-21 12:17:44 +0000";
layers = (
{
background = {
shapes = (
{
closed = 1;
nodes = (
(1001,401,l),
(674,998,l),
(347,401,l)
);
},
{
closed = 1;
nodes = (
(622,1063,ls),
(643,1102,o),
(650,1114,o),
(674,1114,cs),
(693,1114,o),
(704,1103,o),
(726,1063,cs),
(1278,67,ls),
(1286,53,o),
(1289,40,o),
(1289,28,cs),
(1289,4,o),
(1274,-10,o),
(1255,-10,cs),
(1237,-10,o),
(1218,1,o),
(1200,34,cs),
(1030,342,l),
(318,342,l),
(146,30,ls),
(131,2,o),
(110,-10,o),
(92,-10,cs),
(69,-10,o),
(59,7,o),
(59,34,cs),
(59,44,o),
(64,55,o),
(71,68,cs)
);
},
{
closed = 1;
nodes = (
(841,1325,o),
(847,1348,o),
(847,1393,c),
(910,1393,l),
(913,1375,o),
(915,1357,o),
(915,1338,cs),
(915,1290,o),
(879,1257,o),
(816,1257,cs),
(706,1257,o),
(621,1327,o),
(534,1327,cs),
(506,1327,o),
(502,1307,o),
(502,1289,cs),
(502,1279,o),
(503,1270,o),
(503,1262,c),
(440,1262,l),
(436,1279,o),
(434,1298,o),
(434,1317,cs),
(434,1364,o),
(471,1398,o),
(534,1398,cs),
(641,1398,o),
(732,1325,o),
(812,1325,cs)
);
}
);
};
layerId = master01;
shapes = (
{
alignment = -1;
ref = A;
},
{
alignment = -1;
pos = (208,341);
ref = tilde;
}
);
userData = {
com.fontlab.hintData = {
hhints = (
{
position = 342;
width = 59;
},
{
position = 1094;
width = 20;
},
{
position = 1257;
width = 68;
},
{
position = 1327;
width = 71;
}
);
vhints = (
{
position = 434;
width = 68;
},
{
position = 846;
width = 68;
}
);
};
};
width = 1349;
}
);
unicode = 195;
},
{
glyphname = AE;
lastChange = "2023-04-21 12:17:34 +0000";
layers = (
{
background = {
shapes = (
{
closed = 1;
nodes = (
(627,397,l),
(627,1014,l),
(290,397,l)
);
},
{
closed = 1;
nodes = (
(1352,-4,o),
(1317,0,o),
(1278,0,cs),
(666,0,ls),
(627,0,o),
(627,0,o),
(627,35,cs),
(627,348,l),
(269,348,l),
(206,225,o),
(89,-18,o),
(46,-18,cs),
(21,-18,o),
(9,1,o),
(9,12,cs),
(9,29,o),
(19,44,o),
(30,63,cs),
(578,1065,l),
(593,1090,o),
(603,1111,o),
(619,1114,c),
(1276,1114,ls),
(1315,1114,o),
(1350,1118,o),
(1350,1079,cs),
(1350,1046,o),
(1315,1048,o),
(1276,1048,cs),
(712,1048,l),
(712,601,l),
(1249,601,ls),
(1287,601,o),
(1323,604,o),
(1323,572,cs),
(1323,543,o),
(1304,539,o),
(1278,539,cs),
(1269,539,o),
(1259,540,o),
(1249,540,cs),
(712,540,l),
(712,66,l),
(1278,66,ls),
(1317,66,o),
(1352,68,o),
(1352,35,cs)
);
}
);
};
layerId = master01;
shapes = (
{
closed = 1;
nodes = (
(627,397,l),
(627,1014,l),
(290,397,l)
);
},
{
closed = 1;
nodes = (
(1352,-4,o),
(1317,0,o),
(1278,0,cs),
(666,0,ls),
(627,0,o),
(627,0,o),
(627,35,cs),
(627,348,l),
(269,348,l),
(206,225,o),
(89,-18,o),
(46,-18,cs),
(21,-18,o),
(9,1,o),
(9,12,cs),
(9,29,o),
(19,44,o),
(30,63,cs),
(578,1065,l),
(593,1090,o),
(603,1111,o),
(619,1114,c),
(1276,1114,ls),
(1315,1114,o),
(1350,1118,o),
(1350,1079,cs),
(1350,1046,o),
(1315,1048,o),
(1276,1048,cs),
(712,1048,l),
(712,601,l),
(1249,601,ls),
(1287,601,o),
(1323,604,o),
(1323,572,cs),
(1323,543,o),
(1304,539,o),
(1278,539,cs),
(1269,539,o),
(1259,540,o),
(1249,540,cs),
(712,540,l),
(712,66,l),
(1278,66,ls),
(1317,66,o),
(1352,68,o),
(1352,35,cs)
);
}
);
userData = {
com.fontlab.hintData = {
hhints = (
{
position = 0;
width = 66;
},
{
position = 348;
width = 49;
},
{
position = 540;
width = 61;
},
{
position = 1048;
width = 66;
}
);
vhints = (
{
position = 627;
width = 85;
}
);
};
};
width = 1446;
}
);
unicode = 198;
},
{
glyphname = B;
lastChange = "2023-04-21 12:17:34 +0000";
layers = (
{
background = {
shapes = (
{
closed = 1;
nodes = (
(1193,510,o),
(1009,564,o),
(718,564,cs),
(245,564,l),
(245,66,l),
(808,66,ls),
(1169,66,o),
(1193,193,o),
(1193,326,cs)
);
},
{
closed = 1;
nodes = (
(1134,972,o),
(1062,1048,o),
(694,1048,cs),
(245,1048,l),
(245,619,l),
(718,619,ls),
(1006,619,o),
(1134,656,o),
(1134,836,cs)
);
},
{
closed = 1;
nodes = (
(1278,55,o),
(1056,0,o),
(770,0,cs),
(194,0,ls),
(171,0,o),
(160,15,o),
(160,35,cs),
(160,1077,ls),
(160,1101,o),
(176,1114,o),
(199,1114,cs),
(657,1114,ls),
(946,1114,o),
(1219,1108,o),
(1219,836,cs),
(1219,591,o),
(976,593,o),
(959,594,c),
(1121,578,o),
(1275,522,o),
(1278,326,c)
);
}
);
};
layerId = master01;
shapes = (
{
closed = 1;
nodes = (
(1193,510,o),
(1009,564,o),
(718,564,cs),
(245,564,l),
(245,66,l),
(808,66,ls),
(1169,66,o),
(1193,193,o),
(1193,326,cs)
);
},
{
closed = 1;
nodes = (
(1134,972,o),
(1062,1048,o),
(694,1048,cs),
(245,1048,l),
(245,619,l),
(718,619,ls),
(1006,619,o),
(1134,656,o),
(1134,836,cs)
);
},
{
closed = 1;
nodes = (
(1278,55,o),
(1056,0,o),
(770,0,cs),
(194,0,ls),
(171,0,o),
(160,15,o),
(160,35,cs),
(160,1077,ls),
(160,1101,o),
(176,1114,o),
(199,1114,cs),
(657,1114,ls),
(946,1114,o),
(1219,1108,o),
(1219,836,cs),
(1219,591,o),
(976,593,o),
(959,594,c),
(1121,578,o),
(1275,522,o),
(1278,326,c)
);
}
);
userData = {
com.fontlab.hintData = {
hhints = (
{
position = 0;
width = 66;
},
{
position = 564;
width = 55;
},
{
position = 1048;
width = 66;
}
);
vhints = (
{
position = 160;
width = 85;
},
{
position = 1134;
width = 85;
},
{
position = 1193;
width = 85;
}
);
};
};
width = 1408;
}
);
unicode = 66;
},
{
glyphname = C;
lastChange = "2023-04-21 12:17:34 +0000";
layers = (
{
background = {
shapes = (
{
closed = 1;
nodes = (
(123,972,o),
(377,1135,o),
(873,1135,cs),
(1045,1135,o),
(1206,1105,o),
(1373,1036,cs),
(1394,1027,o),
(1403,1011,o),
(1403,998,cs),
(1403,982,o),
(1390,968,o),
(1371,968,cs),
(1365,968,o),
(1359,970,o),
(1352,973,cs),
(1199,1037,o),
(1028,1069,o),
(873,1069,cs),
(398,1069,o),
(208,916,o),
(208,557,cs),
(208,198,o),
(398,45,o),
(873,45,cs),
(1028,45,o),
(1199,77,o),
(1352,141,cs),
(1358,143,o),
(1365,145,o),
(1370,145,cs),
(1390,145,o),
(1404,131,o),
(1404,115,cs),
(1404,102,o),
(1395,87,o),
(1373,78,cs),
(1206,9,o),
(1045,-21,o),
(873,-21,cs),
(377,-21,o),
(123,142,o),
(123,557,cs)
);
}
);
};
layerId = master01;
shapes = (
{
closed = 1;
nodes = (
(123,972,o),
(377,1135,o),
(873,1135,cs),
(1045,1135,o),
(1206,1105,o),
(1373,1036,cs),
(1394,1027,o),
(1403,1011,o),
(1403,998,cs),
(1403,982,o),
(1390,968,o),
(1371,968,cs),
(1365,968,o),
(1359,970,o),
(1352,973,cs),
(1199,1037,o),
(1028,1069,o),
(873,1069,cs),
(398,1069,o),
(208,916,o),
(208,557,cs),
(208,198,o),
(398,45,o),
(873,45,cs),
(1028,45,o),
(1199,77,o),
(1352,141,cs),
(1358,143,o),
(1365,145,o),
(1370,145,cs),
(1390,145,o),
(1404,131,o),
(1404,115,cs),
(1404,102,o),
(1395,87,o),
(1373,78,cs),
(1206,9,o),
(1045,-21,o),
(873,-21,cs),
(377,-21,o),
(123,142,o),
(123,557,cs)
);
}
);
userData = {
com.fontlab.hintData = {
hhints = (
{
position = -21;
width = 66;
},
{
position = 1069;
width = 66;
}
);
vhints = (
{
position = 123;
width = 85;
}
);
};
};
width = 1489;
}
);
unicode = 67;
},
{
glyphname = Cacute;
lastChange = "2023-04-21 12:17:44 +0000";
layers = (
{
background = {
shapes = (
{
closed = 1;
nodes = (
(123,972,o),
(377,1135,o),
(873,1135,cs),
(1045,1135,o),
(1206,1105,o),
(1373,1036,cs),
(1394,1027,o),
(1403,1011,o),
(1403,998,cs),
(1403,982,o),
(1390,968,o),
(1371,968,cs),
(1365,968,o),
(1359,970,o),
(1352,973,cs),
(1199,1037,o),
(1028,1069,o),
(873,1069,cs),
(398,1069,o),
(208,916,o),
(208,557,cs),
(208,198,o),
(398,45,o),
(873,45,cs),
(1028,45,o),
(1199,77,o),
(1352,141,cs),
(1358,143,o),
(1365,145,o),
(1370,145,cs),
(1390,145,o),
(1404,131,o),
(1404,115,cs),
(1404,102,o),
(1395,87,o),
(1373,78,cs),
(1206,9,o),
(1045,-21,o),
(873,-21,cs),
(377,-21,o),
(123,142,o),
(123,557,cs)
);
},
{
closed = 1;
nodes = (
(989,1577,ls),
(996,1584,o),
(1005,1588,o),
(1014,1588,cs),
(1043,1588,o),
(1078,1556,o),
(1078,1527,cs),
(1078,1516,o),
(1073,1507,o),
(1063,1499,cs),
(771,1262,ls),
(767,1259,o),
(762,1257,o),
(756,1257,cs),
(741,1257,o),
(729,1268,o),
(729,1283,cs),
(729,1290,o),
(732,1296,o),
(737,1301,cs)
);
}
);
};
layerId = master01;
shapes = (
{
alignment = -1;
ref = C;
},
{
alignment = -1;
pos = (714,300);
ref = acute;
}
);
userData = {
com.fontlab.hintData = {
hhints = (
{
position = -21;
width = 66;
},
{
position = 1069;
width = 66;
},
{
position = 1257;
width = 331;
}
);
vhints = (
{
position = 123;
width = 85;
},
{
position = 729;
width = 349;
}
);
};
};
width = 1489;
}
);
unicode = 262;
},
{
glyphname = Ccaron;
lastChange = "2023-04-21 12:17:44 +0000";
layers = (
{
background = {
shapes = (
{
closed = 1;
nodes = (
(123,972,o),
(377,1135,o),
(873,1135,cs),
(1045,1135,o),
(1206,1105,o),
(1373,1036,cs),
(1394,1027,o),
(1403,1011,o),
(1403,998,cs),
(1403,982,o),
(1390,968,o),
(1371,968,cs),
(1365,968,o),
(1359,970,o),
(1352,973,cs),
(1199,1037,o),
(1028,1069,o),
(873,1069,cs),
(398,1069,o),
(208,916,o),
(208,557,cs),
(208,198,o),
(398,45,o),
(873,45,cs),
(1028,45,o),
(1199,77,o),
(1352,141,cs),
(1358,143,o),
(1365,145,o),
(1370,145,cs),
(1390,145,o),
(1404,131,o),
(1404,115,cs),
(1404,102,o),
(1395,87,o),
(1373,78,cs),
(1206,9,o),
(1045,-21,o),
(873,-21,cs),
(377,-21,o),
(123,142,o),
(123,557,cs)
);
},
{
closed = 1;
nodes = (
(764,1312,l),
(894,1530,l),
(970,1530,l),
(817,1295,ls),
(800,1270,o),
(780,1257,o),
(764,1257,cs),
(745,1257,o),
(727,1270,o),
(711,1295,cs),
(558,1530,l),
(634,1530,l)
);
}
);
};
layerId = master01;
shapes = (
{
alignment = -1;
ref = C;
},
{
alignment = -1;
pos = (485,282);
ref = caron;
}
);
userData = {
com.fontlab.hintData = {
hhints = (
{
position = -21;
width = 66;
},
{
position = 1069;
width = 66;
},
{
position = 1257;
width = 273;
}
);
vhints = (
{
position = 123;
width = 85;
},
{
position = 558;
width = 412;
}
);
};
};
width = 1489;
}
);
unicode = 268;
},
{
glyphname = Ccedilla;
lastChange = "2023-04-21 12:17:44 +0000";
layers = (
{
background = {
shapes = (
{
closed = 1;
nodes = (
(123,972,o),
(377,1135,o),
(873,1135,cs),
(1045,1135,o),
(1206,1105,o),
(1373,1036,cs),
(1394,1027,o),
(1403,1011,o),
(1403,998,cs),
(1403,982,o),
(1390,968,o),
(1371,968,cs),
(1365,968,o),
(1359,970,o),
(1352,973,cs),
(1199,1037,o),
(1028,1069,o),
(873,1069,cs),
(398,1069,o),
(208,916,o),
(208,557,cs),
(208,198,o),
(398,45,o),
(873,45,cs),
(1028,45,o),
(1199,77,o),
(1352,141,cs),
(1358,143,o),
(1365,145,o),
(1370,145,cs),
(1390,145,o),
(1404,131,o),
(1404,115,cs),
(1404,102,o),
(1395,87,o),
(1373,78,cs),
(1206,9,o),
(1045,-21,o),
(873,-21,cs),
(377,-21,o),
(123,142,o),
(123,557,cs)
);
},
{
closed = 1;
nodes = (
(841,10,ls),
(850,23,o),
(858,29,o),
(867,29,cs),
(878,29,o),
(885,19,o),
(885,7,cs),
(885,2,o),
(884,-3,o),
(881,-8,cs),
(715,-298,ls),
(704,-317,o),
(691,-324,o),
(676,-324,cs),
(657,-324,o),
(642,-310,o),
(642,-291,cs),
(642,-282,o),
(645,-273,o),
(652,-264,cs)
);
}
);
};
layerId = master01;
shapes = (
{
alignment = -1;
ref = C;
},
{
alignment = -1;
pos = (631,0);
ref = cedilla;
}
);
userData = {
com.fontlab.hintData = {
hhints = (
{
position = -324;
width = 353;
},
{
position = -21;
width = 66;
},
{
position = 1069;
width = 66;
}
);
vhints = (
{
position = 123;
width = 85;
},
{
position = 642;
width = 243;
}
);
};
};
width = 1489;
}
);
unicode = 199;
},
{
glyphname = Ccircumflex;
lastChange = "2023-04-21 12:17:44 +0000";
layers = (
{
background = {
shapes = (
{
closed = 1;
nodes = (
(123,972,o),
(377,1135,o),
(873,1135,cs),
(1045,1135,o),
(1206,1105,o),
(1373,1036,cs),
(1394,1027,o),
(1403,1011,o),
(1403,998,cs),
(1403,982,o),
(1390,968,o),
(1371,968,cs),
(1365,968,o),
(1359,970,o),
(1352,973,cs),
(1199,1037,o),
(1028,1069,o),
(873,1069,cs),
(398,1069,o),
(208,916,o),
(208,557,cs),
(208,198,o),
(398,45,o),
(873,45,cs),
(1028,45,o),
(1199,77,o),
(1352,141,cs),
(1358,143,o),
(1365,145,o),
(1370,145,cs),
(1390,145,o),
(1404,131,o),
(1404,115,cs),
(1404,102,o),
(1395,87,o),
(1373,78,cs),
(1206,9,o),
(1045,-21,o),
(873,-21,cs),
(377,-21,o),
(123,142,o),
(123,557,cs)
);
},
{
closed = 1;
nodes = (
(634,1257,l),
(558,1257,l),
(711,1492,ls),
(727,1517,o),
(745,1530,o),
(764,1530,cs),
(780,1530,o),
(800,1517,o),
(817,1492,cs),
(970,1257,l),
(894,1257,l),
(764,1475,l)
);
}
);
};
layerId = master01;
shapes = (
{
alignment = -1;
ref = C;
},
{
alignment = -1;
pos = (523,365);
ref = circumflex;
}
);
userData = {
com.fontlab.hintData = {
hhints = (
{
position = -21;
width = 66;
},
{
position = 1069;
width = 66;
},
{
position = 1257;
width = 273;
}
);
vhints = (
{
position = 123;
width = 85;
},
{
position = 558;
width = 412;
}
);
};
};
width = 1489;
}
);
unicode = 264;
},
{
glyphname = Cdotaccent;
lastChange = "2023-04-21 12:17:44 +0000";
layers = (
{
background = {
shapes = (
{
closed = 1;
nodes = (
(123,972,o),
(377,1135,o),
(873,1135,cs),
(1045,1135,o),
(1206,1105,o),
(1373,1036,cs),
(1394,1027,o),
(1403,1011,o),
(1403,998,cs),
(1403,982,o),
(1390,968,o),
(1371,968,cs),
(1365,968,o),
(1359,970,o),
(1352,973,cs),
(1199,1037,o),
(1028,1069,o),
(873,1069,cs),
(398,1069,o),
(208,916,o),
(208,557,cs),
(208,198,o),
(398,45,o),
(873,45,cs),
(1028,45,o),
(1199,77,o),
(1352,141,cs),
(1358,143,o),
(1365,145,o),
(1370,145,cs),
(1390,145,o),
(1404,131,o),
(1404,115,cs),
(1404,102,o),
(1395,87,o),
(1373,78,cs),
(1206,9,o),
(1045,-21,o),
(873,-21,cs),
(377,-21,o),
(123,142,o),
(123,557,cs)
);
},
{
closed = 1;
nodes = (
(765,1348,o),
(788,1372,o),
(823,1372,cs),
(856,1372,o),
(883,1348,o),
(883,1313,cs),
(883,1280,o),
(856,1257,o),
(823,1257,cs),
(788,1257,o),
(765,1280,o),
(765,1313,cs)
);
}
);
};
layerId = master01;
shapes = (
{
ref = C;
},
{
pos = (660.5,258);
ref = dotaccentcomb;
}
);
userData = {
com.fontlab.hintData = {
hhints = (
{
position = -21;
width = 66;
},
{
position = 1069;
width = 66;
},
{
position = 1257;
width = 115;
}
);
vhints = (
{
position = 123;
width = 85;
},
{
position = 764;
width = 118;
}
);
};
};
width = 1489;
}
);
unicode = 266;
},
{
glyphname = D;
lastChange = "2023-04-21 12:17:34 +0000";
layers = (
{
background = {
shapes = (
{
closed = 1;
nodes = (
(1462,903,o),
(1321,1048,o),
(887,1048,cs),
(245,1048,l),
(245,66,l),
(887,66,ls),
(1321,66,o),
(1462,210,o),
(1462,559,cs)
);
},
{
closed = 1;
nodes = (
(1547,133,o),
(1322,0,o),
(887,0,cs),
(199,0,ls),
(160,0,o),
(160,0,o),
(160,35,cs),
(160,1077,ls),
(160,1116,o),
(160,1114,o),
(201,1114,cs),
(887,1114,ls),
(1322,1114,o),
(1547,975,o),
(1547,559,cs)
);
}
);
};
layerId = master01;
shapes = (
{
closed = 1;
nodes = (
(1462,903,o),
(1321,1048,o),
(887,1048,cs),
(245,1048,l),
(245,66,l),
(887,66,ls),
(1321,66,o),
(1462,210,o),
(1462,559,cs)
);
},
{
closed = 1;
nodes = (
(1547,133,o),
(1322,0,o),
(887,0,cs),
(199,0,ls),
(160,0,o),
(160,0,o),
(160,35,cs),
(160,1077,ls),
(160,1116,o),
(160,1114,o),
(201,1114,cs),
(887,1114,ls),
(1322,1114,o),
(1547,975,o),
(1547,559,cs)
);
}
);
userData = {
com.fontlab.hintData = {
hhints = (
{
position = 0;
width = 66;
},
{
position = 1048;
width = 66;
}
);
vhints = (
{
position = 160;
width = 85;
},
{
position = 1462;
width = 85;
}
);
};
};
width = 1670;
}
);
unicode = 68;
},
{
glyphname = DZ;
lastChange = "2023-04-21 12:21:45 +0000";
layers = (
{
background = {
shapes = (
{
closed = 1;
nodes = (
(1462,903,o),
(1321,1048,o),
(887,1048,cs),
(245,1048,l),
(245,66,l),
(887,66,ls),
(1321,66,o),
(1462,210,o),
(1462,559,cs)
);
},
{
closed = 1;
nodes = (
(1547,133,o),
(1322,0,o),
(887,0,cs),
(199,0,ls),
(160,0,o),
(160,0,o),
(160,35,cs),
(160,1077,ls),
(160,1116,o),
(160,1114,o),
(201,1114,cs),
(887,1114,ls),
(1322,1114,o),
(1547,975,o),
(1547,559,cs)
);
},
{
closed = 1;
nodes = (
(1842,66,l),
(2882,66,ls),
(2913,66,o),
(2929,49,o),
(2929,33,cs),
(2929,16,o),
(2913,0,o),
(2882,0,cs),
(1790,0,ls),
(1741,0,o),
(1717,0,o),
(1717,36,cs),
(1717,57,o),
(1728,69,o),
(1749,88,cs),
(2833,1048,l),
(1790,1048,ls),
(1759,1048,o),
(1745,1064,o),
(1745,1081,cs),
(1745,1097,o),
(1759,1114,o),
(1790,1114,cs),
(2878,1114,ls),
(2925,1114,o),
(2960,1112,o),
(2960,1079,cs),
(2960,1060,o),
(2942,1042,o),
(2927,1026,c)
);
}
);
};
layerId = master01;
shapes = (
{
ref = D;
},
{
pos = (1670,0);
ref = Z;
}
);
userData = {
com.fontlab.hintData = {
hhints = (
{
position = 0;
width = 66;
},
{
position = 1048;
width = 66;
}
);
vhints = (
{
position = 160;
width = 85;
},
{
position = 1462;
width = 85;
}
);
};
};
width = 3005;
}
);
unicode = 497;
},
{
glyphname = DZcaron;
lastChange = "2023-04-21 12:21:45 +0000";
layers = (
{
background = {
shapes = (
{
closed = 1;
nodes = (
(1462,903,o),
(1321,1048,o),
(887,1048,cs),
(245,1048,l),
(245,66,l),
(887,66,ls),
(1321,66,o),
(1462,210,o),
(1462,559,cs)
);
},
{
closed = 1;
nodes = (
(1547,133,o),
(1322,0,o),
(887,0,cs),
(199,0,ls),
(160,0,o),
(160,0,o),
(160,35,cs),
(160,1077,ls),
(160,1116,o),
(160,1114,o),
(201,1114,cs),
(887,1114,ls),
(1322,1114,o),
(1547,975,o),
(1547,559,cs)
);
},
{
closed = 1;
nodes = (
(1842,66,l),
(2882,66,ls),
(2913,66,o),
(2929,49,o),
(2929,33,cs),
(2929,16,o),
(2913,0,o),
(2882,0,cs),
(1790,0,ls),
(1741,0,o),
(1717,0,o),
(1717,36,cs),
(1717,57,o),
(1728,69,o),
(1749,88,cs),
(2833,1048,l),
(1790,1048,ls),
(1759,1048,o),
(1745,1064,o),
(1745,1081,cs),
(1745,1097,o),
(1759,1114,o),
(1790,1114,cs),
(2878,1114,ls),
(2925,1114,o),
(2960,1112,o),
(2960,1079,cs),
(2960,1060,o),
(2942,1042,o),
(2927,1026,c)
);
},
{
closed = 1;
nodes = (
(2339,1312,l),
(2469,1530,l),
(2545,1530,l),
(2392,1295,ls),
(2375,1270,o),
(2355,1257,o),
(2339,1257,cs),
(2320,1257,o),
(2302,1270,o),
(2286,1295,cs),
(2133,1530,l),
(2209,1530,l)
);
}
);
};
layerId = master01;
shapes = (
{
alignment = -1;
ref = D;
},
{
alignment = -1;
pos = (1670,0);
ref = Zcaron;
}
);
userData = {
com.fontlab.hintData = {
hhints = (
{
position = 0;
width = 66;
},
{
position = 1048;
width = 66;
},
{
position = 1257;
width = 273;
}
);
vhints = (
{
position = 160;
width = 85;
},
{
position = 1462;
width = 85;
},
{
position = 2132;
width = 412;
}
);
};
};
width = 3005;
}
);
unicode = 452;
},
{
glyphname = Dcaron;
lastChange = "2023-04-21 12:17:44 +0000";
layers = (
{
background = {
shapes = (
{
closed = 1;
nodes = (
(1462,903,o),
(1321,1048,o),
(887,1048,cs),
(245,1048,l),
(245,66,l),
(887,66,ls),
(1321,66,o),
(1462,210,o),
(1462,559,cs)
);
},
{
closed = 1;
nodes = (
(1547,133,o),
(1322,0,o),
(887,0,cs),
(199,0,ls),
(160,0,o),
(160,0,o),
(160,35,cs),
(160,1077,ls),
(160,1116,o),
(160,1114,o),
(201,1114,cs),
(887,1114,ls),
(1322,1114,o),
(1547,975,o),
(1547,559,cs)
);
},
{
closed = 1;
nodes = (
(853,1292,l),
(983,1510,l),
(1059,1510,l),
(906,1275,ls),
(889,1250,o),
(869,1237,o),
(853,1237,cs),
(834,1237,o),
(816,1250,o),
(800,1275,cs),
(647,1510,l),
(723,1510,l)
);
}
);
};
layerId = master01;
shapes = (
{
alignment = -1;
ref = D;
},
{
alignment = -1;
pos = (574,262);
ref = caron;
}
);
userData = {
com.fontlab.hintData = {
hhints = (
{
position = 0;
width = 66;
},
{
position = 1048;
width = 66;
},
{
position = 1237;
width = 273;
}
);
vhints = (
{
position = 160;
width = 85;
},
{
position = 647;
width = 412;
},
{
position = 1462;
width = 85;
}
);
};
};
width = 1670;
}
);
unicode = 270;
},
{
glyphname = Dcroat;
lastChange = "2023-04-21 12:17:44 +0000";
layers = (
{
background = {
shapes = (
{
closed = 1;
nodes = (
(1442,903,o),
(1301,1048,o),
(867,1048,cs),
(225,1048,l),
(225,614,l),
(409,614,ls),
(428,614,o),
(436,593,o),
(436,576,cs),
(436,560,o),
(428,540,o),
(409,540,cs),
(225,540,l),
(225,66,l),
(867,66,ls),
(1301,66,o),
(1442,210,o),
(1442,559,cs)
);
},
{
closed = 1;
nodes = (
(1527,133,o),
(1302,0,o),
(867,0,cs),
(179,0,ls),
(140,0,o),
(140,0,o),
(140,35,cs),
(140,540,l),
(50,540,ls),
(31,540,o),
(23,560,o),
(23,576,cs),
(23,593,o),
(31,614,o),
(50,614,cs),
(140,614,l),
(140,1077,ls),
(140,1116,o),
(140,1114,o),
(181,1114,cs),
(867,1114,ls),
(1302,1114,o),
(1527,975,o),
(1527,559,cs)
);
}
);
};
layerId = master01;
shapes = (
{
ref = Eth;
}
);
userData = {
com.fontlab.hintData = {
hhints = (
{
position = 0;
width = 66;
},
{
position = 540;
width = 74;
},
{
position = 1048;
width = 66;
}
);
vhints = (
{
position = 140;
width = 85;
},
{
position = 1442;
width = 85;
}
);
};
};
width = 1650;
}
);
unicode = 272;
},
{
glyphname = Dz;
lastChange = "2023-04-21 12:21:45 +0000";
layers = (
{
background = {
shapes = (
{
closed = 1;
nodes = (
(1462,903,o),
(1321,1048,o),
(887,1048,cs),
(245,1048,l),
(245,66,l),
(887,66,ls),
(1321,66,o),
(1462,210,o),
(1462,559,cs)
);
},
{
closed = 1;
nodes = (
(1547,133,o),
(1322,0,o),
(887,0,cs),
(199,0,ls),
(160,0,o),
(160,0,o),
(160,35,cs),
(160,1077,ls),
(160,1116,o),
(160,1114,o),
(201,1114,cs),
(887,1114,ls),
(1322,1114,o),
(1547,975,o),
(1547,559,cs)
);
},
{
closed = 1;
nodes = (
(1821,0,ls),
(1798,0,o),
(1779,20,o),
(1779,45,cs),
(1779,61,o),
(1787,78,o),
(1805,94,cs),
(2490,699,l),
(1843,699,ls),
(1804,699,o),
(1770,697,o),
(1770,730,cs),
(1770,769,o),
(1802,766,o),
(1841,766,cs),
(2545,766,ls),
(2577,766,o),
(2595,747,o),
(2595,723,cs),
(2595,708,o),
(2587,691,o),
(2571,677,cs),
(1881,67,l),
(2535,67,ls),
(2574,67,o),
(2608,70,o),
(2608,31,cs),
(2608,-2,o),
(2571,0,o),
(2537,0,cs)
);
}
);
};
layerId = master01;
shapes = (
{
ref = D;
},
{
pos = (1670,0);
ref = z;
}
);
userData = {
com.fontlab.hintData = {
hhints = (
{
position = 0;
width = 66;
},
{
position = 0;
width = 67;
},
{
position = 699;
width = 67;
},
{
position = 1048;
width = 66;
}
);
vhints = (
{
position = 160;
width = 85;
},
{
position = 1462;
width = 85;
}
);
};
};
width = 2702;
}
);
unicode = 498;
},
{
glyphname = Dzcaron;
lastChange = "2023-04-21 12:21:45 +0000";
layers = (
{
background = {
shapes = (
{
closed = 1;
nodes = (
(1462,903,o),
(1321,1048,o),
(887,1048,cs),
(245,1048,l),
(245,66,l),
(887,66,ls),
(1321,66,o),
(1462,210,o),
(1462,559,cs)
);
},
{
closed = 1;
nodes = (
(1547,133,o),
(1322,0,o),
(887,0,cs),
(199,0,ls),
(160,0,o),
(160,0,o),
(160,35,cs),
(160,1077,ls),
(160,1116,o),
(160,1114,o),
(201,1114,cs),
(887,1114,ls),
(1322,1114,o),
(1547,975,o),
(1547,559,cs)
);
},
{
closed = 1;
nodes = (
(2189,963,l),
(2319,1181,l),
(2395,1181,l),
(2242,946,ls),
(2225,921,o),
(2205,908,o),
(2189,908,cs),
(2170,908,o),
(2152,921,o),
(2136,946,cs),
(1983,1181,l),
(2059,1181,l)
);
},
{
closed = 1;
nodes = (
(1821,0,ls),
(1798,0,o),
(1779,20,o),
(1779,45,cs),
(1779,61,o),
(1787,78,o),
(1805,94,cs),
(2490,699,l),
(1843,699,ls),
(1804,699,o),
(1770,697,o),
(1770,730,cs),
(1770,769,o),
(1802,766,o),
(1841,766,cs),
(2545,766,ls),
(2577,766,o),
(2595,747,o),
(2595,723,cs),
(2595,708,o),
(2587,691,o),
(2571,677,cs),
(1881,67,l),
(2535,67,ls),
(2574,67,o),
(2608,70,o),
(2608,31,cs),
(2608,-2,o),
(2571,0,o),
(2537,0,cs)
);
}
);
};
layerId = master01;
shapes = (
{
ref = D;
},
{
pos = (1670,0);
ref = zcaron;
}
);
userData = {
com.fontlab.hintData = {
hhints = (
{
position = 0;
width = 66;
},
{
position = 0;
width = 67;
},
{
position = 699;
width = 67;
},
{
position = 908;
width = 273;
},
{
position = 1048;
width = 66;
}
);
vhints = (
{
position = 160;
width = 85;
},
{
position = 1462;
width = 85;
},
{
position = 1983;
width = 412;
}
);
};
};
width = 2702;
}
);
unicode = 453;
},
{
glyphname = Eth;
lastChange = "2023-04-21 12:17:34 +0000";
layers = (
{
background = {
shapes = (
{
closed = 1;
nodes = (
(1442,903,o),
(1301,1048,o),
(867,1048,cs),
(225,1048,l),
(225,614,l),
(409,614,ls),
(428,614,o),
(436,593,o),
(436,576,cs),
(436,560,o),
(428,540,o),
(409,540,cs),
(225,540,l),
(225,66,l),
(867,66,ls),
(1301,66,o),
(1442,210,o),
(1442,559,cs)
);
},
{
closed = 1;
nodes = (
(1527,133,o),
(1302,0,o),
(867,0,cs),
(179,0,ls),
(140,0,o),
(140,0,o),
(140,35,cs),
(140,540,l),
(50,540,ls),
(31,540,o),
(23,560,o),
(23,576,cs),
(23,593,o),
(31,614,o),
(50,614,cs),
(140,614,l),
(140,1077,ls),
(140,1116,o),
(140,1114,o),
(181,1114,cs),
(867,1114,ls),
(1302,1114,o),
(1527,975,o),
(1527,559,cs)
);
}
);
};
layerId = master01;
shapes = (
{
closed = 1;
nodes = (
(1442,903,o),
(1301,1048,o),
(867,1048,cs),
(225,1048,l),
(225,614,l),
(409,614,ls),
(428,614,o),
(436,593,o),
(436,576,cs),
(436,560,o),
(428,540,o),
(409,540,cs),
(225,540,l),
(225,66,l),
(867,66,ls),
(1301,66,o),
(1442,210,o),
(1442,559,cs)
);
},
{
closed = 1;
nodes = (
(1527,133,o),
(1302,0,o),
(867,0,cs),
(179,0,ls),
(140,0,o),
(140,0,o),
(140,35,cs),
(140,540,l),
(50,540,ls),
(31,540,o),
(23,560,o),
(23,576,cs),
(23,593,o),
(31,614,o),
(50,614,cs),
(140,614,l),
(140,1077,ls),
(140,1116,o),
(140,1114,o),
(181,1114,cs),
(867,1114,ls),
(1302,1114,o),
(1527,975,o),
(1527,559,cs)
);
}
);
userData = {
com.fontlab.hintData = {
hhints = (
{
position = 0;
width = 66;
},
{
position = 540;
width = 74;
},
{
position = 1048;
width = 66;
}
);
vhints = (
{
position = 140;
width = 85;
},
{
position = 1442;
width = 85;
}
);
};
};
width = 1650;
}
);
unicode = 208;
},
{
glyphname = E;
lastChange = "2023-04-21 12:17:34 +0000";
layers = (
{
background = {
shapes = (
{
closed = 1;
nodes = (
(1187,-4,o),
(1160,1,o),
(1121,0,c),
(200,0,ls),
(187,0,ls),
(161,0,o),
(161,4,o),
(161,35,cs),
(161,1067,ls),
(161,1106,o),
(159,1114,o),
(198,1114,cs),
(1111,1114,ls),
(1150,1114,o),
(1185,1118,o),
(1185,1079,cs),
(1185,1046,o),
(1150,1048,o),
(1111,1048,cs),
(246,1048,l),
(246,610,l),
(1106,610,ls),
(1135,610,o),
(1158,604,o),
(1158,578,cs),
(1158,549,o),
(1139,542,o),
(1113,542,cs),
(246,542,l),
(246,66,l),
(1113,66,ls),
(1152,66,o),
(1187,68,o),
(1187,35,cs)
);
}
);
};
layerId = master01;
shapes = (
{
closed = 1;
nodes = (
(1187,-4,o),
(1160,1,o),
(1121,0,c),
(200,0,ls),
(187,0,ls),
(161,0,o),
(161,4,o),
(161,35,cs),
(161,1067,ls),
(161,1106,o),
(159,1114,o),
(198,1114,cs),
(1111,1114,ls),
(1150,1114,o),
(1185,1118,o),
(1185,1079,cs),
(1185,1046,o),
(1150,1048,o),
(1111,1048,cs),
(246,1048,l),
(246,610,l),
(1106,610,ls),
(1135,610,o),
(1158,604,o),
(1158,578,cs),
(1158,549,o),
(1139,542,o),
(1113,542,cs),
(246,542,l),
(246,66,l),
(1113,66,ls),
(1152,66,o),
(1187,68,o),
(1187,35,cs)
);
}
);
userData = {
com.fontlab.hintData = {
hhints = (
{
position = 0;
width = 66;
},
{
position = 542;
width = 68;
},
{
position = 1048;
width = 66;
}
);
vhints = (
{
position = 161;
width = 85;
}
);
};
};
width = 1302;
}
);
unicode = 69;
},
{
glyphname = Eacute;
lastChange = "2023-04-21 12:17:44 +0000";
layers = (
{
background = {
shapes = (
{
closed = 1;
nodes = (
(1187,-4,o),
(1160,1,o),
(1121,0,c),
(200,0,ls),
(187,0,ls),
(161,0,o),
(161,4,o),
(161,35,cs),
(161,1067,ls),
(161,1106,o),
(159,1114,o),
(198,1114,cs),
(1111,1114,ls),
(1150,1114,o),
(1185,1118,o),
(1185,1079,cs),
(1185,1046,o),
(1150,1048,o),
(1111,1048,cs),
(246,1048,l),
(246,610,l),
(1106,610,ls),
(1135,610,o),
(1158,604,o),
(1158,578,cs),
(1158,549,o),
(1139,542,o),
(1113,542,cs),
(246,542,l),
(246,66,l),
(1113,66,ls),
(1152,66,o),
(1187,68,o),
(1187,35,cs)
);
},
{
closed = 1;
nodes = (
(899,1577,ls),
(906,1584,o),
(915,1588,o),
(924,1588,cs),
(953,1588,o),
(988,1556,o),
(988,1527,cs),
(988,1516,o),
(983,1507,o),
(973,1499,cs),
(681,1262,ls),
(677,1259,o),
(672,1257,o),
(666,1257,cs),
(651,1257,o),
(639,1268,o),
(639,1283,cs),
(639,1290,o),
(642,1296,o),
(647,1301,cs)
);
}
);
};
layerId = master01;
shapes = (
{
alignment = -1;
ref = E;
},
{
alignment = -1;
pos = (624,300);
ref = acute;
}
);
userData = {
com.fontlab.hintData = {
hhints = (
{
position = 0;
width = 66;
},
{
position = 542;
width = 68;
},
{
position = 1048;
width = 66;
},
{
position = 1257;
width = 331;
}
);
vhints = (
{
position = 161;
width = 85;
},
{
position = 639;
width = 349;
}
);
};
};
width = 1302;
}
);
unicode = 201;
},
{
glyphname = Ecaron;
lastChange = "2023-04-21 12:17:44 +0000";
layers = (
{
background = {
shapes = (
{
closed = 1;
nodes = (
(1187,-4,o),
(1160,1,o),
(1121,0,c),
(200,0,ls),
(187,0,ls),
(161,0,o),
(161,4,o),
(161,35,cs),
(161,1067,ls),
(161,1106,o),
(159,1114,o),
(198,1114,cs),
(1111,1114,ls),
(1150,1114,o),
(1185,1118,o),
(1185,1079,cs),
(1185,1046,o),
(1150,1048,o),
(1111,1048,cs),
(246,1048,l),
(246,610,l),
(1106,610,ls),
(1135,610,o),
(1158,604,o),
(1158,578,cs),
(1158,549,o),
(1139,542,o),
(1113,542,cs),
(246,542,l),
(246,66,l),
(1113,66,ls),
(1152,66,o),
(1187,68,o),
(1187,35,cs)
);
},
{
closed = 1;
nodes = (
(674,1312,l),
(804,1530,l),
(880,1530,l),
(727,1295,ls),
(710,1270,o),
(690,1257,o),
(674,1257,cs),
(655,1257,o),
(637,1270,o),
(621,1295,cs),
(468,1530,l),
(544,1530,l)
);
}
);
};
layerId = master01;
shapes = (
{
alignment = -1;
ref = E;
},
{
alignment = -1;
pos = (395,282);
ref = caron;
}
);
userData = {
com.fontlab.hintData = {
hhints = (
{
position = 0;
width = 66;
},
{
position = 542;
width = 68;
},
{
position = 1048;
width = 66;
},
{
position = 1257;
width = 273;
}
);
vhints = (
{
position = 161;
width = 85;
},
{
position = 468;
width = 412;
}
);
};
};
width = 1302;
}
);
unicode = 282;
},
{
glyphname = Ecircumflex;
lastChange = "2023-04-21 12:17:44 +0000";
layers = (
{
background = {
shapes = (
{
closed = 1;
nodes = (
(1187,-4,o),
(1160,1,o),
(1121,0,c),
(200,0,ls),
(187,0,ls),
(161,0,o),
(161,4,o),
(161,35,cs),
(161,1067,ls),
(161,1106,o),
(159,1114,o),
(198,1114,cs),
(1111,1114,ls),
(1150,1114,o),
(1185,1118,o),
(1185,1079,cs),
(1185,1046,o),
(1150,1048,o),
(1111,1048,cs),
(246,1048,l),
(246,610,l),
(1106,610,ls),
(1135,610,o),
(1158,604,o),
(1158,578,cs),
(1158,549,o),
(1139,542,o),
(1113,542,cs),
(246,542,l),
(246,66,l),
(1113,66,ls),
(1152,66,o),
(1187,68,o),
(1187,35,cs)
);
},
{
closed = 1;
nodes = (
(544,1257,l),
(468,1257,l),
(621,1492,ls),
(637,1517,o),
(655,1530,o),
(674,1530,cs),
(690,1530,o),
(710,1517,o),
(727,1492,cs),
(880,1257,l),
(804,1257,l),
(674,1475,l)
);
}
);
};
layerId = master01;
shapes = (
{
alignment = -1;
ref = E;
},
{
alignment = -1;
pos = (433,365);
ref = circumflex;
}
);
userData = {
com.fontlab.hintData = {
hhints = (
{
position = 0;
width = 66;
},
{
position = 542;
width = 68;
},
{
position = 1048;
width = 66;
},
{
position = 1257;
width = 273;
}
);
vhints = (
{
position = 161;
width = 85;
},
{
position = 468;
width = 412;
}
);
};
};
width = 1302;
}
);
unicode = 202;
},
{
glyphname = Edblgrave;
lastChange = "2023-04-21 12:21:45 +0000";
layers = (
{
background = {
shapes = (
{
closed = 1;
nodes = (
(1187,-4,o),
(1160,1,o),
(1121,0,c),
(200,0,ls),
(187,0,ls),
(161,0,o),
(161,4,o),
(161,35,cs),
(161,1067,ls),
(161,1106,o),
(159,1114,o),
(198,1114,cs),
(1111,1114,ls),
(1150,1114,o),
(1185,1118,o),
(1185,1079,cs),
(1185,1046,o),
(1150,1048,o),
(1111,1048,cs),
(246,1048,l),
(246,610,l),
(1106,610,ls),
(1135,610,o),
(1158,604,o),
(1158,578,cs),
(1158,549,o),
(1139,542,o),
(1113,542,cs),
(246,542,l),
(246,66,l),
(1113,66,ls),
(1152,66,o),
(1187,68,o),
(1187,35,cs)
);
},
{
closed = 1;
nodes = (
(814,1301,ls),
(819,1296,o),
(822,1290,o),
(822,1283,cs),
(822,1268,o),
(810,1257,o),
(795,1257,cs),
(789,1257,o),
(784,1259,o),
(780,1262,cs),
(488,1499,ls),
(478,1507,o),
(473,1516,o),
(473,1527,cs),
(473,1551,o),
(503,1578,o),
(527,1578,cs),
(536,1578,o),
(545,1574,o),
(552,1567,cs)
);
},
{
closed = 1;
nodes = (
(586,1301,ls),
(591,1296,o),
(594,1290,o),
(594,1283,cs),
(594,1268,o),
(582,1257,o),
(567,1257,cs),
(561,1257,o),
(556,1259,o),
(552,1262,cs),
(260,1499,ls),
(250,1507,o),
(245,1516,o),
(245,1527,cs),
(245,1551,o),
(275,1578,o),
(299,1578,cs),
(308,1578,o),
(317,1574,o),
(324,1567,cs)
);
}
);
};
layerId = master01;
shapes = (
{
ref = E;
},
{
pos = (467.491,296);
ref = dblgravecomb;
}
);
userData = {
com.fontlab.hintData = {
hhints = (
{
position = 0;
width = 66;
},
{
position = 542;
width = 68;
},
{
position = 1048;
width = 66;
},
{
position = 1257;
width = 321;
}
);
vhints = (
{
position = 161;
width = 85;
},
{
position = 245;
width = 577;
}
);
};
};
width = 1302;
}
);
unicode = 516;
},
{
glyphname = Edieresis;
lastChange = "2023-04-21 12:17:44 +0000";
layers = (
{
background = {
shapes = (
{
closed = 1;
nodes = (
(1187,-4,o),
(1160,1,o),
(1121,0,c),
(200,0,ls),
(187,0,ls),
(161,0,o),
(161,4,o),
(161,35,cs),
(161,1067,ls),
(161,1106,o),
(159,1114,o),
(198,1114,cs),
(1111,1114,ls),
(1150,1114,o),
(1185,1118,o),
(1185,1079,cs),
(1185,1046,o),
(1150,1048,o),
(1111,1048,cs),
(246,1048,l),
(246,610,l),
(1106,610,ls),
(1135,610,o),
(1158,604,o),
(1158,578,cs),
(1158,549,o),
(1139,542,o),
(1113,542,cs),
(246,542,l),
(246,66,l),
(1113,66,ls),
(1152,66,o),
(1187,68,o),
(1187,35,cs)
);
},
{
closed = 1;
nodes = (
(834,1348,o),
(857,1372,o),
(892,1372,cs),
(925,1372,o),
(952,1348,o),
(952,1313,cs),
(952,1280,o),
(925,1257,o),
(892,1257,cs),
(857,1257,o),
(834,1280,o),
(834,1313,cs)
);
},
{
closed = 1;
nodes = (
(395,1348,o),
(418,1372,o),
(453,1372,cs),
(486,1372,o),
(513,1348,o),
(513,1313,cs),
(513,1280,o),
(486,1257,o),
(453,1257,cs),
(418,1257,o),
(395,1280,o),
(395,1313,cs)
);
}
);
};
layerId = master01;
shapes = (
{
alignment = -1;
ref = E;
},
{
alignment = -1;
pos = (308,317);
ref = dieresis;
}
);
userData = {
com.fontlab.hintData = {
hhints = (
{
position = 0;
width = 66;
},
{
position = 542;
width = 68;
},
{
position = 1048;
width = 66;
},
{
position = 1257;
width = 115;
}
);
vhints = (
{
position = 161;
width = 85;
},
{
position = 395;
width = 118;
},
{
position = 834;
width = 118;
}
);
};
};
width = 1302;
}
);
unicode = 203;
},
{
glyphname = Edotaccent;
lastChange = "2023-04-21 12:17:44 +0000";
layers = (
{
background = {
shapes = (
{
closed = 1;
nodes = (
(1187,-4,o),
(1160,1,o),
(1121,0,c),
(200,0,ls),
(187,0,ls),
(161,0,o),
(161,4,o),
(161,35,cs),
(161,1067,ls),
(161,1106,o),
(159,1114,o),
(198,1114,cs),
(1111,1114,ls),
(1150,1114,o),
(1185,1118,o),
(1185,1079,cs),
(1185,1046,o),
(1150,1048,o),
(1111,1048,cs),
(246,1048,l),
(246,610,l),
(1106,610,ls),
(1135,610,o),
(1158,604,o),
(1158,578,cs),
(1158,549,o),
(1139,542,o),
(1113,542,cs),
(246,542,l),
(246,66,l),
(1113,66,ls),
(1152,66,o),
(1187,68,o),
(1187,35,cs)
);
},
{
closed = 1;
nodes = (
(615,1348,o),
(638,1372,o),
(673,1372,cs),
(706,1372,o),
(733,1348,o),
(733,1313,cs),
(733,1280,o),
(706,1257,o),
(673,1257,cs),
(638,1257,o),
(615,1280,o),
(615,1313,cs)
);
}
);
};
layerId = master01;
shapes = (
{
ref = E;
},
{
pos = (510.991,258);
ref = dotaccentcomb;
}
);
userData = {
com.fontlab.hintData = {
hhints = (
{
position = 0;
width = 66;
},
{
position = 542;
width = 68;
},
{
position = 1048;
width = 66;
},
{
position = 1257;
width = 115;
}
);
vhints = (
{
position = 161;
width = 85;
},
{
position = 615;
width = 118;
}
);
};
};
width = 1302;
}
);
unicode = 278;
},
{
glyphname = Egrave;
lastChange = "2023-04-21 12:17:44 +0000";
layers = (
{
background = {
shapes = (
{
closed = 1;
nodes = (
(1187,-4,o),
(1160,1,o),
(1121,0,c),
(200,0,ls),
(187,0,ls),
(161,0,o),
(161,4,o),
(161,35,cs),
(161,1067,ls),
(161,1106,o),
(159,1114,o),
(198,1114,cs),
(1111,1114,ls),
(1150,1114,o),
(1185,1118,o),
(1185,1079,cs),
(1185,1046,o),
(1150,1048,o),
(1111,1048,cs),
(246,1048,l),
(246,610,l),
(1106,610,ls),
(1135,610,o),
(1158,604,o),
(1158,578,cs),
(1158,549,o),
(1139,542,o),
(1113,542,cs),
(246,542,l),
(246,66,l),
(1113,66,ls),
(1152,66,o),
(1187,68,o),
(1187,35,cs)
);
},
{
closed = 1;
nodes = (
(700,1301,ls),
(705,1296,o),
(708,1290,o),
(708,1283,cs),
(708,1268,o),
(696,1257,o),
(681,1257,cs),
(675,1257,o),
(670,1259,o),
(666,1262,cs),
(374,1499,ls),
(364,1507,o),
(359,1516,o),
(359,1527,cs),
(359,1556,o),
(394,1588,o),
(423,1588,cs),
(432,1588,o),
(441,1584,o),
(448,1577,cs)
);
}
);
};
layerId = master01;
shapes = (
{
alignment = -1;
ref = E;
},
{
alignment = -1;
pos = (347,288);
ref = grave;
}
);
userData = {
com.fontlab.hintData = {
hhints = (
{
position = 0;
width = 66;
},
{
position = 542;
width = 68;
},
{
position = 1048;
width = 66;
},
{
position = 1257;
width = 331;
}
);
vhints = (
{
position = 161;
width = 85;
},
{
position = 359;
width = 349;
}
);
};
};
width = 1302;
}
);
unicode = 200;
},
{
glyphname = Einvertedbreve;
lastChange = "2023-04-21 12:21:45 +0000";
layers = (
{
background = {
shapes = (
{
closed = 1;
nodes = (
(1187,-4,o),
(1160,1,o),
(1121,0,c),
(200,0,ls),
(187,0,ls),
(161,0,o),
(161,4,o),
(161,35,cs),
(161,1067,ls),
(161,1106,o),
(159,1114,o),
(198,1114,cs),
(1111,1114,ls),
(1150,1114,o),
(1185,1118,o),
(1185,1079,cs),
(1185,1046,o),
(1150,1048,o),
(1111,1048,cs),
(246,1048,l),
(246,610,l),
(1106,610,ls),
(1135,610,o),
(1158,604,o),
(1158,578,cs),
(1158,549,o),
(1139,542,o),
(1113,542,cs),
(246,542,l),
(246,66,l),
(1113,66,ls),
(1152,66,o),
(1187,68,o),
(1187,35,cs)
);
},
{
closed = 1;
nodes = (
(812,1257,l),
(807,1312,o),
(779,1381,o),
(674,1381,cs),
(566,1381,o),
(538,1311,o),
(536,1257,c),
(489,1257,l),
(489,1330,o),
(508,1443,o),
(674,1443,cs),
(835,1443,o),
(859,1337,o),
(859,1257,c)
);
}
);
};
layerId = master01;
shapes = (
{
ref = E;
},
{
pos = (314.991,268);
ref = breveinvertedcomb;
}
);
userData = {
com.fontlab.hintData = {
hhints = (
{
position = 0;
width = 66;
},
{
position = 542;
width = 68;
},
{
position = 1048;
width = 66;
},
{
position = 1381;
width = 62;
}
);
vhints = (
{
position = 161;
width = 85;
},
{
position = 489;
width = 47;
},
{
position = 812;
width = 47;
}
);
};
};
width = 1302;
}
);
unicode = 518;
},
{
glyphname = Emacron;
lastChange = "2023-04-21 12:17:44 +0000";
layers = (
{
background = {
shapes = (
{
closed = 1;
nodes = (
(1187,-4,o),
(1160,1,o),
(1121,0,c),
(200,0,ls),
(187,0,ls),
(161,0,o),
(161,4,o),
(161,35,cs),
(161,1067,ls),
(161,1106,o),
(159,1114,o),
(198,1114,cs),
(1111,1114,ls),
(1150,1114,o),
(1185,1118,o),
(1185,1079,cs),
(1185,1046,o),
(1150,1048,o),
(1111,1048,cs),
(246,1048,l),
(246,610,l),
(1106,610,ls),
(1135,610,o),
(1158,604,o),
(1158,578,cs),
(1158,549,o),
(1139,542,o),
(1113,542,cs),
(246,542,l),
(246,66,l),
(1113,66,ls),
(1152,66,o),
(1187,68,o),
(1187,35,cs)
);
},
{
closed = 1;
nodes = (
(850,1319,ls),
(869,1319,o),
(877,1302,o),
(877,1290,cs),
(877,1279,o),
(869,1264,o),
(850,1264,cs),
(498,1264,ls),
(479,1264,o),
(471,1279,o),
(471,1290,cs),
(471,1302,o),
(479,1319,o),
(498,1319,cs)
);
}
);
};
layerId = master01;
shapes = (
{
alignment = -1;
ref = E;
},
{
alignment = -1;
pos = (336,338);
ref = macron;
}
);
userData = {
com.fontlab.hintData = {
hhints = (
{
position = 0;
width = 66;
},
{
position = 542;
width = 68;
},
{
position = 1048;
width = 66;
},
{
position = 1264;
width = 55;
}
);
vhints = (
{
position = 161;
width = 85;
},
{
position = 471;
width = 406;
}
);
};
};
width = 1302;
}
);
unicode = 274;
},
{
glyphname = Eogonek;
lastChange = "2023-04-21 12:17:44 +0000";
layers = (
{
background = {
shapes = (
{
closed = 1;
nodes = (
(1187,-4,o),
(1160,1,o),
(1121,0,c),
(200,0,ls),
(187,0,ls),
(161,0,o),
(161,4,o),
(161,35,cs),
(161,1067,ls),
(161,1106,o),
(159,1114,o),
(198,1114,cs),
(1111,1114,ls),
(1150,1114,o),
(1185,1118,o),
(1185,1079,cs),
(1185,1046,o),
(1150,1048,o),
(1111,1048,cs),
(246,1048,l),
(246,610,l),
(1106,610,ls),
(1135,610,o),
(1158,604,o),
(1158,578,cs),
(1158,549,o),
(1139,542,o),
(1113,542,cs),
(246,542,l),
(246,66,l),
(1113,66,ls),
(1152,66,o),
(1187,68,o),
(1187,35,cs)
);
},
{
closed = 1;
nodes = (
(1172,6,l),
(1125,-49,o),
(1102,-108,o),
(1102,-151,cs),
(1102,-206,o),
(1132,-223,o),
(1153,-223,cs),
(1180,-223,o),
(1207,-204,o),
(1224,-193,c),
(1234,-202,l),
(1211,-249,o),
(1159,-279,o),
(1108,-279,cs),
(1063,-279,o),
(1013,-251,o),
(1013,-182,cs),
(1013,-118,o),
(1067,-55,o),
(1142,6,c)
);
}
);
};
layerId = master01;
shapes = (
{
alignment = -1;
ref = E;
},
{
alignment = -1;
pos = (967,0);
ref = ogonek;
}
);
userData = {
com.fontlab.hintData = {
hhints = (
{
position = -279;
width = 56;
},
{
position = 0;
width = 66;
},
{
position = 542;
width = 68;
},
{
position = 1048;
width = 66;
}
);
vhints = (
{
position = 161;
width = 85;
},
{
position = 1013;
width = 89;
}
);
};
};
width = 1302;
}
);
unicode = 280;
},
{
glyphname = F;
lastChange = "2023-04-21 12:17:34 +0000";
layers = (
{
background = {
shapes = (
{
closed = 1;
nodes = (
(246,70,ls),
(246,31,o),
(237,0,o),
(205,0,cs),
(166,0,o),
(161,32,o),
(161,68,cs),
(161,1077,ls),
(161,1116,o),
(159,1114,o),
(198,1114,cs),
(1176,1114,ls),
(1211,1114,o),
(1239,1114,o),
(1239,1079,cs),
(1239,1048,o),
(1215,1048,o),
(1176,1048,cs),
(246,1048,l),
(246,594,l),
(1033,594,ls),
(1072,594,o),
(1099,594,o),
(1099,563,cs),
(1099,528,o),
(1068,528,o),
(1033,528,cs),
(246,528,l)
);
}
);
};
layerId = master01;
shapes = (
{
closed = 1;
nodes = (
(246,70,ls),
(246,31,o),
(237,0,o),
(205,0,cs),
(166,0,o),
(161,32,o),
(161,68,cs),
(161,1077,ls),
(161,1116,o),
(159,1114,o),
(198,1114,cs),
(1176,1114,ls),
(1211,1114,o),
(1239,1114,o),
(1239,1079,cs),
(1239,1048,o),
(1215,1048,o),
(1176,1048,cs),
(246,1048,l),
(246,594,l),
(1033,594,ls),
(1072,594,o),
(1099,594,o),
(1099,563,cs),
(1099,528,o),
(1068,528,o),
(1033,528,cs),
(246,528,l)
);
}
);
userData = {
com.fontlab.hintData = {
hhints = (
{
position = 0;
width = 21;
},
{
position = 528;
width = 66;
},
{
position = 1048;
width = 66;
}
);
vhints = (
{
position = 161;
width = 85;
}
);
};
};
width = 1239;
}
);
unicode = 70;
},
{
glyphname = G;
lastChange = "2023-04-21 12:17:34 +0000";
layers = (
{
background = {
shapes = (
{
closed = 1;
nodes = (
(1070,45,o),
(1256,74,o),
(1437,118,c),
(1437,536,l),
(927,536,ls),
(895,536,o),
(856,536,o),
(856,571,cs),
(856,606,o),
(893,606,o),
(927,606,cs),
(1437,606,ls),
(1493,606,o),
(1509,587,o),
(1509,536,cs),
(1509,118,ls),
(1509,77,o),
(1472,56,o),
(1437,49,cs),
(1240,10,o),
(1057,-21,o),
(873,-21,cs),
(377,-21,o),
(123,142,o),
(123,557,cs),
(123,972,o),
(377,1135,o),
(873,1135,cs),
(1045,1135,o),
(1206,1105,o),
(1373,1036,cs),
(1394,1027,o),
(1403,1011,o),
(1403,998,cs),
(1403,982,o),
(1390,968,o),
(1371,968,cs),
(1365,968,o),
(1359,970,o),
(1352,973,cs),
(1199,1037,o),
(1028,1069,o),
(873,1069,cs),
(398,1069,o),
(208,916,o),
(208,557,cs),
(208,198,o),
(398,45,o),
(873,45,cs)
);
}
);
};
layerId = master01;
shapes = (
{
closed = 1;
nodes = (
(1070,45,o),
(1256,74,o),
(1437,118,c),
(1437,536,l),
(927,536,ls),
(895,536,o),
(856,536,o),
(856,571,cs),
(856,606,o),
(893,606,o),
(927,606,cs),
(1437,606,ls),
(1493,606,o),
(1509,587,o),
(1509,536,cs),
(1509,118,ls),
(1509,77,o),
(1472,56,o),
(1437,49,cs),
(1240,10,o),
(1057,-21,o),
(873,-21,cs),
(377,-21,o),
(123,142,o),
(123,557,cs),
(123,972,o),
(377,1135,o),
(873,1135,cs),
(1045,1135,o),
(1206,1105,o),
(1373,1036,cs),
(1394,1027,o),
(1403,1011,o),
(1403,998,cs),
(1403,982,o),
(1390,968,o),
(1371,968,cs),
(1365,968,o),
(1359,970,o),
(1352,973,cs),
(1199,1037,o),
(1028,1069,o),
(873,1069,cs),
(398,1069,o),
(208,916,o),
(208,557,cs),
(208,198,o),
(398,45,o),
(873,45,cs)
);
}
);
userData = {
com.fontlab.hintData = {
hhints = (
{
position = -21;
width = 66;
},
{
position = 536;
width = 70;
},
{
position = 1069;
width = 66;
}
);
vhints = (
{
position = 123;
width = 85;
},
{
position = 1437;
width = 72;
}
);
};
};
width = 1623;
}
);
unicode = 71;
},
{
glyphname = Gacute;
lastChange = "2023-04-21 12:21:45 +0000";
layers = (
{
background = {
shapes = (
{
closed = 1;
nodes = (
(1070,45,o),
(1256,74,o),
(1437,118,c),
(1437,536,l),
(927,536,ls),
(895,536,o),
(856,536,o),
(856,571,cs),
(856,606,o),
(893,606,o),
(927,606,cs),
(1437,606,ls),
(1493,606,o),
(1509,587,o),
(1509,536,cs),
(1509,118,ls),
(1509,77,o),
(1472,56,o),
(1437,49,cs),
(1240,10,o),
(1057,-21,o),
(873,-21,cs),
(377,-21,o),
(123,142,o),
(123,557,cs),
(123,972,o),
(377,1135,o),
(873,1135,cs),
(1045,1135,o),
(1206,1105,o),
(1373,1036,cs),
(1394,1027,o),
(1403,1011,o),
(1403,998,cs),
(1403,982,o),
(1390,968,o),
(1371,968,cs),
(1365,968,o),
(1359,970,o),
(1352,973,cs),
(1199,1037,o),
(1028,1069,o),
(873,1069,cs),
(398,1069,o),
(208,916,o),
(208,557,cs),
(208,198,o),
(398,45,o),
(873,45,cs)
);
},
{
closed = 1;
nodes = (
(1042,1577,ls),
(1049,1584,o),
(1058,1588,o),
(1067,1588,cs),
(1096,1588,o),
(1131,1556,o),
(1131,1527,cs),
(1131,1516,o),
(1126,1507,o),
(1116,1499,cs),
(824,1262,ls),
(820,1259,o),
(815,1257,o),
(809,1257,cs),
(794,1257,o),
(782,1268,o),
(782,1283,cs),
(782,1290,o),
(785,1296,o),
(790,1301,cs)
);
}
);
};
layerId = master01;
shapes = (
{
alignment = -1;
ref = G;
},
{
alignment = -1;
pos = (767,300);
ref = acute;
}
);
userData = {
com.fontlab.hintData = {
hhints = (
{
position = -21;
width = 66;
},
{
position = 536;
width = 70;
},
{
position = 1069;
width = 66;
},
{
position = 1257;
width = 331;
}
);
vhints = (
{
position = 123;
width = 85;
},
{
position = 782;
width = 349;
},
{
position = 1437;
width = 72;
}
);
};
};
width = 1623;
}
);
unicode = 500;
},
{
glyphname = Gbreve;
lastChange = "2023-04-21 12:17:44 +0000";
layers = (
{
background = {
shapes = (
{
closed = 1;
nodes = (
(1070,45,o),
(1256,74,o),
(1437,118,c),
(1437,536,l),
(927,536,ls),
(895,536,o),
(856,536,o),
(856,571,cs),
(856,606,o),
(893,606,o),
(927,606,cs),
(1437,606,ls),
(1493,606,o),
(1509,587,o),
(1509,536,cs),
(1509,118,ls),
(1509,77,o),
(1472,56,o),
(1437,49,cs),
(1240,10,o),
(1057,-21,o),
(873,-21,cs),
(377,-21,o),
(123,142,o),
(123,557,cs),
(123,972,o),
(377,1135,o),
(873,1135,cs),
(1045,1135,o),
(1206,1105,o),
(1373,1036,cs),
(1394,1027,o),
(1403,1011,o),
(1403,998,cs),
(1403,982,o),
(1390,968,o),
(1371,968,cs),
(1365,968,o),
(1359,970,o),
(1352,973,cs),
(1199,1037,o),
(1028,1069,o),
(873,1069,cs),
(398,1069,o),
(208,916,o),
(208,557,cs),
(208,198,o),
(398,45,o),
(873,45,cs)
);
},
{
closed = 1;
nodes = (
(1001,1443,l),
(1001,1363,o),
(977,1257,o),
(816,1257,cs),
(650,1257,o),
(631,1370,o),
(631,1443,c),
(668,1443,l),
(670,1385,o),
(700,1309,o),
(816,1309,cs),
(929,1309,o),
(959,1384,o),
(964,1443,c)
);
}
);
};
layerId = master01;
shapes = (
{
alignment = -1;
ref = G;
},
{
alignment = -1;
pos = (457,268);
ref = breve;
}
);
userData = {
com.fontlab.hintData = {
hhints = (
{
position = -21;
width = 66;
},
{
position = 536;
width = 70;
},
{
position = 1069;
width = 66;
},
{
position = 1257;
width = 52;
}
);
vhints = (
{
position = 123;
width = 85;
},
{
position = 631;
width = 37;
},
{
position = 964;
width = 37;
},
{
position = 1437;
width = 72;
}
);
};
};
width = 1623;
}
);
unicode = 286;
},
{
glyphname = Gcircumflex;
lastChange = "2023-04-21 12:17:44 +0000";
layers = (
{
background = {
shapes = (
{
closed = 1;
nodes = (
(1070,45,o),
(1256,74,o),
(1437,118,c),
(1437,536,l),
(927,536,ls),
(895,536,o),
(856,536,o),
(856,571,cs),
(856,606,o),
(893,606,o),
(927,606,cs),
(1437,606,ls),
(1493,606,o),
(1509,587,o),
(1509,536,cs),
(1509,118,ls),
(1509,77,o),
(1472,56,o),
(1437,49,cs),
(1240,10,o),
(1057,-21,o),
(873,-21,cs),
(377,-21,o),
(123,142,o),
(123,557,cs),
(123,972,o),
(377,1135,o),
(873,1135,cs),
(1045,1135,o),
(1206,1105,o),
(1373,1036,cs),
(1394,1027,o),
(1403,1011,o),
(1403,998,cs),
(1403,982,o),
(1390,968,o),
(1371,968,cs),
(1365,968,o),
(1359,970,o),
(1352,973,cs),
(1199,1037,o),
(1028,1069,o),
(873,1069,cs),
(398,1069,o),
(208,916,o),
(208,557,cs),
(208,198,o),
(398,45,o),
(873,45,cs)
);
},
{
closed = 1;
nodes = (
(686,1257,l),
(610,1257,l),
(763,1492,ls),
(779,1517,o),
(797,1530,o),
(816,1530,cs),
(832,1530,o),
(852,1517,o),
(869,1492,cs),
(1022,1257,l),
(946,1257,l),
(816,1475,l)
);
}
);
};
layerId = master01;
shapes = (
{
alignment = -1;
ref = G;
},
{
alignment = -1;
pos = (575,365);
ref = circumflex;
}
);
userData = {
com.fontlab.hintData = {
hhints = (
{
position = -21;
width = 66;
},
{
position = 536;
width = 70;
},
{
position = 1069;
width = 66;
},
{
position = 1257;
width = 273;
}
);
vhints = (
{
position = 123;
width = 85;
},
{
position = 610;
width = 412;
},
{
position = 1437;
width = 72;
}
);
};
};
width = 1623;
}
);
unicode = 284;
},
{
glyphname = Gcommaaccent;
lastChange = "2023-04-21 12:17:44 +0000";
layers = (
{
background = {
shapes = (
{
closed = 1;
nodes = (
(1070,45,o),
(1256,74,o),
(1437,118,c),
(1437,536,l),
(927,536,ls),
(895,536,o),
(856,536,o),
(856,571,cs),
(856,606,o),
(893,606,o),
(927,606,cs),
(1437,606,ls),
(1493,606,o),
(1509,587,o),
(1509,536,cs),
(1509,118,ls),
(1509,77,o),
(1472,56,o),
(1437,49,cs),
(1240,10,o),
(1057,-21,o),
(873,-21,cs),
(377,-21,o),
(123,142,o),
(123,557,cs),
(123,972,o),
(377,1135,o),
(873,1135,cs),
(1045,1135,o),
(1206,1105,o),
(1373,1036,cs),
(1394,1027,o),
(1403,1011,o),
(1403,998,cs),
(1403,982,o),
(1390,968,o),
(1371,968,cs),
(1365,968,o),
(1359,970,o),
(1352,973,cs),
(1199,1037,o),
(1028,1069,o),
(873,1069,cs),
(398,1069,o),
(208,916,o),
(208,557,cs),
(208,198,o),
(398,45,o),
(873,45,cs)
);
},
{
closed = 1;
nodes = (
(740,-336,l),
(789,-336,o),
(803,-308,o),
(803,-269,c),
(781,-262,o),
(754,-242,o),
(754,-202,cs),
(754,-163,o),
(786,-143,o),
(824,-143,cs),
(855,-143,o),
(892,-167,o),
(892,-217,cs),
(892,-285,o),
(842,-372,o),
(740,-372,c)
);
}
);
};
layerId = master01;
shapes = (
{
ref = G;
},
{
pos = (616,-48);
ref = commaaccentcomb;
}
);
userData = {
com.fontlab.hintData = {
hhints = (
{
position = -372;
width = 36;
},
{
position = -21;
width = 66;
},
{
position = 536;
width = 70;
},
{
position = 1069;
width = 66;
}
);
vhints = (
{
position = 123;
width = 85;
},
{
position = 803;
width = 89;
},
{
position = 1437;
width = 72;
}
);
};
};
width = 1623;
}
);
unicode = 290;
},
{
glyphname = Gdotaccent;
lastChange = "2023-04-21 12:17:44 +0000";
layers = (
{
background = {
shapes = (
{
closed = 1;
nodes = (
(1070,45,o),
(1256,74,o),
(1437,118,c),
(1437,536,l),
(927,536,ls),
(895,536,o),
(856,536,o),
(856,571,cs),
(856,606,o),
(893,606,o),
(927,606,cs),
(1437,606,ls),
(1493,606,o),
(1509,587,o),
(1509,536,cs),
(1509,118,ls),
(1509,77,o),
(1472,56,o),
(1437,49,cs),
(1240,10,o),
(1057,-21,o),
(873,-21,cs),
(377,-21,o),
(123,142,o),
(123,557,cs),
(123,972,o),
(377,1135,o),
(873,1135,cs),
(1045,1135,o),
(1206,1105,o),
(1373,1036,cs),
(1394,1027,o),
(1403,1011,o),
(1403,998,cs),
(1403,982,o),
(1390,968,o),
(1371,968,cs),
(1365,968,o),
(1359,970,o),
(1352,973,cs),
(1199,1037,o),
(1028,1069,o),
(873,1069,cs),
(398,1069,o),
(208,916,o),
(208,557,cs),
(208,198,o),
(398,45,o),
(873,45,cs)
);
},
{
closed = 1;
nodes = (
(757,1348,o),
(780,1372,o),
(815,1372,cs),
(848,1372,o),
(875,1348,o),
(875,1313,cs),
(875,1280,o),
(848,1257,o),
(815,1257,cs),
(780,1257,o),
(757,1280,o),
(757,1313,cs)
);
}
);
};
layerId = master01;
shapes = (
{
ref = G;
},
{
pos = (653,258);
ref = dotaccentcomb;
}
);
userData = {
com.fontlab.hintData = {
hhints = (
{
position = -21;
width = 66;
},
{
position = 536;
width = 70;
},
{
position = 1069;
width = 66;
},
{
position = 1257;
width = 115;
}
);
vhints = (
{
position = 123;
width = 85;
},
{
position = 757;
width = 118;
},
{
position = 1437;
width = 72;
}
);
};
};
width = 1623;
}
);
unicode = 288;
},
{
glyphname = H;
lastChange = "2023-04-21 12:17:34 +0000";
layers = (
{
background = {
shapes = (
{
closed = 1;
nodes = (
(159,1044,ls),
(159,1079,o),
(166,1114,o),
(207,1114,cs),
(236,1114,o),
(244,1077,o),
(244,1044,cs),
(244,606,l),
(1129,606,l),
(1129,1044,ls),
(1129,1079,o),
(1132,1114,o),
(1171,1114,cs),
(1211,1114,o),
(1214,1079,o),
(1214,1044,cs),
(1214,70,ls),
(1214,35,o),
(1211,0,o),
(1172,0,cs),
(1132,0,o),
(1129,35,o),
(1129,70,cs),
(1129,544,l),
(244,544,l),
(244,70,ls),
(244,37,o),
(234,0,o),
(205,0,cs),
(164,0,o),
(159,35,o),
(159,70,cs)
);
}
);
};
layerId = master01;
shapes = (
{
closed = 1;
nodes = (
(159,1044,ls),
(159,1079,o),
(166,1114,o),
(207,1114,cs),
(236,1114,o),
(244,1077,o),
(244,1044,cs),
(244,606,l),
(1129,606,l),
(1129,1044,ls),
(1129,1079,o),
(1132,1114,o),
(1171,1114,cs),
(1211,1114,o),
(1214,1079,o),
(1214,1044,cs),
(1214,70,ls),
(1214,35,o),
(1211,0,o),
(1172,0,cs),
(1132,0,o),
(1129,35,o),
(1129,70,cs),
(1129,544,l),
(244,544,l),
(244,70,ls),
(244,37,o),
(234,0,o),
(205,0,cs),
(164,0,o),
(159,35,o),
(159,70,cs)
);
}
);
userData = {
com.fontlab.hintData = {
hhints = (
{
position = 0;
width = 21;
},
{
position = 544;
width = 62;
},
{
position = 1094;
width = 20;
}
);
vhints = (
{
position = 159;
width = 85;
},
{
position = 1129;
width = 85;
}
);
};
};
width = 1373;
}
);
unicode = 72;
},
{
glyphname = Hbar;
lastChange = "2023-04-21 12:17:34 +0000";
layers = (
{
background = {
shapes = (
{
closed = 1;
nodes = (
(244,606,l),
(1129,606,l),
(1129,889,l),
(244,889,l)
);
},
{
closed = 1;
nodes = (
(92,889,ls),
(74,889,o),
(64,903,o),
(64,917,cs),
(64,931,o),
(74,946,o),
(92,946,cs),
(159,946,l),
(159,1044,ls),
(159,1079,o),
(166,1114,o),
(207,1114,cs),
(236,1114,o),
(244,1077,o),
(244,1044,cs),
(244,946,l),
(1129,946,l),
(1129,1044,ls),
(1129,1079,o),
(1132,1114,o),
(1171,1114,cs),
(1211,1114,o),
(1214,1079,o),
(1214,1044,cs),
(1214,946,l),
(1285,946,ls),
(1303,946,o),
(1312,931,o),
(1312,917,cs),
(1312,903,o),
(1303,889,o),
(1285,889,cs),
(1214,889,l),
(1214,70,ls),
(1214,35,o),
(1211,0,o),
(1172,0,cs),
(1132,0,o),
(1129,35,o),
(1129,70,cs),
(1129,544,l),
(244,544,l),
(244,70,ls),
(244,37,o),
(234,0,o),
(205,0,cs),
(164,0,o),
(159,35,o),
(159,70,cs),
(159,889,l)
);
}
);
};
layerId = master01;
shapes = (
{
closed = 1;
nodes = (
(244,606,l),
(1129,606,l),
(1129,889,l),
(244,889,l)
);
},
{
closed = 1;
nodes = (
(92,889,ls),
(74,889,o),
(64,903,o),
(64,917,cs),
(64,931,o),
(74,946,o),
(92,946,cs),
(159,946,l),
(159,1044,ls),
(159,1079,o),
(166,1114,o),
(207,1114,cs),
(236,1114,o),
(244,1077,o),
(244,1044,cs),
(244,946,l),
(1129,946,l),
(1129,1044,ls),
(1129,1079,o),
(1132,1114,o),
(1171,1114,cs),
(1211,1114,o),
(1214,1079,o),
(1214,1044,cs),
(1214,946,l),
(1285,946,ls),
(1303,946,o),
(1312,931,o),
(1312,917,cs),
(1312,903,o),
(1303,889,o),
(1285,889,cs),
(1214,889,l),
(1214,70,ls),
(1214,35,o),
(1211,0,o),
(1172,0,cs),
(1132,0,o),
(1129,35,o),
(1129,70,cs),
(1129,544,l),
(244,544,l),
(244,70,ls),
(244,37,o),
(234,0,o),
(205,0,cs),
(164,0,o),
(159,35,o),
(159,70,cs),
(159,889,l)
);
}
);
userData = {
com.fontlab.hintData = {
hhints = (
{
position = 0;
width = 21;
},
{
position = 544;
width = 62;
},
{
position = 889;
width = 57;
},
{
position = 1094;
width = 20;
}
);
vhints = (
{
position = 159;
width = 85;
},
{
position = 1129;
width = 85;
}
);
};
};
width = 1373;
}
);
unicode = 294;
},
{
glyphname = Hcircumflex;
lastChange = "2023-04-21 12:17:44 +0000";
layers = (
{
background = {
shapes = (
{
closed = 1;
nodes = (
(159,1044,ls),
(159,1079,o),
(166,1114,o),
(207,1114,cs),
(236,1114,o),
(244,1077,o),
(244,1044,cs),
(244,606,l),
(1129,606,l),
(1129,1044,ls),
(1129,1079,o),
(1132,1114,o),
(1171,1114,cs),
(1211,1114,o),
(1214,1079,o),
(1214,1044,cs),
(1214,70,ls),
(1214,35,o),
(1211,0,o),
(1172,0,cs),
(1132,0,o),
(1129,35,o),
(1129,70,cs),
(1129,544,l),
(244,544,l),
(244,70,ls),
(244,37,o),
(234,0,o),
(205,0,cs),
(164,0,o),
(159,35,o),
(159,70,cs)
);
},
{
closed = 1;
nodes = (
(557,1257,l),
(481,1257,l),
(634,1492,ls),
(650,1517,o),
(668,1530,o),
(687,1530,cs),
(703,1530,o),
(723,1517,o),
(740,1492,cs),
(893,1257,l),
(817,1257,l),
(687,1475,l)
);
}
);
};
layerId = master01;
shapes = (
{
alignment = -1;
ref = H;
},
{
alignment = -1;
pos = (446,365);
ref = circumflex;
}
);
userData = {
com.fontlab.hintData = {
hhints = (
{
position = 0;
width = 21;
},
{
position = 544;
width = 62;
},
{
position = 1094;
width = 20;
},
{
position = 1257;
width = 273;
}
);
vhints = (
{
position = 159;
width = 85;
},
{
position = 480;
width = 412;
},
{
position = 1129;
width = 85;
}
);
};
};
width = 1373;
}
);
unicode = 292;
},
{
glyphname = I;
lastChange = "2023-04-21 12:17:34 +0000";
layers = (
{
background = {
shapes = (
{
closed = 1;
nodes = (
(473,1048,l),
(116,1048,ls),
(81,1048,o),
(43,1046,o),
(43,1079,cs),
(43,1118,o),
(84,1114,o),
(116,1114,cs),
(915,1114,ls),
(954,1114,o),
(987,1117,o),
(987,1081,cs),
(987,1045,o),
(954,1048,o),
(915,1048,cs),
(558,1048,l),
(558,66,l),
(915,66,ls),
(954,66,o),
(987,69,o),
(987,33,cs),
(987,-3,o),
(954,0,o),
(915,0,cs),
(116,0,ls),
(84,0,o),
(43,-4,o),
(43,35,cs),
(43,68,o),
(81,66,o),
(116,66,cs),
(473,66,l)
);
}
);
};
layerId = master01;
shapes = (
{
closed = 1;
nodes = (
(473,1048,l),
(116,1048,ls),
(81,1048,o),
(43,1046,o),
(43,1079,cs),
(43,1118,o),
(84,1114,o),
(116,1114,cs),
(915,1114,ls),
(954,1114,o),
(987,1117,o),
(987,1081,cs),
(987,1045,o),
(954,1048,o),
(915,1048,cs),
(558,1048,l),
(558,66,l),
(915,66,ls),
(954,66,o),
(987,69,o),
(987,33,cs),
(987,-3,o),
(954,0,o),
(915,0,cs),
(116,0,ls),
(84,0,o),
(43,-4,o),
(43,35,cs),
(43,68,o),
(81,66,o),
(116,66,cs),
(473,66,l)
);
}
);
userData = {
com.fontlab.hintData = {
hhints = (
{
position = 0;
width = 66;
},
{
position = 1048;
width = 66;
}
);
vhints = (
{
position = 473;
width = 85;
}
);
};
};
width = 1031;
}
);
unicode = 73;
},
{
glyphname = IJ;
lastChange = "2023-04-21 12:17:34 +0000";
layers = (
{
background = {
shapes = (
{
closed = 1;
nodes = (
(1929,594,ls),
(1929,178,o),
(1831,-20,o),
(1498,-20,cs),
(1271,-20,o),
(1089,25,o),
(1038,214,cs),
(1035,222,o),
(1034,230,o),
(1034,238,cs),
(1034,265,o),
(1049,277,o),
(1068,277,cs),
(1085,277,o),
(1104,264,o),
(1111,240,c),
(1153,57,o),
(1341,49,o),
(1498,49,cs),
(1781,49,o),
(1844,240,o),
(1844,594,cs),
(1844,1044,ls),
(1844,1083,o),
(1850,1114,o),
(1889,1114,cs),
(1924,1114,o),
(1929,1076,o),
(1929,1044,cs)
);
},
{
closed = 1;
nodes = (
(473,1048,l),
(116,1048,ls),
(81,1048,o),
(43,1046,o),
(43,1079,cs),
(43,1118,o),
(84,1114,o),
(116,1114,cs),
(915,1114,ls),
(954,1114,o),
(987,1117,o),
(987,1081,cs),
(987,1045,o),
(954,1048,o),
(915,1048,cs),
(558,1048,l),
(558,66,l),
(915,66,ls),
(954,66,o),
(987,69,o),
(987,33,cs),
(987,-3,o),
(954,0,o),
(915,0,cs),
(116,0,ls),
(84,0,o),
(43,-4,o),
(43,35,cs),
(43,68,o),
(81,66,o),
(116,66,cs),
(473,66,l)
);
}
);
};
layerId = master01;
shapes = (
{
closed = 1;
nodes = (
(1929,594,ls),
(1929,178,o),
(1831,-20,o),
(1498,-20,cs),
(1271,-20,o),
(1089,25,o),
(1038,214,cs),
(1035,222,o),
(1034,230,o),
(1034,238,cs),
(1034,265,o),
(1049,277,o),
(1068,277,cs),
(1085,277,o),
(1104,264,o),
(1111,240,c),
(1153,57,o),
(1341,49,o),
(1498,49,cs),
(1781,49,o),
(1844,240,o),
(1844,594,cs),
(1844,1044,ls),
(1844,1083,o),
(1850,1114,o),
(1889,1114,cs),
(1924,1114,o),
(1929,1076,o),
(1929,1044,cs)
);
},
{
closed = 1;
nodes = (
(473,1048,l),
(116,1048,ls),
(81,1048,o),
(43,1046,o),
(43,1079,cs),
(43,1118,o),
(84,1114,o),
(116,1114,cs),
(915,1114,ls),
(954,1114,o),
(987,1117,o),
(987,1081,cs),
(987,1045,o),
(954,1048,o),
(915,1048,cs),
(558,1048,l),
(558,66,l),
(915,66,ls),
(954,66,o),
(987,69,o),
(987,33,cs),
(987,-3,o),
(954,0,o),
(915,0,cs),
(116,0,ls),
(84,0,o),
(43,-4,o),
(43,35,cs),
(43,68,o),
(81,66,o),
(116,66,cs),
(473,66,l)
);
}
);
userData = {
com.fontlab.hintData = {
hhints = (
{
position = -20;
width = 69;
},
{
position = 0;
width = 66;
},
{
position = 1048;
width = 66;
}
);
vhints = (
{
position = 473;
width = 85;
},
{
position = 1844;
width = 85;
}
);
};
};
width = 2088;
}
);
unicode = 306;
},
{
glyphname = Iacute;
lastChange = "2023-04-21 12:17:44 +0000";
layers = (
{
background = {
shapes = (
{
closed = 1;
nodes = (
(473,1048,l),
(116,1048,ls),
(81,1048,o),
(43,1046,o),
(43,1079,cs),
(43,1118,o),
(84,1114,o),
(116,1114,cs),
(915,1114,ls),
(954,1114,o),
(987,1117,o),
(987,1081,cs),
(987,1045,o),
(954,1048,o),
(915,1048,cs),
(558,1048,l),
(558,66,l),
(915,66,ls),
(954,66,o),
(987,69,o),
(987,33,cs),
(987,-3,o),
(954,0,o),
(915,0,cs),
(116,0,ls),
(84,0,o),
(43,-4,o),
(43,35,cs),
(43,68,o),
(81,66,o),
(116,66,cs),
(473,66,l)
);
},
{
closed = 1;
nodes = (
(741,1577,ls),
(748,1584,o),
(757,1588,o),
(766,1588,cs),
(795,1588,o),
(830,1556,o),
(830,1527,cs),
(830,1516,o),
(825,1507,o),
(815,1499,cs),
(523,1262,ls),
(519,1259,o),
(514,1257,o),
(508,1257,cs),
(493,1257,o),
(481,1268,o),
(481,1283,cs),
(481,1290,o),
(484,1296,o),
(489,1301,cs)
);
}
);
};
layerId = master01;
shapes = (
{
alignment = -1;
ref = I;
},
{
alignment = -1;
pos = (466,300);
ref = acute;
}
);
userData = {
com.fontlab.hintData = {
hhints = (
{
position = 0;
width = 66;
},
{
position = 1048;
width = 66;
},
{
position = 1257;
width = 331;
}
);
vhints = (
{
position = 473;
width = 85;
},
{
position = 480;
width = 349;
}
);
};
};
width = 1031;
}
);
unicode = 205;
},
{
glyphname = Ibreve;
lastChange = "2023-04-21 12:17:44 +0000";
layers = (
{
background = {
shapes = (
{
closed = 1;
nodes = (
(473,1048,l),
(116,1048,ls),
(81,1048,o),
(43,1046,o),
(43,1079,cs),
(43,1118,o),
(84,1114,o),
(116,1114,cs),
(915,1114,ls),
(954,1114,o),
(987,1117,o),
(987,1081,cs),
(987,1045,o),
(954,1048,o),
(915,1048,cs),
(558,1048,l),
(558,66,l),
(915,66,ls),
(954,66,o),
(987,69,o),
(987,33,cs),
(987,-3,o),
(954,0,o),
(915,0,cs),
(116,0,ls),
(84,0,o),
(43,-4,o),
(43,35,cs),
(43,68,o),
(81,66,o),
(116,66,cs),
(473,66,l)
);
},
{
closed = 1;
nodes = (
(700,1443,l),
(700,1363,o),
(676,1257,o),
(515,1257,cs),
(349,1257,o),
(330,1370,o),
(330,1443,c),
(367,1443,l),
(369,1385,o),
(399,1309,o),
(515,1309,cs),
(628,1309,o),
(658,1384,o),
(663,1443,c)
);
}
);
};
layerId = master01;
shapes = (
{
alignment = -1;
ref = I;
},
{
alignment = -1;
pos = (156,268);
ref = breve;
}
);
userData = {
com.fontlab.hintData = {
hhints = (
{
position = 0;
width = 66;
},
{
position = 1048;
width = 66;
},
{
position = 1257;
width = 52;
}
);
vhints = (
{
position = 330;
width = 37;
},
{
position = 473;
width = 85;
},
{
position = 663;
width = 37;
}
);
};
};
width = 1031;
}
);
unicode = 300;
},
{
glyphname = Icircumflex;
lastChange = "2023-04-21 12:17:44 +0000";
layers = (
{
background = {
shapes = (
{
closed = 1;
nodes = (
(473,1048,l),
(116,1048,ls),
(81,1048,o),
(43,1046,o),
(43,1079,cs),
(43,1118,o),
(84,1114,o),
(116,1114,cs),
(915,1114,ls),
(954,1114,o),
(987,1117,o),
(987,1081,cs),
(987,1045,o),
(954,1048,o),
(915,1048,cs),
(558,1048,l),
(558,66,l),
(915,66,ls),
(954,66,o),
(987,69,o),
(987,33,cs),
(987,-3,o),
(954,0,o),
(915,0,cs),
(116,0,ls),
(84,0,o),
(43,-4,o),
(43,35,cs),
(43,68,o),
(81,66,o),
(116,66,cs),
(473,66,l)
);
},
{
closed = 1;
nodes = (
(385,1231,l),
(309,1231,l),
(462,1466,ls),
(478,1491,o),
(496,1504,o),
(515,1504,cs),
(531,1504,o),
(551,1491,o),
(568,1466,cs),
(721,1231,l),
(645,1231,l),
(515,1449,l)
);
}
);
};
layerId = master01;
shapes = (
{
alignment = -1;
ref = I;
},
{
alignment = -1;
pos = (274,339);
ref = circumflex;
}
);
userData = {
com.fontlab.hintData = {
hhints = (
{
position = 0;
width = 66;
},
{
position = 1048;
width = 66;
},
{
position = 1231;
width = 273;
}
);
vhints = (
{
position = 309;
width = 412;
},
{
position = 473;
width = 85;
}
);
};
};
width = 1031;
}
);
unicode = 206;
},
{
glyphname = Idblgrave;
lastChange = "2023-04-21 12:21:45 +0000";
layers = (
{
background = {
shapes = (
{
closed = 1;
nodes = (
(473,1048,l),
(116,1048,ls),
(81,1048,o),
(43,1046,o),
(43,1079,cs),
(43,1118,o),
(84,1114,o),
(116,1114,cs),
(915,1114,ls),
(954,1114,o),
(987,1117,o),
(987,1081,cs),
(987,1045,o),
(954,1048,o),
(915,1048,cs),
(558,1048,l),
(558,66,l),
(915,66,ls),
(954,66,o),
(987,69,o),
(987,33,cs),
(987,-3,o),
(954,0,o),
(915,0,cs),
(116,0,ls),
(84,0,o),
(43,-4,o),
(43,35,cs),
(43,68,o),
(81,66,o),
(116,66,cs),
(473,66,l)
);
},
{
closed = 1;
nodes = (
(656,1301,ls),
(660,1296,o),
(664,1290,o),
(664,1283,cs),
(664,1268,o),
(652,1257,o),
(637,1257,cs),
(631,1257,o),
(626,1259,o),
(622,1262,cs),
(330,1499,ls),
(320,1507,o),
(315,1516,o),
(315,1527,cs),
(315,1551,o),
(344,1578,o),
(369,1578,cs),
(378,1578,o),
(387,1574,o),
(394,1567,cs)
);
},
{
closed = 1;
nodes = (
(428,1301,ls),
(432,1296,o),
(436,1290,o),
(436,1283,cs),
(436,1268,o),
(424,1257,o),
(409,1257,cs),
(403,1257,o),
(398,1259,o),
(394,1262,cs),
(102,1499,ls),
(92,1507,o),
(87,1516,o),
(87,1527,cs),
(87,1551,o),
(116,1578,o),
(141,1578,cs),
(150,1578,o),
(159,1574,o),
(166,1567,cs)
);
}
);
};
layerId = master01;
shapes = (
{
ref = I;
},
{
pos = (308.5,296);
ref = dblgravecomb;
}
);
userData = {
com.fontlab.hintData = {
hhints = (
{
position = 0;
width = 66;
},
{
position = 1048;
width = 66;
},
{
position = 1257;
width = 321;
}
);
vhints = (
{
position = 86;
width = 577;
},
{
position = 473;
width = 85;
}
);
};
};
width = 1031;
}
);
unicode = 520;
},
{
glyphname = Idieresis;
lastChange = "2023-04-21 12:17:44 +0000";
layers = (
{
background = {
shapes = (
{
closed = 1;
nodes = (
(473,1048,l),
(116,1048,ls),
(81,1048,o),
(43,1046,o),
(43,1079,cs),
(43,1118,o),
(84,1114,o),
(116,1114,cs),
(915,1114,ls),
(954,1114,o),
(987,1117,o),
(987,1081,cs),
(987,1045,o),
(954,1048,o),
(915,1048,cs),
(558,1048,l),
(558,66,l),
(915,66,ls),
(954,66,o),
(987,69,o),
(987,33,cs),
(987,-3,o),
(954,0,o),
(915,0,cs),
(116,0,ls),
(84,0,o),
(43,-4,o),
(43,35,cs),
(43,68,o),
(81,66,o),
(116,66,cs),
(473,66,l)
);
},
{
closed = 1;
nodes = (
(676,1348,o),
(699,1372,o),
(734,1372,cs),
(767,1372,o),
(794,1348,o),
(794,1313,cs),
(794,1280,o),
(767,1257,o),
(734,1257,cs),
(699,1257,o),
(676,1280,o),
(676,1313,cs)
);
},
{
closed = 1;
nodes = (
(237,1348,o),
(260,1372,o),
(295,1372,cs),
(328,1372,o),
(355,1348,o),
(355,1313,cs),
(355,1280,o),
(328,1257,o),
(295,1257,cs),
(260,1257,o),
(237,1280,o),
(237,1313,cs)
);
}
);
};
layerId = master01;
shapes = (
{
alignment = -1;
ref = I;
},
{
alignment = -1;
pos = (150,317);
ref = dieresis;
}
);
userData = {
com.fontlab.hintData = {
hhints = (
{
position = 0;
width = 66;
},
{
position = 1048;
width = 66;
},
{
position = 1257;
width = 115;
}
);
vhints = (
{
position = 236;
width = 118;
},
{
position = 473;
width = 85;
},
{
position = 676;
width = 118;
}
);
};
};
width = 1031;
}
);
unicode = 207;
},
{
glyphname = Idotaccent;
lastChange = "2023-04-21 12:17:44 +0000";
layers = (
{
background = {
shapes = (
{
closed = 1;
nodes = (
(473,1048,l),
(116,1048,ls),
(81,1048,o),
(43,1046,o),
(43,1079,cs),
(43,1118,o),
(84,1114,o),
(116,1114,cs),
(915,1114,ls),
(954,1114,o),
(987,1117,o),
(987,1081,cs),
(987,1045,o),
(954,1048,o),
(915,1048,cs),
(558,1048,l),
(558,66,l),
(915,66,ls),
(954,66,o),
(987,69,o),
(987,33,cs),
(987,-3,o),
(954,0,o),
(915,0,cs),
(116,0,ls),
(84,0,o),
(43,-4,o),
(43,35,cs),
(43,68,o),
(81,66,o),
(116,66,cs),
(473,66,l)
);
},
{
closed = 1;
nodes = (
(456,1348,o),
(479,1372,o),
(514,1372,cs),
(547,1372,o),
(574,1348,o),
(574,1313,cs),
(574,1280,o),
(547,1257,o),
(514,1257,cs),
(479,1257,o),
(456,1280,o),
(456,1313,cs)
);
}
);
};
layerId = master01;
shapes = (
{
ref = I;
},
{
pos = (352,258);
ref = dotaccentcomb;
}
);
userData = {
com.fontlab.hintData = {
hhints = (
{
position = 0;
width = 66;
},
{
position = 1048;
width = 66;
},
{
position = 1257;
width = 115;
}
);
vhints = (
{
position = 456;
width = 118;
},
{
position = 473;
width = 85;
}
);
};
};
width = 1031;
}
);
unicode = 304;
},
{
glyphname = Igrave;
lastChange = "2023-04-21 12:17:44 +0000";
layers = (
{
background = {
shapes = (
{
closed = 1;
nodes = (
(473,1048,l),
(116,1048,ls),
(81,1048,o),
(43,1046,o),
(43,1079,cs),
(43,1118,o),
(84,1114,o),
(116,1114,cs),
(915,1114,ls),
(954,1114,o),
(987,1117,o),
(987,1081,cs),
(987,1045,o),
(954,1048,o),
(915,1048,cs),
(558,1048,l),
(558,66,l),
(915,66,ls),
(954,66,o),
(987,69,o),
(987,33,cs),
(987,-3,o),
(954,0,o),
(915,0,cs),
(116,0,ls),
(84,0,o),
(43,-4,o),
(43,35,cs),
(43,68,o),
(81,66,o),
(116,66,cs),
(473,66,l)
);
},
{
closed = 1;
nodes = (
(682,1352,ls),
(687,1347,o),
(690,1341,o),
(690,1334,cs),
(690,1319,o),
(678,1308,o),
(663,1308,cs),
(657,1308,o),
(652,1310,o),
(648,1313,cs),
(356,1550,ls),
(346,1558,o),
(341,1567,o),
(341,1578,cs),
(341,1607,o),
(376,1639,o),
(405,1639,cs),
(414,1639,o),
(423,1635,o),
(430,1628,cs)
);
}
);
};
layerId = master01;
shapes = (
{
alignment = -1;
ref = I;
},
{
alignment = -1;
pos = (329,339);
ref = grave;
}
);
userData = {
com.fontlab.hintData = {
hhints = (
{
position = 0;
width = 66;
},
{
position = 1048;
width = 66;
},
{
position = 1308;
width = 331;
}
);
vhints = (
{
position = 341;
width = 349;
},
{
position = 473;
width = 85;
}
);
};
};
width = 1031;
}
);
unicode = 204;
},
{
glyphname = Iinvertedbreve;
lastChange = "2023-04-21 12:21:45 +0000";
layers = (
{
background = {
shapes = (
{
closed = 1;
nodes = (
(473,1048,l),
(116,1048,ls),
(81,1048,o),
(43,1046,o),
(43,1079,cs),
(43,1118,o),
(84,1114,o),
(116,1114,cs),
(915,1114,ls),
(954,1114,o),
(987,1117,o),
(987,1081,cs),
(987,1045,o),
(954,1048,o),
(915,1048,cs),
(558,1048,l),
(558,66,l),
(915,66,ls),
(954,66,o),
(987,69,o),
(987,33,cs),
(987,-3,o),
(954,0,o),
(915,0,cs),
(116,0,ls),
(84,0,o),
(43,-4,o),
(43,35,cs),
(43,68,o),
(81,66,o),
(116,66,cs),
(473,66,l)
);
},
{
closed = 1;
nodes = (
(653,1257,l),
(648,1312,o),
(620,1381,o),
(515,1381,cs),
(407,1381,o),
(379,1311,o),
(377,1257,c),
(330,1257,l),
(330,1330,o),
(349,1443,o),
(515,1443,cs),
(676,1443,o),
(700,1337,o),
(700,1257,c)
);
}
);
};
layerId = master01;
shapes = (
{
ref = I;
},
{
pos = (156,268);
ref = breveinvertedcomb;
}
);
userData = {
com.fontlab.hintData = {
hhints = (
{
position = 0;
width = 66;
},
{
position = 1048;
width = 66;
},
{
position = 1381;
width = 62;
}
);
vhints = (
{
position = 330;
width = 47;
},
{
position = 473;
width = 85;
},
{
position = 653;
width = 47;
}
);
};
};
width = 1031;
}
);
unicode = 522;
},
{
glyphname = Imacron;
lastChange = "2023-04-21 12:17:44 +0000";
layers = (
{
background = {
shapes = (
{
closed = 1;
nodes = (
(473,1048,l),
(116,1048,ls),
(81,1048,o),
(43,1046,o),
(43,1079,cs),
(43,1118,o),
(84,1114,o),
(116,1114,cs),
(915,1114,ls),
(954,1114,o),
(987,1117,o),
(987,1081,cs),
(987,1045,o),
(954,1048,o),
(915,1048,cs),
(558,1048,l),
(558,66,l),
(915,66,ls),
(954,66,o),
(987,69,o),
(987,33,cs),
(987,-3,o),
(954,0,o),
(915,0,cs),
(116,0,ls),
(84,0,o),
(43,-4,o),
(43,35,cs),
(43,68,o),
(81,66,o),
(116,66,cs),
(473,66,l)
);
},
{
closed = 1;
nodes = (
(691,1312,ls),
(710,1312,o),
(718,1295,o),
(718,1283,cs),
(718,1272,o),
(710,1257,o),
(691,1257,cs),
(339,1257,ls),
(320,1257,o),
(312,1272,o),
(312,1283,cs),
(312,1295,o),
(320,1312,o),
(339,1312,cs)
);
}
);
};
layerId = master01;
shapes = (
{
alignment = -1;
ref = I;
},
{
alignment = -1;
pos = (177,331);
ref = macron;
}
);
userData = {
com.fontlab.hintData = {
hhints = (
{
position = 0;
width = 66;
},
{
position = 1048;
width = 66;
},
{
position = 1257;
width = 55;
}
);
vhints = (
{
position = 312;
width = 406;
},
{
position = 473;
width = 85;
}
);
};
};
width = 1031;
}
);
unicode = 298;
},
{
glyphname = Iogonek;
lastChange = "2023-04-21 12:17:44 +0000";
layers = (
{
background = {
shapes = (
{
closed = 1;
nodes = (
(473,1048,l),
(116,1048,ls),
(81,1048,o),
(43,1046,o),
(43,1079,cs),
(43,1118,o),
(84,1114,o),
(116,1114,cs),
(915,1114,ls),
(954,1114,o),
(987,1117,o),
(987,1081,cs),
(987,1045,o),
(954,1048,o),
(915,1048,cs),
(558,1048,l),
(558,66,l),
(915,66,ls),
(954,66,o),
(987,69,o),
(987,33,cs),
(987,-3,o),
(954,0,o),
(915,0,cs),
(116,0,ls),
(84,0,o),
(43,-4,o),
(43,35,cs),
(43,68,o),
(81,66,o),
(116,66,cs),
(473,66,l)
);
},
{
closed = 1;
nodes = (
(530,9,l),
(483,-46,o),
(460,-105,o),
(460,-148,cs),
(460,-203,o),
(490,-220,o),
(511,-220,cs),
(538,-220,o),
(565,-201,o),
(582,-190,c),
(592,-199,l),
(569,-246,o),
(517,-276,o),
(466,-276,cs),
(421,-276,o),
(371,-248,o),
(371,-179,cs),
(371,-115,o),
(425,-52,o),
(500,9,c)
);
}
);
};
layerId = master01;
shapes = (
{
alignment = -1;
ref = I;
},
{
alignment = -1;
pos = (325,3);
ref = ogonek;
}
);
userData = {
com.fontlab.hintData = {
hhints = (
{
position = -276;
width = 56;
},
{
position = 0;
width = 66;
},
{
position = 1048;
width = 66;
}
);
vhints = (
{
position = 371;
width = 89;
},
{
position = 473;
width = 85;
}
);
};
};
width = 1031;
}
);
unicode = 302;
},
{
glyphname = Itilde;
lastChange = "2023-04-21 12:17:44 +0000";
layers = (
{
background = {
shapes = (
{
closed = 1;
nodes = (
(473,1048,l),
(116,1048,ls),
(81,1048,o),
(43,1046,o),
(43,1079,cs),
(43,1118,o),
(84,1114,o),
(116,1114,cs),
(915,1114,ls),
(954,1114,o),
(987,1117,o),
(987,1081,cs),
(987,1045,o),
(954,1048,o),
(915,1048,cs),
(558,1048,l),
(558,66,l),
(915,66,ls),
(954,66,o),
(987,69,o),
(987,33,cs),
(987,-3,o),
(954,0,o),
(915,0,cs),
(116,0,ls),
(84,0,o),
(43,-4,o),
(43,35,cs),
(43,68,o),
(81,66,o),
(116,66,cs),
(473,66,l)
);
},
{
closed = 1;
nodes = (
(682,1325,o),
(688,1348,o),
(688,1393,c),
(751,1393,l),
(754,1375,o),
(756,1357,o),
(756,1338,cs),
(756,1290,o),
(720,1257,o),
(657,1257,cs),
(547,1257,o),
(462,1327,o),
(375,1327,cs),
(347,1327,o),
(343,1307,o),
(343,1289,cs),
(343,1279,o),
(344,1270,o),
(344,1262,c),
(281,1262,l),
(277,1279,o),
(275,1298,o),
(275,1317,cs),
(275,1364,o),
(312,1398,o),
(375,1398,cs),
(482,1398,o),
(573,1325,o),
(653,1325,cs)
);
}
);
};
layerId = master01;
shapes = (
{
alignment = -1;
ref = I;
},
{
alignment = -1;
pos = (49,341);
ref = tilde;
}
);
userData = {
com.fontlab.hintData = {
hhints = (
{
position = 0;
width = 66;
},
{
position = 1048;
width = 66;
},
{
position = 1257;
width = 68;
},
{
position = 1327;
width = 71;
}
);
vhints = (
{
position = 274;
width = 68;
},
{
position = 473;
width = 85;
},
{
position = 688;
width = 68;
}
);
};
};
width = 1031;
}
);
unicode = 296;
},
{
glyphname = J;
lastChange = "2023-04-21 12:17:34 +0000";
layers = (
{
background = {
shapes = (
{
closed = 1;
nodes = (
(898,594,ls),
(898,178,o),
(800,-20,o),
(467,-20,cs),
(240,-20,o),
(58,25,o),
(7,214,cs),
(4,222,o),
(3,230,o),
(3,238,cs),
(3,265,o),
(18,277,o),
(37,277,cs),
(54,277,o),
(73,264,o),
(80,240,c),
(122,57,o),
(310,49,o),
(467,49,cs),
(750,49,o),
(813,240,o),
(813,594,cs),
(813,1044,ls),
(813,1083,o),
(819,1114,o),
(858,1114,cs),
(893,1114,o),
(898,1076,o),
(898,1044,cs)
);
}
);
};
layerId = master01;
shapes = (
{
closed = 1;
nodes = (
(898,594,ls),
(898,178,o),
(800,-20,o),
(467,-20,cs),
(240,-20,o),
(58,25,o),
(7,214,cs),
(4,222,o),
(3,230,o),
(3,238,cs),
(3,265,o),
(18,277,o),
(37,277,cs),
(54,277,o),
(73,264,o),
(80,240,c),
(122,57,o),
(310,49,o),
(467,49,cs),
(750,49,o),
(813,240,o),
(813,594,cs),
(813,1044,ls),
(813,1083,o),
(819,1114,o),
(858,1114,cs),
(893,1114,o),
(898,1076,o),
(898,1044,cs)
);
}
);
userData = {
com.fontlab.hintData = {
hhints = (
{
position = -20;
width = 69;
},
{
position = 1094;
width = 20;
}
);
vhints = (
{
position = 813;
width = 85;
}
);
};
};
width = 1057;
}
);
unicode = 74;
},
{
glyphname = Jcircumflex;
lastChange = "2023-04-21 12:17:44 +0000";
layers = (
{
background = {
shapes = (
{
closed = 1;
nodes = (
(898,594,ls),
(898,178,o),
(800,-20,o),
(467,-20,cs),
(240,-20,o),
(58,25,o),
(7,214,cs),
(4,222,o),
(3,230,o),
(3,238,cs),
(3,265,o),
(18,277,o),
(37,277,cs),
(54,277,o),
(73,264,o),
(80,240,c),
(122,57,o),
(310,49,o),
(467,49,cs),
(750,49,o),
(813,240,o),
(813,594,cs),
(813,1044,ls),
(813,1083,o),
(819,1114,o),
(858,1114,cs),
(893,1114,o),
(898,1076,o),
(898,1044,cs)
);
},
{
closed = 1;
nodes = (
(725,1231,l),
(649,1231,l),
(802,1466,ls),
(818,1491,o),
(836,1504,o),
(855,1504,cs),
(871,1504,o),
(891,1491,o),
(908,1466,cs),
(1061,1231,l),
(985,1231,l),
(855,1449,l)
);
}
);
};
layerId = master01;
shapes = (
{
alignment = -1;
ref = J;
},
{
alignment = -1;
pos = (614,339);
ref = circumflex;
}
);
userData = {
com.fontlab.hintData = {
hhints = (
{
position = -20;
width = 69;
},
{
position = 1094;
width = 20;
},
{
position = 1231;
width = 273;
}
);
vhints = (
{
position = 649;
width = 412;
},
{
position = 813;
width = 85;
}
);
};
};
width = 1057;
}
);
unicode = 308;
},
{
glyphname = K;
lastChange = "2023-04-21 12:17:34 +0000";
layers = (
{
background = {
shapes = (
{
closed = 1;
nodes = (
(516,621,l),
(1099,77,ls),
(1112,65,o),
(1119,50,o),
(1119,37,cs),
(1119,17,o),
(1104,0,o),
(1084,0,cs),
(1073,0,o),
(1062,5,o),
(1051,15,cs),
(453,580,l),
(246,444,l),
(246,70,ls),
(246,31,o),
(236,0,o),
(204,0,cs),
(165,0,o),
(160,32,o),
(160,68,cs),
(160,1048,ls),
(160,1087,o),
(167,1114,o),
(206,1114,cs),
(238,1114,o),
(246,1085,o),
(246,1050,cs),
(246,524,l),
(1047,1099,ls),
(1062,1110,o),
(1076,1114,o),
(1087,1114,cs),
(1108,1114,o),
(1120,1101,o),
(1120,1082,cs),
(1120,1067,o),
(1113,1055,o),
(1098,1044,cs)
);
}
);
};
layerId = master01;
shapes = (
{
closed = 1;
nodes = (
(516,621,l),
(1099,77,ls),
(1112,65,o),
(1119,50,o),
(1119,37,cs),
(1119,17,o),
(1104,0,o),
(1084,0,cs),
(1073,0,o),
(1062,5,o),
(1051,15,cs),
(453,580,l),
(246,444,l),
(246,70,ls),
(246,31,o),
(236,0,o),
(204,0,cs),
(165,0,o),
(160,32,o),
(160,68,cs),
(160,1048,ls),
(160,1087,o),
(167,1114,o),
(206,1114,cs),
(238,1114,o),
(246,1085,o),
(246,1050,cs),
(246,524,l),
(1047,1099,ls),
(1062,1110,o),
(1076,1114,o),
(1087,1114,cs),
(1108,1114,o),
(1120,1101,o),
(1120,1082,cs),
(1120,1067,o),
(1113,1055,o),
(1098,1044,cs)
);
}
);
userData = {
com.fontlab.hintData = {
hhints = (
{
position = 0;
width = 21;
},
{
position = 1094;
width = 20;
}
);
vhints = (
{
position = 160;
width = 86;
}
);
};
};
width = 1229;
}
);
unicode = 75;
},
{
glyphname = Kcommaaccent;
lastChange = "2023-04-21 12:17:44 +0000";
layers = (
{
background = {
shapes = (
{
closed = 1;
nodes = (
(516,621,l),
(1099,77,ls),
(1112,65,o),
(1119,50,o),
(1119,37,cs),
(1119,17,o),
(1104,0,o),
(1084,0,cs),
(1073,0,o),
(1062,5,o),
(1051,15,cs),
(453,580,l),
(246,444,l),
(246,70,ls),
(246,31,o),
(236,0,o),
(204,0,cs),
(165,0,o),
(160,32,o),
(160,68,cs),
(160,1048,ls),
(160,1087,o),
(167,1114,o),
(206,1114,cs),
(238,1114,o),
(246,1085,o),
(246,1050,cs),
(246,524,l),
(1047,1099,ls),
(1062,1110,o),
(1076,1114,o),
(1087,1114,cs),
(1108,1114,o),
(1120,1101,o),
(1120,1082,cs),
(1120,1067,o),
(1113,1055,o),
(1098,1044,cs)
);
},
{
closed = 1;
nodes = (
(564,-315,l),
(613,-315,o),
(627,-287,o),
(627,-248,c),
(605,-241,o),
(578,-221,o),
(578,-181,cs),
(578,-142,o),
(610,-122,o),
(648,-122,cs),
(679,-122,o),
(716,-146,o),
(716,-196,cs),
(716,-264,o),
(666,-351,o),
(564,-351,c)
);
}
);
};
layerId = master01;
shapes = (
{
ref = K;
},
{
pos = (440,-27);
ref = commaaccentcomb;
}
);
userData = {
com.fontlab.hintData = {
hhints = (
{
position = -351;
width = 36;
},
{
position = 0;
width = 21;
},
{
position = 1094;
width = 20;
}
);
vhints = (
{
position = 160;
width = 86;
},
{
position = 627;
width = 89;
}
);
};
};
width = 1229;
}
);
unicode = 310;
},
{
glyphname = L;
lastChange = "2023-04-21 12:17:34 +0000";
layers = (
{
background = {
shapes = (
{
closed = 1;
nodes = (
(201,0,ls),
(160,0,o),
(160,2,o),
(160,37,cs),
(160,1049,ls),
(160,1084,o),
(168,1114,o),
(207,1114,cs),
(239,1114,o),
(245,1081,o),
(245,1049,cs),
(245,66,l),
(1104,66,ls),
(1131,66,o),
(1145,49,o),
(1145,33,cs),
(1145,16,o),
(1131,0,o),
(1104,0,cs)
);
}
);
};
layerId = master01;
shapes = (
{
closed = 1;
nodes = (
(201,0,ls),
(160,0,o),
(160,2,o),
(160,37,cs),
(160,1049,ls),
(160,1084,o),
(168,1114,o),
(207,1114,cs),
(239,1114,o),
(245,1081,o),
(245,1049,cs),
(245,66,l),
(1104,66,ls),
(1131,66,o),
(1145,49,o),
(1145,33,cs),
(1145,16,o),
(1131,0,o),
(1104,0,cs)
);
}
);
userData = {
com.fontlab.hintData = {
hhints = (
{
position = 0;
width = 66;
},
{
position = 1094;
width = 20;
}
);
vhints = (
{
position = 160;
width = 85;
}
);
};
};
width = 1145;
}
);
unicode = 76;
},
{
glyphname = LJ;
lastChange = "2023-04-21 12:21:45 +0000";
layers = (
{
background = {
shapes = (
{
closed = 1;
nodes = (
(2043,594,ls),
(2043,178,o),
(1945,-20,o),
(1612,-20,cs),
(1385,-20,o),
(1203,25,o),
(1152,214,cs),
(1149,222,o),
(1148,230,o),
(1148,238,cs),
(1148,265,o),
(1163,277,o),
(1182,277,cs),
(1199,277,o),
(1218,264,o),
(1225,240,c),
(1267,57,o),
(1455,49,o),
(1612,49,cs),
(1895,49,o),
(1958,240,o),
(1958,594,cs),
(1958,1044,ls),
(1958,1083,o),
(1964,1114,o),
(2003,1114,cs),
(2038,1114,o),
(2043,1076,o),
(2043,1044,cs)
);
},
{
closed = 1;
nodes = (
(201,0,ls),
(160,0,o),
(160,2,o),
(160,37,cs),
(160,1049,ls),
(160,1084,o),
(168,1114,o),
(207,1114,cs),
(239,1114,o),
(245,1081,o),
(245,1049,cs),
(245,66,l),
(1104,66,ls),
(1131,66,o),
(1145,49,o),
(1145,33,cs),
(1145,16,o),
(1131,0,o),
(1104,0,cs)
);
}
);
};
layerId = master01;
shapes = (
{
alignment = -1;
pos = (1145,0);
ref = J;
},
{
alignment = -1;
ref = L;
}
);
userData = {
com.fontlab.hintData = {
hhints = (
{
position = -20;
width = 69;
},
{
position = 0;
width = 66;
},
{
position = 1094;
width = 20;
}
);
vhints = (
{
position = 160;
width = 85;
},
{
position = 1958;
width = 85;
}
);
};
};
width = 2202;
}
);
unicode = 455;
},
{
glyphname = Lacute;
lastChange = "2023-04-21 12:17:44 +0000";
layers = (
{
background = {
shapes = (
{
closed = 1;
nodes = (
(201,0,ls),
(160,0,o),
(160,2,o),
(160,37,cs),
(160,1049,ls),
(160,1084,o),
(168,1114,o),
(207,1114,cs),
(239,1114,o),
(245,1081,o),
(245,1049,cs),
(245,66,l),
(1104,66,ls),
(1131,66,o),
(1145,49,o),
(1145,33,cs),
(1145,16,o),
(1131,0,o),
(1104,0,cs)
);
},
{
closed = 1;
nodes = (
(878,1577,ls),
(885,1584,o),
(894,1588,o),
(903,1588,cs),
(932,1588,o),
(967,1556,o),
(967,1527,cs),
(967,1516,o),
(962,1507,o),
(952,1499,cs),
(660,1262,ls),
(656,1259,o),
(651,1257,o),
(645,1257,cs),
(630,1257,o),
(618,1268,o),
(618,1283,cs),
(618,1290,o),
(621,1296,o),
(626,1301,cs)
);
}
);
};
layerId = master01;
shapes = (
{
alignment = -1;
ref = L;
},
{
alignment = -1;
pos = (603,300);
ref = acute;
}
);
userData = {
com.fontlab.hintData = {
hhints = (
{
position = 0;
width = 66;
},
{
position = 1094;
width = 20;
},
{
position = 1257;
width = 331;
}
);
vhints = (
{
position = 160;
width = 85;
},
{
position = 618;
width = 349;
}
);
};
};
width = 1145;
}
);
unicode = 313;
},
{
glyphname = Lcaron;
lastChange = "2023-04-21 12:17:44 +0000";
layers = (
{
background = {
shapes = (
{
closed = 1;
nodes = (
(201,0,ls),
(160,0,o),
(160,2,o),
(160,37,cs),
(160,1049,ls),
(160,1084,o),
(168,1114,o),
(207,1114,cs),
(239,1114,o),
(245,1081,o),
(245,1049,cs),
(245,66,l),
(1104,66,ls),
(1131,66,o),
(1145,49,o),
(1145,33,cs),
(1145,16,o),
(1131,0,o),
(1104,0,cs)
);
},
{
closed = 1;
nodes = (
(964,942,l),
(1013,942,o),
(1027,970,o),
(1027,1009,c),
(1005,1016,o),
(978,1036,o),
(978,1076,cs),
(978,1115,o),
(1010,1135,o),
(1048,1135,cs),
(1079,1135,o),
(1116,1111,o),
(1116,1061,cs),
(1116,993,o),
(1066,906,o),
(964,906,c)
);
}
);
};
layerId = master01;
shapes = (
{
ref = L;
},
{
pos = (879,1030);
ref = comma;
}
);
userData = {
com.fontlab.hintData = {
hhints = (
{
position = 0;
width = 66;
},
{
position = 906;
width = 36;
},
{
position = 1094;
width = 20;
}
);
vhints = (
{
position = 160;
width = 85;
},
{
position = 1027;
width = 89;
}
);
};
};
width = 1145;
}
);
unicode = 317;
},
{
glyphname = Lcommaaccent;
lastChange = "2023-04-21 12:17:44 +0000";
layers = (
{
background = {
shapes = (
{
closed = 1;
nodes = (
(201,0,ls),
(160,0,o),
(160,2,o),
(160,37,cs),
(160,1049,ls),
(160,1084,o),
(168,1114,o),
(207,1114,cs),
(239,1114,o),
(245,1081,o),
(245,1049,cs),
(245,66,l),
(1104,66,ls),
(1131,66,o),
(1145,49,o),
(1145,33,cs),
(1145,16,o),
(1131,0,o),
(1104,0,cs)
);
},
{
closed = 1;
nodes = (
(577,-315,l),
(626,-315,o),
(640,-287,o),
(640,-248,c),
(618,-241,o),
(591,-221,o),
(591,-181,cs),
(591,-142,o),
(623,-122,o),
(661,-122,cs),
(692,-122,o),
(729,-146,o),
(729,-196,cs),
(729,-264,o),
(679,-351,o),
(577,-351,c)
);
}
);
};
layerId = master01;
shapes = (
{
ref = L;
},
{
pos = (452.5,-27);
ref = commaaccentcomb;
}
);
userData = {
com.fontlab.hintData = {
hhints = (
{
position = -351;
width = 36;
},
{
position = 0;
width = 66;
},
{
position = 1094;
width = 20;
}
);
vhints = (
{
position = 160;
width = 85;
},
{
position = 640;
width = 89;
}
);
};
};
width = 1145;
}
);
unicode = 315;
},
{
glyphname = Ldot;
lastChange = "2023-04-21 12:17:44 +0000";
layers = (
{
background = {
shapes = (
{
closed = 1;
nodes = (
(201,0,ls),
(160,0,o),
(160,2,o),
(160,37,cs),
(160,1049,ls),
(160,1084,o),
(168,1114,o),
(207,1114,cs),
(239,1114,o),
(245,1081,o),
(245,1049,cs),
(245,66,l),
(1104,66,ls),
(1131,66,o),
(1145,49,o),
(1145,33,cs),
(1145,16,o),
(1131,0,o),
(1104,0,cs)
);
},
{
closed = 1;
nodes = (
(588,604,o),
(613,631,o),
(652,631,cs),
(688,631,o),
(718,604,o),
(718,566,cs),
(718,529,o),
(688,504,o),
(652,504,cs),
(613,504,o),
(588,529,o),
(588,566,cs)
);
}
);
};
layerId = master01;
shapes = (
{
ref = L;
},
{
pos = (494.5,-439.5);
ref = periodcentered;
}
);
userData = {
com.fontlab.hintData = {
hhints = (
{
position = 0;
width = 66;
},
{
position = 504;
width = 127;
},
{
position = 1094;
width = 20;
}
);
vhints = (
{
position = 160;
width = 85;
},
{
position = 588;
width = 130;
}
);
};
};
width = 1145;
}
);
unicode = 319;
},
{
glyphname = Lj;
lastChange = "2023-04-21 12:21:45 +0000";
layers = (
{
background = {
shapes = (
{
closed = 1;
nodes = (
(201,0,ls),
(160,0,o),
(160,2,o),
(160,37,cs),
(160,1049,ls),
(160,1084,o),
(168,1114,o),
(207,1114,cs),
(239,1114,o),
(245,1081,o),
(245,1049,cs),
(245,66,l),
(1104,66,ls),
(1131,66,o),
(1145,49,o),
(1145,33,cs),
(1145,16,o),
(1131,0,o),
(1104,0,cs)
);
},
{
closed = 1;
nodes = (
(1410,1023,o),
(1432,1046,o),
(1463,1046,cs),
(1494,1046,o),
(1518,1023,o),
(1518,992,cs),
(1518,961,o),
(1494,941,o),
(1463,941,cs),
(1432,941,o),
(1410,961,o),
(1410,992,cs)
);
},
{
closed = 1;
nodes = (
(1504,94,ls),
(1504,-45,o),
(1500,-266,o),
(1211,-266,cs),
(1176,-266,o),
(1145,-266,o),
(1145,-231,cs),
(1145,-196,o),
(1176,-197,o),
(1211,-197,cs),
(1432,-197,o),
(1424,-45,o),
(1424,94,cs),
(1424,714,ls),
(1424,743,o),
(1430,766,o),
(1465,766,cs),
(1504,766,o),
(1504,743,o),
(1504,714,cs)
);
}
);
};
layerId = master01;
shapes = (
{
ref = L;
},
{
pos = (1145,0);
ref = j;
}
);
userData = {
com.fontlab.hintData = {
hhints = (
{
position = -266;
width = 69;
},
{
position = 0;
width = 66;
},
{
position = 746;
width = 20;
},
{
position = 941;
width = 105;
},
{
position = 1094;
width = 20;
}
);
vhints = (
{
position = 160;
width = 85;
},
{
position = 1424;
width = 80;
}
);
};
};
width = 1628;
}
);
unicode = 456;
},
{
glyphname = Lslash;
lastChange = "2023-04-21 12:17:34 +0000";
layers = (
{
background = {
shapes = (
{
closed = 1;
nodes = (
(-27,563,l),
(207,657,l),
(207,1044,ls),
(207,1085,o),
(207,1114,o),
(246,1114,cs),
(278,1114,o),
(278,1083,o),
(278,1044,cs),
(278,688,l),
(641,836,l),
(661,772,l),
(278,612,l),
(278,70,l),
(1006,70,ls),
(1045,70,o),
(1077,70,o),
(1077,35,cs),
(1077,0,o),
(1045,0,o),
(1006,0,cs),
(246,0,ls),
(207,0,o),
(207,-2,o),
(207,70,cs),
(207,584,l),
(-6,500,l)
);
}
);
};
layerId = master01;
shapes = (
{
closed = 1;
nodes = (
(-27,563,l),
(207,657,l),
(207,1044,ls),
(207,1085,o),
(207,1114,o),
(246,1114,cs),
(278,1114,o),
(278,1083,o),
(278,1044,cs),
(278,688,l),
(641,836,l),
(661,772,l),
(278,612,l),
(278,70,l),
(1006,70,ls),
(1045,70,o),
(1077,70,o),
(1077,35,cs),
(1077,0,o),
(1045,0,o),
(1006,0,cs),
(246,0,ls),
(207,0,o),
(207,-2,o),
(207,70,cs),
(207,584,l),
(-6,500,l)
);
}
);
userData = {
com.fontlab.hintData = {
hhints = (
{
position = 0;
width = 70;
},
{
position = 1094;
width = 20;
}
);
vhints = (
{
position = 207;
width = 71;
}
);
};
};
width = 1109;
}
);
unicode = 321;
},
{
glyphname = M;
lastChange = "2023-04-21 12:17:34 +0000";
layers = (
{
background = {
shapes = (
{
closed = 1;
nodes = (
(884,139,l),
(1504,1071,ls),
(1524,1102,o),
(1545,1114,o),
(1565,1114,cs),
(1590,1114,o),
(1609,1091,o),
(1609,1060,cs),
(1609,70,ls),
(1609,31,o),
(1605,0,o),
(1566,0,cs),
(1533,0,o),
(1524,31,o),
(1524,70,cs),
(1524,958,l),
(933,86,ls),
(917,63,o),
(901,52,o),
(884,52,cs),
(867,52,o),
(850,63,o),
(835,86,cs),
(244,958,l),
(244,70,ls),
(244,31,o),
(235,0,o),
(202,0,cs),
(163,0,o),
(159,31,o),
(159,70,cs),
(159,1060,ls),
(159,1091,o),
(178,1114,o),
(203,1114,cs),
(222,1114,o),
(243,1102,o),
(264,1071,cs)
);
}
);
};
layerId = master01;
shapes = (
{
closed = 1;
nodes = (
(884,139,l),
(1504,1071,ls),
(1524,1102,o),
(1545,1114,o),
(1565,1114,cs),
(1590,1114,o),
(1609,1091,o),
(1609,1060,cs),
(1609,70,ls),
(1609,31,o),
(1605,0,o),
(1566,0,cs),
(1533,0,o),
(1524,31,o),
(1524,70,cs),
(1524,958,l),
(933,86,ls),
(917,63,o),
(901,52,o),
(884,52,cs),
(867,52,o),
(850,63,o),
(835,86,cs),
(244,958,l),
(244,70,ls),
(244,31,o),
(235,0,o),
(202,0,cs),
(163,0,o),
(159,31,o),
(159,70,cs),
(159,1060,ls),
(159,1091,o),
(178,1114,o),
(203,1114,cs),
(222,1114,o),
(243,1102,o),
(264,1071,cs)
);
}
);
userData = {
com.fontlab.hintData = {
hhints = (
{
position = 0;
width = 21;
},
{
position = 1094;
width = 20;
}
);
vhints = (
{
position = 159;
width = 85;
},
{
position = 1524;
width = 85;
}
);
};
};
width = 1768;
}
);
unicode = 77;
},
{
glyphname = N;
lastChange = "2023-04-21 12:17:34 +0000";
layers = (
{
background = {
shapes = (
{
closed = 1;
nodes = (
(1282,128,l),
(1282,1038,ls),
(1282,1077,o),
(1285,1114,o),
(1325,1114,cs),
(1360,1114,o),
(1367,1079,o),
(1367,1038,cs),
(1367,64,ls),
(1367,21,o),
(1356,0,o),
(1333,0,cs),
(1318,0,o),
(1299,10,o),
(1276,31,cs),
(245,986,l),
(245,70,ls),
(245,31,o),
(236,0,o),
(204,0,cs),
(165,0,o),
(160,31,o),
(160,70,cs),
(160,1049,ls),
(160,1089,o),
(176,1111,o),
(201,1111,cs),
(218,1111,o),
(237,1101,o),
(259,1081,cs)
);
}
);
};
layerId = master01;
shapes = (
{
closed = 1;
nodes = (
(1282,128,l),
(1282,1038,ls),
(1282,1077,o),
(1285,1114,o),
(1325,1114,cs),
(1360,1114,o),
(1367,1079,o),
(1367,1038,cs),
(1367,64,ls),
(1367,21,o),
(1356,0,o),
(1333,0,cs),
(1318,0,o),
(1299,10,o),
(1276,31,cs),
(245,986,l),
(245,70,ls),
(245,31,o),
(236,0,o),
(204,0,cs),
(165,0,o),
(160,31,o),
(160,70,cs),
(160,1049,ls),
(160,1089,o),
(176,1111,o),
(201,1111,cs),
(218,1111,o),
(237,1101,o),
(259,1081,cs)
);
}
);
userData = {
com.fontlab.hintData = {
hhints = (
{
position = 0;
width = 21;
},
{
position = 1094;
width = 20;
}
);
vhints = (
{
position = 160;
width = 85;
},
{
position = 1282;
width = 85;
}
);
};
};
width = 1527;
}
);
unicode = 78;
},
{
glyphname = NJ;
lastChange = "2023-04-21 12:21:45 +0000";
layers = (
{
background = {
shapes = (
{
closed = 1;
nodes = (
(2425,594,ls),
(2425,178,o),
(2327,-20,o),
(1994,-20,cs),
(1767,-20,o),
(1585,25,o),
(1534,214,cs),
(1531,222,o),
(1530,230,o),
(1530,238,cs),
(1530,265,o),
(1545,277,o),
(1564,277,cs),
(1581,277,o),
(1600,264,o),
(1607,240,c),
(1649,57,o),
(1837,49,o),
(1994,49,cs),
(2277,49,o),
(2340,240,o),
(2340,594,cs),
(2340,1044,ls),
(2340,1083,o),
(2346,1114,o),
(2385,1114,cs),
(2420,1114,o),
(2425,1076,o),
(2425,1044,cs)
);
},
{
closed = 1;
nodes = (
(1282,128,l),
(1282,1038,ls),
(1282,1077,o),
(1285,1114,o),
(1325,1114,cs),
(1360,1114,o),
(1367,1079,o),
(1367,1038,cs),
(1367,64,ls),
(1367,21,o),
(1356,0,o),
(1333,0,cs),
(1318,0,o),
(1299,10,o),
(1276,31,cs),
(245,986,l),
(245,70,ls),
(245,31,o),
(236,0,o),
(204,0,cs),
(165,0,o),
(160,31,o),
(160,70,cs),
(160,1049,ls),
(160,1089,o),
(176,1111,o),
(201,1111,cs),
(218,1111,o),
(237,1101,o),
(259,1081,cs)
);
}
);
};
layerId = master01;
shapes = (
{
alignment = -1;
pos = (1527,0);
ref = J;
},
{
alignment = -1;
ref = N;
}
);
userData = {
com.fontlab.hintData = {
hhints = (
{
position = -20;
width = 69;
},
{
position = 0;
width = 21;
},
{
position = 1094;
width = 20;
}
);
vhints = (
{
position = 160;
width = 85;
},
{
position = 1282;
width = 85;
},
{
position = 2340;
width = 85;
}
);
};
};
width = 2584;
}
);
unicode = 458;
},
{
glyphname = Nacute;
lastChange = "2023-04-21 12:17:44 +0000";
layers = (
{
background = {
shapes = (
{
closed = 1;
nodes = (
(1282,128,l),
(1282,1038,ls),
(1282,1077,o),
(1285,1114,o),
(1325,1114,cs),
(1360,1114,o),
(1367,1079,o),
(1367,1038,cs),
(1367,64,ls),
(1367,21,o),
(1356,0,o),
(1333,0,cs),
(1318,0,o),
(1299,10,o),
(1276,31,cs),
(245,986,l),
(245,70,ls),
(245,31,o),
(236,0,o),
(204,0,cs),
(165,0,o),
(160,31,o),
(160,70,cs),
(160,1049,ls),
(160,1089,o),
(176,1111,o),
(201,1111,cs),
(218,1111,o),
(237,1101,o),
(259,1081,cs)
);
},
{
closed = 1;
nodes = (
(989,1577,ls),
(996,1584,o),
(1005,1588,o),
(1014,1588,cs),
(1043,1588,o),
(1078,1556,o),
(1078,1527,cs),
(1078,1516,o),
(1073,1507,o),
(1063,1499,cs),
(771,1262,ls),
(767,1259,o),
(762,1257,o),
(756,1257,cs),
(741,1257,o),
(729,1268,o),
(729,1283,cs),
(729,1290,o),
(732,1296,o),
(737,1301,cs)
);
}
);
};
layerId = master01;
shapes = (
{
alignment = -1;
ref = N;
},
{
alignment = -1;
pos = (714,300);
ref = acute;
}
);
userData = {
com.fontlab.hintData = {
hhints = (
{
position = 0;
width = 21;
},
{
position = 1094;
width = 20;
},
{
position = 1257;
width = 331;
}
);
vhints = (
{
position = 160;
width = 85;
},
{
position = 729;
width = 349;
},
{
position = 1282;
width = 85;
}
);
};
};
width = 1527;
}
);
unicode = 323;
},
{
glyphname = Ncaron;
lastChange = "2023-04-21 12:17:44 +0000";
layers = (
{
background = {
shapes = (
{
closed = 1;
nodes = (
(1282,128,l),
(1282,1038,ls),
(1282,1077,o),
(1285,1114,o),
(1325,1114,cs),
(1360,1114,o),
(1367,1079,o),
(1367,1038,cs),
(1367,64,ls),
(1367,21,o),
(1356,0,o),
(1333,0,cs),
(1318,0,o),
(1299,10,o),
(1276,31,cs),
(245,986,l),
(245,70,ls),
(245,31,o),
(236,0,o),
(204,0,cs),
(165,0,o),
(160,31,o),
(160,70,cs),
(160,1049,ls),
(160,1089,o),
(176,1111,o),
(201,1111,cs),
(218,1111,o),
(237,1101,o),
(259,1081,cs)
);
},
{
closed = 1;
nodes = (
(764,1312,l),
(894,1530,l),
(970,1530,l),
(817,1295,ls),
(800,1270,o),
(780,1257,o),
(764,1257,cs),
(745,1257,o),
(727,1270,o),
(711,1295,cs),
(558,1530,l),
(634,1530,l)
);
}
);
};
layerId = master01;
shapes = (
{
alignment = -1;
ref = N;
},
{
alignment = -1;
pos = (485,282);
ref = caron;
}
);
userData = {
com.fontlab.hintData = {
hhints = (
{
position = 0;
width = 21;
},
{
position = 1094;
width = 20;
},
{
position = 1257;
width = 273;
}
);
vhints = (
{
position = 160;
width = 85;
},
{
position = 558;
width = 412;
},
{
position = 1282;
width = 85;
}
);
};
};
width = 1527;
}
);
unicode = 327;
},
{
glyphname = Ncommaaccent;
lastChange = "2023-04-21 12:17:44 +0000";
layers = (
{
background = {
shapes = (
{
closed = 1;
nodes = (
(1282,128,l),
(1282,1038,ls),
(1282,1077,o),
(1285,1114,o),
(1325,1114,cs),
(1360,1114,o),
(1367,1079,o),
(1367,1038,cs),
(1367,64,ls),
(1367,21,o),
(1356,0,o),
(1333,0,cs),
(1318,0,o),
(1299,10,o),
(1276,31,cs),
(245,986,l),
(245,70,ls),
(245,31,o),
(236,0,o),
(204,0,cs),
(165,0,o),
(160,31,o),
(160,70,cs),
(160,1049,ls),
(160,1089,o),
(176,1111,o),
(201,1111,cs),
(218,1111,o),
(237,1101,o),
(259,1081,cs)
);
},
{
closed = 1;
nodes = (
(688,-315,l),
(737,-315,o),
(751,-287,o),
(751,-248,c),
(729,-241,o),
(702,-221,o),
(702,-181,cs),
(702,-142,o),
(734,-122,o),
(772,-122,cs),
(803,-122,o),
(840,-146,o),
(840,-196,cs),
(840,-264,o),
(790,-351,o),
(688,-351,c)
);
}
);
};
layerId = master01;
shapes = (
{
ref = N;
},
{
pos = (563.5,-27);
ref = commaaccentcomb;
}
);
userData = {
com.fontlab.hintData = {
hhints = (
{
position = -351;
width = 36;
},
{
position = 0;
width = 21;
},
{
position = 1094;
width = 20;
}
);
vhints = (
{
position = 160;
width = 85;
},
{
position = 750;
width = 89;
},
{
position = 1282;
width = 85;
}
);
};
};
width = 1527;
}
);
unicode = 325;
},
{
glyphname = Nj;
lastChange = "2023-04-21 12:21:45 +0000";
layers = (
{
background = {
shapes = (
{
closed = 1;
nodes = (
(1282,128,l),
(1282,1038,ls),
(1282,1077,o),
(1285,1114,o),
(1325,1114,cs),
(1360,1114,o),
(1367,1079,o),
(1367,1038,cs),
(1367,64,ls),
(1367,21,o),
(1356,0,o),
(1333,0,cs),
(1318,0,o),
(1299,10,o),
(1276,31,cs),
(245,986,l),
(245,70,ls),
(245,31,o),
(236,0,o),
(204,0,cs),
(165,0,o),
(160,31,o),
(160,70,cs),
(160,1049,ls),
(160,1089,o),
(176,1111,o),
(201,1111,cs),
(218,1111,o),
(237,1101,o),
(259,1081,cs)
);
},
{
closed = 1;
nodes = (
(1792,1023,o),
(1814,1046,o),
(1845,1046,cs),
(1876,1046,o),
(1900,1023,o),
(1900,992,cs),
(1900,961,o),
(1876,941,o),
(1845,941,cs),
(1814,941,o),
(1792,961,o),
(1792,992,cs)
);
},
{
closed = 1;
nodes = (
(1886,94,ls),
(1886,-45,o),
(1882,-266,o),
(1593,-266,cs),
(1558,-266,o),
(1527,-266,o),
(1527,-231,cs),
(1527,-196,o),
(1558,-197,o),
(1593,-197,cs),
(1814,-197,o),
(1806,-45,o),
(1806,94,cs),
(1806,714,ls),
(1806,743,o),
(1812,766,o),
(1847,766,cs),
(1886,766,o),
(1886,743,o),
(1886,714,cs)
);
}
);
};
layerId = master01;
shapes = (
{
ref = N;
},
{
pos = (1527,0);
ref = j;
}
);
userData = {
com.fontlab.hintData = {
hhints = (
{
position = -266;
width = 69;
},
{
position = 0;
width = 21;
},
{
position = 746;
width = 20;
},
{
position = 941;
width = 105;
},
{
position = 1094;
width = 20;
}
);
vhints = (
{
position = 160;
width = 85;
},
{
position = 1282;
width = 85;
},
{
position = 1806;
width = 80;
}
);
};
};
width = 2010;
}
);
unicode = 459;
},
{
glyphname = Ntilde;
lastChange = "2023-04-21 12:17:44 +0000";
layers = (
{
background = {
shapes = (
{
closed = 1;
nodes = (
(1282,128,l),
(1282,1038,ls),
(1282,1077,o),
(1285,1114,o),
(1325,1114,cs),
(1360,1114,o),
(1367,1079,o),
(1367,1038,cs),
(1367,64,ls),
(1367,21,o),
(1356,0,o),
(1333,0,cs),
(1318,0,o),
(1299,10,o),
(1276,31,cs),
(245,986,l),
(245,70,ls),
(245,31,o),
(236,0,o),
(204,0,cs),
(165,0,o),
(160,31,o),
(160,70,cs),
(160,1049,ls),
(160,1089,o),
(176,1111,o),
(201,1111,cs),
(218,1111,o),
(237,1101,o),
(259,1081,cs)
);
},
{
closed = 1;
nodes = (
(930,1325,o),
(936,1348,o),
(936,1393,c),
(999,1393,l),
(1002,1375,o),
(1004,1357,o),
(1004,1338,cs),
(1004,1290,o),
(968,1257,o),
(905,1257,cs),
(795,1257,o),
(710,1327,o),
(623,1327,cs),
(595,1327,o),
(591,1307,o),
(591,1289,cs),
(591,1279,o),
(592,1270,o),
(592,1262,c),
(529,1262,l),
(525,1279,o),
(523,1298,o),
(523,1317,cs),
(523,1364,o),
(560,1398,o),
(623,1398,cs),
(730,1398,o),
(821,1325,o),
(901,1325,cs)
);
}
);
};
layerId = master01;
shapes = (
{
alignment = -1;
ref = N;
},
{
alignment = -1;
pos = (297,341);
ref = tilde;
}
);
userData = {
com.fontlab.hintData = {
hhints = (
{
position = 0;
width = 21;
},
{
position = 1094;
width = 20;
},
{
position = 1257;
width = 68;
},
{
position = 1327;
width = 71;
}
);
vhints = (
{
position = 160;
width = 85;
},
{
position = 523;
width = 68;
},
{
position = 936;
width = 68;
},
{
position = 1282;
width = 85;
}
);
};
};
width = 1527;
}
);
unicode = 209;
},
{
glyphname = O;
lastChange = "2023-04-21 12:17:34 +0000";
layers = (
{
background = {
shapes = (
{
closed = 1;
nodes = (
(208,185,o),
(420,45,o),
(857,45,cs),
(1294,45,o),
(1507,185,o),
(1507,557,cs),
(1507,929,o),
(1294,1069,o),
(857,1069,cs),
(420,1069,o),
(208,929,o),
(208,557,cs)
);
},
{
closed = 1;
nodes = (
(1592,168,o),
(1364,-21,o),
(857,-21,cs),
(350,-21,o),
(123,168,o),
(123,557,cs),
(123,946,o),
(350,1135,o),
(857,1135,cs),
(1364,1135,o),
(1592,946,o),
(1592,557,cs)
);
}
);
};
layerId = master01;
shapes = (
{
closed = 1;
nodes = (
(208,185,o),
(420,45,o),
(857,45,cs),
(1294,45,o),
(1507,185,o),
(1507,557,cs),
(1507,929,o),
(1294,1069,o),
(857,1069,cs),
(420,1069,o),
(208,929,o),
(208,557,cs)
);
},
{
closed = 1;
nodes = (
(1592,168,o),
(1364,-21,o),
(857,-21,cs),
(350,-21,o),
(123,168,o),
(123,557,cs),
(123,946,o),
(350,1135,o),
(857,1135,cs),
(1364,1135,o),
(1592,946,o),
(1592,557,cs)
);
}
);
userData = {
com.fontlab.hintData = {
hhints = (
{
position = -21;
width = 66;
},
{
position = 1069;
width = 66;
}
);
vhints = (
{
position = 123;
width = 85;
},
{
position = 1507;
width = 85;
}
);
};
};
width = 1715;
}
);
unicode = 79;
},
{
glyphname = Oacute;
lastChange = "2023-04-21 12:17:44 +0000";
layers = (
{
background = {
shapes = (
{
closed = 1;
nodes = (
(208,185,o),
(420,45,o),
(857,45,cs),
(1294,45,o),
(1507,185,o),
(1507,557,cs),
(1507,929,o),
(1294,1069,o),
(857,1069,cs),
(420,1069,o),
(208,929,o),
(208,557,cs)
);
},
{
closed = 1;
nodes = (
(1592,168,o),
(1364,-21,o),
(857,-21,cs),
(350,-21,o),
(123,168,o),
(123,557,cs),
(123,946,o),
(350,1135,o),
(857,1135,cs),
(1364,1135,o),
(1592,946,o),
(1592,557,cs)
);
},
{
closed = 1;
nodes = (
(1083,1577,ls),
(1090,1584,o),
(1099,1588,o),
(1108,1588,cs),
(1137,1588,o),
(1172,1556,o),
(1172,1527,cs),
(1172,1516,o),
(1167,1507,o),
(1157,1499,cs),
(865,1262,ls),
(861,1259,o),
(856,1257,o),
(850,1257,cs),
(835,1257,o),
(823,1268,o),
(823,1283,cs),
(823,1290,o),
(826,1296,o),
(831,1301,cs)
);
}
);
};
layerId = master01;
shapes = (
{
alignment = -1;
ref = O;
},
{
alignment = -1;
pos = (808,300);
ref = acute;
}
);
userData = {
com.fontlab.hintData = {
hhints = (
{
position = -21;
width = 66;
},
{
position = 1069;
width = 66;
},
{
position = 1257;
width = 331;
}
);
vhints = (
{
position = 123;
width = 85;
},
{
position = 823;
width = 349;
},
{
position = 1507;
width = 85;
}
);
};
};
width = 1715;
}
);
unicode = 211;
},
{
glyphname = Obreve;
lastChange = "2023-04-21 12:17:44 +0000";
layers = (
{
background = {
shapes = (
{
closed = 1;
nodes = (
(208,185,o),
(420,45,o),
(857,45,cs),
(1294,45,o),
(1507,185,o),
(1507,557,cs),
(1507,929,o),
(1294,1069,o),
(857,1069,cs),
(420,1069,o),
(208,929,o),
(208,557,cs)
);
},
{
closed = 1;
nodes = (
(1592,168,o),
(1364,-21,o),
(857,-21,cs),
(350,-21,o),
(123,168,o),
(123,557,cs),
(123,946,o),
(350,1135,o),
(857,1135,cs),
(1364,1135,o),
(1592,946,o),
(1592,557,cs)
);
},
{
closed = 1;
nodes = (
(1043,1443,l),
(1043,1363,o),
(1019,1257,o),
(858,1257,cs),
(692,1257,o),
(673,1370,o),
(673,1443,c),
(710,1443,l),
(712,1385,o),
(742,1309,o),
(858,1309,cs),
(971,1309,o),
(1001,1384,o),
(1006,1443,c)
);
}
);
};
layerId = master01;
shapes = (
{
alignment = -1;
ref = O;
},
{
alignment = -1;
pos = (499,268);
ref = breve;
}
);
userData = {
com.fontlab.hintData = {
hhints = (
{
position = -21;
width = 66;
},
{
position = 1069;
width = 66;
},
{
position = 1257;
width = 52;
}
);
vhints = (
{
position = 123;
width = 85;
},
{
position = 672;
width = 37;
},
{
position = 1006;
width = 37;
},
{
position = 1507;
width = 85;
}
);
};
};
width = 1715;
}
);
unicode = 334;
},
{
glyphname = Ocircumflex;
lastChange = "2023-04-21 12:17:44 +0000";
layers = (
{
background = {
shapes = (
{
closed = 1;
nodes = (
(208,185,o),
(420,45,o),
(857,45,cs),
(1294,45,o),
(1507,185,o),
(1507,557,cs),
(1507,929,o),
(1294,1069,o),
(857,1069,cs),
(420,1069,o),
(208,929,o),
(208,557,cs)
);
},
{
closed = 1;
nodes = (
(1592,168,o),
(1364,-21,o),
(857,-21,cs),
(350,-21,o),
(123,168,o),
(123,557,cs),
(123,946,o),
(350,1135,o),
(857,1135,cs),
(1364,1135,o),
(1592,946,o),
(1592,557,cs)
);
},
{
closed = 1;
nodes = (
(727,1231,l),
(651,1231,l),
(804,1466,ls),
(820,1491,o),
(838,1504,o),
(857,1504,cs),
(873,1504,o),
(893,1491,o),
(910,1466,cs),
(1063,1231,l),
(987,1231,l),
(857,1449,l)
);
}
);
};
layerId = master01;
shapes = (
{
alignment = -1;
ref = O;
},
{
alignment = -1;
pos = (616,339);
ref = circumflex;
}
);
userData = {
com.fontlab.hintData = {
hhints = (
{
position = -21;
width = 66;
},
{
position = 1069;
width = 66;
},
{
position = 1231;
width = 273;
}
);
vhints = (
{
position = 123;
width = 85;
},
{
position = 651;
width = 412;
},
{
position = 1507;
width = 85;
}
);
};
};
width = 1715;
}
);
unicode = 212;
},
{
glyphname = Odblgrave;
lastChange = "2023-04-21 12:21:45 +0000";
layers = (
{
background = {
shapes = (
{
closed = 1;
nodes = (
(208,185,o),
(420,45,o),
(857,45,cs),
(1294,45,o),
(1507,185,o),
(1507,557,cs),
(1507,929,o),
(1294,1069,o),
(857,1069,cs),
(420,1069,o),
(208,929,o),
(208,557,cs)
);
},
{
closed = 1;
nodes = (
(1592,168,o),
(1364,-21,o),
(857,-21,cs),
(350,-21,o),
(123,168,o),
(123,557,cs),
(123,946,o),
(350,1135,o),
(857,1135,cs),
(1364,1135,o),
(1592,946,o),
(1592,557,cs)
);
},
{
closed = 1;
nodes = (
(998,1301,ls),
(1003,1296,o),
(1006,1290,o),
(1006,1283,cs),
(1006,1268,o),
(994,1257,o),
(979,1257,cs),
(973,1257,o),
(968,1259,o),
(964,1262,cs),
(672,1499,ls),
(662,1507,o),
(657,1516,o),
(657,1527,cs),
(657,1551,o),
(687,1578,o),
(711,1578,cs),
(720,1578,o),
(729,1574,o),
(736,1567,cs)
);
},
{
closed = 1;
nodes = (
(770,1301,ls),
(775,1296,o),
(778,1290,o),
(778,1283,cs),
(778,1268,o),
(766,1257,o),
(751,1257,cs),
(745,1257,o),
(740,1259,o),
(736,1262,cs),
(444,1499,ls),
(434,1507,o),
(429,1516,o),
(429,1527,cs),
(429,1551,o),
(459,1578,o),
(483,1578,cs),
(492,1578,o),
(501,1574,o),
(508,1567,cs)
);
}
);
};
layerId = master01;
shapes = (
{
ref = O;
},
{
pos = (651,296);
ref = dblgravecomb;
}
);
userData = {
com.fontlab.hintData = {
hhints = (
{
position = -21;
width = 66;
},
{
position = 1069;
width = 66;
},
{
position = 1257;
width = 321;
}
);
vhints = (
{
position = 123;
width = 85;
},
{
position = 429;
width = 577;
},
{
position = 1507;
width = 85;
}
);
};
};
width = 1715;
}
);
unicode = 524;
},
{
glyphname = Odieresis;
lastChange = "2023-04-21 12:17:44 +0000";
layers = (
{
background = {
shapes = (
{
closed = 1;
nodes = (
(208,185,o),
(420,45,o),
(857,45,cs),
(1294,45,o),
(1507,185,o),
(1507,557,cs),
(1507,929,o),
(1294,1069,o),
(857,1069,cs),
(420,1069,o),
(208,929,o),
(208,557,cs)
);
},
{
closed = 1;
nodes = (
(1592,168,o),
(1364,-21,o),
(857,-21,cs),
(350,-21,o),
(123,168,o),
(123,557,cs),
(123,946,o),
(350,1135,o),
(857,1135,cs),
(1364,1135,o),
(1592,946,o),
(1592,557,cs)
);
},
{
closed = 1;
nodes = (
(1008,1379,o),
(1031,1403,o),
(1066,1403,cs),
(1099,1403,o),
(1126,1379,o),
(1126,1344,cs),
(1126,1311,o),
(1099,1288,o),
(1066,1288,cs),
(1031,1288,o),
(1008,1311,o),
(1008,1344,cs)
);
},
{
closed = 1;
nodes = (
(569,1379,o),
(592,1403,o),
(627,1403,cs),
(660,1403,o),
(687,1379,o),
(687,1344,cs),
(687,1311,o),
(660,1288,o),
(627,1288,cs),
(592,1288,o),
(569,1311,o),
(569,1344,cs)
);
}
);
};
layerId = master01;
shapes = (
{
alignment = -1;
ref = O;
},
{
alignment = -1;
pos = (482,348);
ref = dieresis;
}
);
userData = {
com.fontlab.hintData = {
hhints = (
{
position = -21;
width = 66;
},
{
position = 1069;
width = 66;
},
{
position = 1288;
width = 115;
}
);
vhints = (
{
position = 123;
width = 85;
},
{
position = 569;
width = 118;
},
{
position = 1008;
width = 118;
},
{
position = 1507;
width = 85;
}
);
};
};
width = 1715;
}
);
unicode = 214;
},
{
glyphname = Ograve;
lastChange = "2023-04-21 12:17:44 +0000";
layers = (
{
background = {
shapes = (
{
closed = 1;
nodes = (
(208,185,o),
(420,45,o),
(857,45,cs),
(1294,45,o),
(1507,185,o),
(1507,557,cs),
(1507,929,o),
(1294,1069,o),
(857,1069,cs),
(420,1069,o),
(208,929,o),
(208,557,cs)
);
},
{
closed = 1;
nodes = (
(1592,168,o),
(1364,-21,o),
(857,-21,cs),
(350,-21,o),
(123,168,o),
(123,557,cs),
(123,946,o),
(350,1135,o),
(857,1135,cs),
(1364,1135,o),
(1592,946,o),
(1592,557,cs)
);
},
{
closed = 1;
nodes = (
(1024,1352,ls),
(1029,1347,o),
(1032,1341,o),
(1032,1334,cs),
(1032,1319,o),
(1020,1308,o),
(1005,1308,cs),
(999,1308,o),
(994,1310,o),
(990,1313,cs),
(698,1550,ls),
(688,1558,o),
(683,1567,o),
(683,1578,cs),
(683,1607,o),
(718,1639,o),
(747,1639,cs),
(756,1639,o),
(765,1635,o),
(772,1628,cs)
);
}
);
};
layerId = master01;
shapes = (
{
alignment = -1;
ref = O;
},
{
alignment = -1;
pos = (671,339);
ref = grave;
}
);
userData = {
com.fontlab.hintData = {
hhints = (
{
position = -21;
width = 66;
},
{
position = 1069;
width = 66;
},
{
position = 1308;
width = 331;
}
);
vhints = (
{
position = 123;
width = 85;
},
{
position = 683;
width = 349;
},
{
position = 1507;
width = 85;
}
);
};
};
width = 1715;
}
);
unicode = 210;
},
{
glyphname = Ohungarumlaut;
lastChange = "2023-04-21 12:17:44 +0000";
layers = (
{
background = {
shapes = (
{
closed = 1;
nodes = (
(208,185,o),
(420,45,o),
(857,45,cs),
(1294,45,o),
(1507,185,o),
(1507,557,cs),
(1507,929,o),
(1294,1069,o),
(857,1069,cs),
(420,1069,o),
(208,929,o),
(208,557,cs)
);
},
{
closed = 1;
nodes = (
(1592,168,o),
(1364,-21,o),
(857,-21,cs),
(350,-21,o),
(123,168,o),
(123,557,cs),
(123,946,o),
(350,1135,o),
(857,1135,cs),
(1364,1135,o),
(1592,946,o),
(1592,557,cs)
);
},
{
closed = 1;
nodes = (
(1209,1567,ls),
(1216,1574,o),
(1225,1578,o),
(1234,1578,cs),
(1258,1578,o),
(1286,1551,o),
(1286,1527,cs),
(1286,1516,o),
(1281,1507,o),
(1271,1499,cs),
(979,1262,ls),
(975,1259,o),
(970,1257,o),
(964,1257,cs),
(949,1257,o),
(937,1268,o),
(937,1283,cs),
(937,1290,o),
(940,1296,o),
(945,1301,cs)
);
},
{
closed = 1;
nodes = (
(981,1567,ls),
(988,1574,o),
(997,1578,o),
(1006,1578,cs),
(1030,1578,o),
(1058,1551,o),
(1058,1527,cs),
(1058,1516,o),
(1053,1507,o),
(1043,1499,cs),
(751,1262,ls),
(747,1259,o),
(742,1257,o),
(736,1257,cs),
(721,1257,o),
(709,1268,o),
(709,1283,cs),
(709,1290,o),
(712,1296,o),
(717,1301,cs)
);
}
);
};
layerId = master01;
shapes = (
{
alignment = -1;
ref = O;
},
{
alignment = -1;
pos = (446,296);
ref = hungarumlaut;
}
);
userData = {
com.fontlab.hintData = {
hhints = (
{
position = -21;
width = 66;
},
{
position = 1069;
width = 66;
},
{
position = 1257;
width = 321;
}
);
vhints = (
{
position = 123;
width = 85;
},
{
position = 709;
width = 577;
},
{
position = 1507;
width = 85;
}
);
};
};
width = 1715;
}
);
unicode = 336;
},
{
glyphname = Oinvertedbreve;
lastChange = "2023-04-21 12:21:45 +0000";
layers = (
{
background = {
shapes = (
{
closed = 1;
nodes = (
(208,185,o),
(420,45,o),
(857,45,cs),
(1294,45,o),
(1507,185,o),
(1507,557,cs),
(1507,929,o),
(1294,1069,o),
(857,1069,cs),
(420,1069,o),
(208,929,o),
(208,557,cs)
);
},
{
closed = 1;
nodes = (
(1592,168,o),
(1364,-21,o),
(857,-21,cs),
(350,-21,o),
(123,168,o),
(123,557,cs),
(123,946,o),
(350,1135,o),
(857,1135,cs),
(1364,1135,o),
(1592,946,o),
(1592,557,cs)
);
},
{
closed = 1;
nodes = (
(996,1257,l),
(991,1312,o),
(963,1381,o),
(858,1381,cs),
(750,1381,o),
(722,1311,o),
(720,1257,c),
(673,1257,l),
(673,1330,o),
(692,1443,o),
(858,1443,cs),
(1019,1443,o),
(1043,1337,o),
(1043,1257,c)
);
}
);
};
layerId = master01;
shapes = (
{
ref = O;
},
{
pos = (498.5,268);
ref = breveinvertedcomb;
}
);
userData = {
com.fontlab.hintData = {
hhints = (
{
position = -21;
width = 66;
},
{
position = 1069;
width = 66;
},
{
position = 1381;
width = 62;
}
);
vhints = (
{
position = 123;
width = 85;
},
{
position = 672;
width = 47;
},
{
position = 996;
width = 47;
},
{
position = 1507;
width = 85;
}
);
};
};
width = 1715;
}
);
unicode = 526;
},
{
glyphname = Omacron;
lastChange = "2023-04-21 12:17:44 +0000";
layers = (
{
background = {
shapes = (
{
closed = 1;
nodes = (
(208,185,o),
(420,45,o),
(857,45,cs),
(1294,45,o),
(1507,185,o),
(1507,557,cs),
(1507,929,o),
(1294,1069,o),
(857,1069,cs),
(420,1069,o),
(208,929,o),
(208,557,cs)
);
},
{
closed = 1;
nodes = (
(1592,168,o),
(1364,-21,o),
(857,-21,cs),
(350,-21,o),
(123,168,o),
(123,557,cs),
(123,946,o),
(350,1135,o),
(857,1135,cs),
(1364,1135,o),
(1592,946,o),
(1592,557,cs)
);
},
{
closed = 1;
nodes = (
(1034,1312,ls),
(1053,1312,o),
(1061,1295,o),
(1061,1283,cs),
(1061,1272,o),
(1053,1257,o),
(1034,1257,cs),
(682,1257,ls),
(663,1257,o),
(655,1272,o),
(655,1283,cs),
(655,1295,o),
(663,1312,o),
(682,1312,cs)
);
}
);
};
layerId = master01;
shapes = (
{
alignment = -1;
ref = O;
},
{
alignment = -1;
pos = (520,331);
ref = macron;
}
);
userData = {
com.fontlab.hintData = {
hhints = (
{
position = -21;
width = 66;
},
{
position = 1069;
width = 66;
},
{
position = 1257;
width = 55;
}
);
vhints = (
{
position = 123;
width = 85;
},
{
position = 654;
width = 406;
},
{
position = 1507;
width = 85;
}
);
};
};
width = 1715;
}
);
unicode = 332;
},
{
glyphname = Oslash;
lastChange = "2023-04-21 12:17:34 +0000";
layers = (
{
background = {
shapes = (
{
closed = 1;
nodes = (
(1592,168,o),
(1364,-21,o),
(857,-21,cs),
(795,-21,o),
(738,-19,o),
(684,-13,c),
(650,-102,ls),
(638,-134,o),
(629,-159,o),
(605,-159,cs),
(572,-159,o),
(568,-135,o),
(568,-120,cs),
(568,-108,o),
(574,-96,o),
(580,-81,cs),
(610,-2,l),
(276,54,o),
(123,238,o),
(123,557,cs),
(123,946,o),
(350,1135,o),
(857,1135,cs),
(920,1135,o),
(979,1132,o),
(1034,1126,c),
(1070,1222,ls),
(1081,1252,o),
(1088,1280,o),
(1119,1280,cs),
(1147,1280,o),
(1152,1262,o),
(1152,1245,cs),
(1152,1231,o),
(1147,1216,o),
(1142,1202,cs),
(1109,1116,l),
(1440,1059,o),
(1592,874,o),
(1592,557,cs)
);
},
{
closed = 1;
nodes = (
(1010,1062,l),
(962,1067,o),
(911,1069,o),
(857,1069,cs),
(420,1069,o),
(208,929,o),
(208,557,cs),
(208,255,o),
(347,107,o),
(633,61,c)
);
},
{
closed = 1;
nodes = (
(754,47,o),
(804,45,o),
(857,45,cs),
(1294,45,o),
(1507,185,o),
(1507,557,cs),
(1507,857,o),
(1369,1007,o),
(1086,1053,c),
(708,51,l)
);
}
);
};
layerId = master01;
shapes = (
{
closed = 1;
nodes = (
(1592,168,o),
(1364,-21,o),
(857,-21,cs),
(795,-21,o),
(738,-19,o),
(684,-13,c),
(650,-102,ls),
(638,-134,o),
(629,-159,o),
(605,-159,cs),
(572,-159,o),
(568,-135,o),
(568,-120,cs),
(568,-108,o),
(574,-96,o),
(580,-81,cs),
(610,-2,l),
(276,54,o),
(123,238,o),
(123,557,cs),
(123,946,o),
(350,1135,o),
(857,1135,cs),
(920,1135,o),
(979,1132,o),
(1034,1126,c),
(1070,1222,ls),
(1081,1252,o),
(1088,1280,o),
(1119,1280,cs),
(1147,1280,o),
(1152,1262,o),
(1152,1245,cs),
(1152,1231,o),
(1147,1216,o),
(1142,1202,cs),
(1109,1116,l),
(1440,1059,o),
(1592,874,o),
(1592,557,cs)
);
},
{
closed = 1;
nodes = (
(1010,1062,l),
(962,1067,o),
(911,1069,o),
(857,1069,cs),
(420,1069,o),
(208,929,o),
(208,557,cs),
(208,255,o),
(347,107,o),
(633,61,c)
);
},
{
closed = 1;
nodes = (
(754,47,o),
(804,45,o),
(857,45,cs),
(1294,45,o),
(1507,185,o),
(1507,557,cs),
(1507,857,o),
(1369,1007,o),
(1086,1053,c),
(708,51,l)
);
}
);
userData = {
com.fontlab.hintData = {
hhints = (
{
position = -21;
width = 66;
},
{
position = -2;
width = 63;
},
{
position = 1053;
width = 63;
},
{
position = 1069;
width = 66;
}
);
vhints = (
{
position = 123;
width = 85;
},
{
position = 568;
width = 82;
},
{
position = 1070;
width = 82;
},
{
position = 1507;
width = 85;
}
);
};
};
width = 1715;
}
);
unicode = 216;
},
{
glyphname = Otilde;
lastChange = "2023-04-21 12:17:44 +0000";
layers = (
{
background = {
shapes = (
{
closed = 1;
nodes = (
(208,185,o),
(420,45,o),
(857,45,cs),
(1294,45,o),
(1507,185,o),
(1507,557,cs),
(1507,929,o),
(1294,1069,o),
(857,1069,cs),
(420,1069,o),
(208,929,o),
(208,557,cs)
);
},
{
closed = 1;
nodes = (
(1592,168,o),
(1364,-21,o),
(857,-21,cs),
(350,-21,o),
(123,168,o),
(123,557,cs),
(123,946,o),
(350,1135,o),
(857,1135,cs),
(1364,1135,o),
(1592,946,o),
(1592,557,cs)
);
},
{
closed = 1;
nodes = (
(1024,1325,o),
(1030,1348,o),
(1030,1393,c),
(1093,1393,l),
(1096,1375,o),
(1098,1357,o),
(1098,1338,cs),
(1098,1290,o),
(1062,1257,o),
(999,1257,cs),
(889,1257,o),
(804,1327,o),
(717,1327,cs),
(689,1327,o),
(685,1307,o),
(685,1289,cs),
(685,1279,o),
(686,1270,o),
(686,1262,c),
(623,1262,l),
(619,1279,o),
(617,1298,o),
(617,1317,cs),
(617,1364,o),
(654,1398,o),
(717,1398,cs),
(824,1398,o),
(915,1325,o),
(995,1325,cs)
);
}
);
};
layerId = master01;
shapes = (
{
alignment = -1;
ref = O;
},
{
alignment = -1;
pos = (391,341);
ref = tilde;
}
);
userData = {
com.fontlab.hintData = {
hhints = (
{
position = -21;
width = 66;
},
{
position = 1069;
width = 66;
},
{
position = 1257;
width = 68;
},
{
position = 1327;
width = 71;
}
);
vhints = (
{
position = 123;
width = 85;
},
{
position = 617;
width = 68;
},
{
position = 1030;
width = 68;
},
{
position = 1507;
width = 85;
}
);
};
};
width = 1715;
}
);
unicode = 213;
},
{
glyphname = OE;
lastChange = "2023-04-21 12:17:34 +0000";
layers = (
{
background = {
shapes = (
{
closed = 1;
nodes = (
(1149,1051,o),
(1019,1069,o),
(857,1069,cs),
(420,1069,o),
(208,929,o),
(208,557,cs),
(208,185,o),
(420,45,o),
(857,45,cs),
(1020,45,o),
(1149,64,o),
(1250,107,c),
(1250,1008,l)
);
},
{
closed = 1;
nodes = (
(2276,2.638,o),
(2251.9,-0.116,o),
(2221.41,-0.116,cs),
(2215.16,-0.116,o),
(2208.64,0,o),
(2202,0,cs),
(1289,0,ls),
(1250,0,o),
(1250,0,o),
(1250,34,c),
(1147,-2,o),
(1016,-21,o),
(857,-21,cs),
(350,-21,o),
(123,168,o),
(123,557,cs),
(123,946,o),
(350,1135,o),
(857,1135,cs),
(1015,1135,o),
(1145,1119,o),
(1250,1081,c),
(1250,1117.65,o),
(1253.71,1114,o),
(1287,1114,cs),
(2200,1114,ls),
(2206.64,1114,o),
(2213.16,1114.12,o),
(2219.41,1114.12,cs),
(2249.9,1114.12,o),
(2274,1111.36,o),
(2274,1079,cs),
(2274,1049.57,o),
(2246.16,1047.98,o),
(2212.47,1047.98,cs),
(2208.39,1047.98,o),
(2204.22,1048,o),
(2200,1048,cs),
(1335,1048,l),
(1335,601,l),
(2173,601,ls),
(2179,601,o),
(2184.95,601.075,o),
(2190.72,601.075,cs),
(2221.47,601.075,o),
(2247,598.947,o),
(2247,572,cs),
(2247,543,o),
(2228,539,o),
(2202,539,cs),
(2193,539,o),
(2183,540,o),
(2173,540,cs),
(1335,540,l),
(1335,66,l),
(2202,66,ls),
(2206.22,66,o),
(2210.39,66.023,o),
(2214.47,66.023,cs),
(2248.16,66.023,o),
(2276,64.432,o),
(2276,35,cs)
);
}
);
};
layerId = master01;
shapes = (
{
closed = 1;
nodes = (
(1149,1051,o),
(1019,1069,o),
(857,1069,cs),
(420,1069,o),
(208,929,o),
(208,557,cs),
(208,185,o),
(420,45,o),
(857,45,cs),
(1020,45,o),
(1149,64,o),
(1250,107,c),
(1250,1008,l)
);
},
{
closed = 1;
nodes = (
(2276,2.638,o),
(2251.9,-0.116,o),
(2221.41,-0.116,cs),
(2215.16,-0.116,o),
(2208.64,0,o),
(2202,0,cs),
(1289,0,ls),
(1250,0,o),
(1250,0,o),
(1250,34,c),
(1147,-2,o),
(1016,-21,o),
(857,-21,cs),
(350,-21,o),
(123,168,o),
(123,557,cs),
(123,946,o),
(350,1135,o),
(857,1135,cs),
(1015,1135,o),
(1145,1119,o),
(1250,1081,c),
(1250,1117.65,o),
(1253.71,1114,o),
(1287,1114,cs),
(2200,1114,ls),
(2206.64,1114,o),
(2213.16,1114.12,o),
(2219.41,1114.12,cs),
(2249.9,1114.12,o),
(2274,1111.36,o),
(2274,1079,cs),
(2274,1049.57,o),
(2246.16,1047.98,o),
(2212.47,1047.98,cs),
(2208.39,1047.98,o),
(2204.22,1048,o),
(2200,1048,cs),
(1335,1048,l),
(1335,601,l),
(2173,601,ls),
(2179,601,o),
(2184.95,601.075,o),
(2190.72,601.075,cs),
(2221.47,601.075,o),
(2247,598.947,o),
(2247,572,cs),
(2247,543,o),
(2228,539,o),
(2202,539,cs),
(2193,539,o),
(2183,540,o),
(2173,540,cs),
(1335,540,l),
(1335,66,l),
(2202,66,ls),
(2206.22,66,o),
(2210.39,66.023,o),
(2214.47,66.023,cs),
(2248.16,66.023,o),
(2276,64.432,o),
(2276,35,cs)
);
}
);
userData = {
com.fontlab.hintData = {
hhints = (
{
position = -21;
width = 66;
},
{
position = 0;
width = 66;
},
{
position = 539;
width = 62;
},
{
position = 1048;
width = 66;
},
{
position = 1069;
width = 66;
}
);
vhints = (
{
position = 123;
width = 85;
},
{
position = 1250;
width = 85;
}
);
};
};
width = 2379;
}
);
unicode = 338;
},
{
glyphname = P;
lastChange = "2023-04-21 12:17:34 +0000";
layers = (
{
background = {
shapes = (
{
closed = 1;
nodes = (
(1069,995,o),
(905,1048,o),
(543,1048,cs),
(245,1048,l),
(245,410,l),
(543,410,ls),
(907,410,o),
(1069,437,o),
(1069,717,cs)
);
},
{
closed = 1;
nodes = (
(1154,354,o),
(873,348,o),
(543,348,cs),
(245,348,l),
(245,76,ls),
(245,37,o),
(238,0,o),
(206,0,cs),
(167,0,o),
(160,35,o),
(160,76,cs),
(160,1077,ls),
(160,1116,o),
(172,1114,o),
(211,1114,cs),
(543,1114,ls),
(907,1114,o),
(1154,1065,o),
(1154,717,cs)
);
}
);
};
layerId = master01;
shapes = (
{
closed = 1;
nodes = (
(1069,995,o),
(905,1048,o),
(543,1048,cs),
(245,1048,l),
(245,410,l),
(543,410,ls),
(907,410,o),
(1069,437,o),
(1069,717,cs)
);
},
{
closed = 1;
nodes = (
(1154,354,o),
(873,348,o),
(543,348,cs),
(245,348,l),
(245,76,ls),
(245,37,o),
(238,0,o),
(206,0,cs),
(167,0,o),
(160,35,o),
(160,76,cs),
(160,1077,ls),
(160,1116,o),
(172,1114,o),
(211,1114,cs),
(543,1114,ls),
(907,1114,o),
(1154,1065,o),
(1154,717,cs)
);
}
);
userData = {
com.fontlab.hintData = {
hhints = (
{
position = 0;
width = 21;
},
{
position = 348;
width = 62;
},
{
position = 1048;
width = 66;
}
);
vhints = (
{
position = 160;
width = 85;
},
{
position = 1069;
width = 85;
}
);
};
};
width = 1187;
}
);
unicode = 80;
},
{
glyphname = Thorn;
lastChange = "2023-04-21 12:17:34 +0000";
layers = (
{
background = {
shapes = (
{
closed = 1;
nodes = (
(245,330,l),
(493,330,ls),
(853,330,o),
(909,452,o),
(909,576,cs),
(909,702,o),
(848,828,o),
(493,828,cs),
(245,828,l)
);
},
{
closed = 1;
nodes = (
(245,264,l),
(245,76,ls),
(245,37,o),
(238,0,o),
(206,0,cs),
(167,0,o),
(160,35,o),
(160,76,cs),
(160,1034,ls),
(160,1075,o),
(167,1110,o),
(206,1110,cs),
(238,1110,o),
(245,1073,o),
(245,1034,cs),
(245,894,l),
(493,894,ls),
(901,894,o),
(989,734,o),
(989,575,cs),
(989,419,o),
(906,264,o),
(493,264,cs)
);
}
);
};
layerId = master01;
shapes = (
{
closed = 1;
nodes = (
(245,330,l),
(493,330,ls),
(853,330,o),
(909,452,o),
(909,576,cs),
(909,702,o),
(848,828,o),
(493,828,cs),
(245,828,l)
);
},
{
closed = 1;
nodes = (
(245,264,l),
(245,76,ls),
(245,37,o),
(238,0,o),
(206,0,cs),
(167,0,o),
(160,35,o),
(160,76,cs),
(160,1034,ls),
(160,1075,o),
(167,1110,o),
(206,1110,cs),
(238,1110,o),
(245,1073,o),
(245,1034,cs),
(245,894,l),
(493,894,ls),
(901,894,o),
(989,734,o),
(989,575,cs),
(989,419,o),
(906,264,o),
(493,264,cs)
);
}
);
userData = {
com.fontlab.hintData = {
hhints = (
{
position = 0;
width = 21;
},
{
position = 264;
width = 66;
},
{
position = 828;
width = 66;
}
);
vhints = (
{
position = 160;
width = 85;
},
{
position = 909;
width = 80;
}
);
};
};
width = 1030;
}
);
unicode = 222;
},
{
glyphname = Q;
lastChange = "2023-04-21 12:17:34 +0000";
layers = (
{
background = {
shapes = (
{
closed = 1;
nodes = (
(208,185,o),
(420,45,o),
(857,45,cs),
(894,45,o),
(929,46,o),
(963,48,c),
(951,109,ls),
(948,124,o),
(945,138,o),
(945,150,cs),
(945,168,o),
(953,187,o),
(981,187,cs),
(1009,187,o),
(1015,158,o),
(1021,126,cs),
(1035,54,l),
(1352,91,o),
(1507,240,o),
(1507,557,cs),
(1507,929,o),
(1294,1069,o),
(857,1069,cs),
(420,1069,o),
(208,929,o),
(208,557,cs)
);
},
{
closed = 1;
nodes = (
(1592,221,o),
(1422,34,o),
(1049,-10,c),
(1074,-133,ls),
(1077,-149,o),
(1080,-164,o),
(1080,-176,cs),
(1080,-195,o),
(1072,-209,o),
(1045,-209,cs),
(1016,-209,o),
(1010,-180,o),
(1004,-150,cs),
(977,-17,l),
(939,-19,o),
(899,-21,o),
(857,-21,cs),
(350,-21,o),
(123,168,o),
(123,557,cs),
(123,946,o),
(350,1135,o),
(857,1135,cs),
(1364,1135,o),
(1592,946,o),
(1592,557,cs)
);
}
);
};
layerId = master01;
shapes = (
{
closed = 1;
nodes = (
(208,185,o),
(420,45,o),
(857,45,cs),
(894,45,o),
(929,46,o),
(963,48,c),
(951,109,ls),
(948,124,o),
(945,138,o),
(945,150,cs),
(945,168,o),
(953,187,o),
(981,187,cs),
(1009,187,o),
(1015,158,o),
(1021,126,cs),
(1035,54,l),
(1352,91,o),
(1507,240,o),
(1507,557,cs),
(1507,929,o),
(1294,1069,o),
(857,1069,cs),
(420,1069,o),
(208,929,o),
(208,557,cs)
);
},
{
closed = 1;
nodes = (
(1592,221,o),
(1422,34,o),
(1049,-10,c),
(1074,-133,ls),
(1077,-149,o),
(1080,-164,o),
(1080,-176,cs),
(1080,-195,o),
(1072,-209,o),
(1045,-209,cs),
(1016,-209,o),
(1010,-180,o),
(1004,-150,cs),
(977,-17,l),
(939,-19,o),
(899,-21,o),
(857,-21,cs),
(350,-21,o),
(123,168,o),
(123,557,cs),
(123,946,o),
(350,1135,o),
(857,1135,cs),
(1364,1135,o),
(1592,946,o),
(1592,557,cs)
);
}
);
userData = {
com.fontlab.hintData = {
hhints = (
{
position = -21;
width = 66;
},
{
position = 1069;
width = 66;
}
);
vhints = (
{
position = 123;
width = 85;
},
{
position = 1507;
width = 85;
}
);
};
};
width = 1715;
}
);
unicode = 81;
},
{
glyphname = R;
lastChange = "2023-04-21 12:17:34 +0000";
layers = (
{
background = {
shapes = (
{
closed = 1;
nodes = (
(1056,1033,o),
(858,1048,o),
(488,1048,cs),
(246,1048,l),
(246,518,l),
(621,518,ls),
(853,518,o),
(1056,548,o),
(1056,768,cs)
);
},
{
closed = 1;
nodes = (
(1141,525,o),
(912,464,o),
(718,456,c),
(1086,69,ls),
(1098,57,o),
(1103,45,o),
(1103,33,cs),
(1103,15,o),
(1089,0,o),
(1069,0,cs),
(1055,0,o),
(1037,6,o),
(1021,24,cs),
(620,452,l),
(246,452,l),
(246,76,ls),
(246,37,o),
(240,0,o),
(208,0,cs),
(169,0,o),
(161,35,o),
(161,76,cs),
(161,1077,ls),
(161,1116,o),
(159,1114,o),
(198,1114,cs),
(488,1114,ls),
(860,1114,o),
(1141,1106,o),
(1141,768,cs)
);
}
);
};
layerId = master01;
shapes = (
{
closed = 1;
nodes = (
(1056,1033,o),
(858,1048,o),
(488,1048,cs),
(246,1048,l),
(246,518,l),
(621,518,ls),
(853,518,o),
(1056,548,o),
(1056,768,cs)
);
},
{
closed = 1;
nodes = (
(1141,525,o),
(912,464,o),
(718,456,c),
(1086,69,ls),
(1098,57,o),
(1103,45,o),
(1103,33,cs),
(1103,15,o),
(1089,0,o),
(1069,0,cs),
(1055,0,o),
(1037,6,o),
(1021,24,cs),
(620,452,l),
(246,452,l),
(246,76,ls),
(246,37,o),
(240,0,o),
(208,0,cs),
(169,0,o),
(161,35,o),
(161,76,cs),
(161,1077,ls),
(161,1116,o),
(159,1114,o),
(198,1114,cs),
(488,1114,ls),
(860,1114,o),
(1141,1106,o),
(1141,768,cs)
);
}
);
userData = {
com.fontlab.hintData = {
hhints = (
{
position = 0;
width = 21;
},
{
position = 452;
width = 66;
},
{
position = 1048;
width = 66;
}
);
vhints = (
{
position = 161;
width = 85;
},
{
position = 1056;
width = 85;
}
);
};
};
width = 1256;
}
);
unicode = 82;
},
{
glyphname = Racute;
lastChange = "2023-04-21 12:17:44 +0000";
layers = (
{
background = {
shapes = (
{
closed = 1;
nodes = (
(1056,1033,o),
(858,1048,o),
(488,1048,cs),
(246,1048,l),
(246,518,l),
(621,518,ls),
(853,518,o),
(1056,548,o),
(1056,768,cs)
);
},
{
closed = 1;
nodes = (
(1141,525,o),
(912,464,o),
(718,456,c),
(1086,69,ls),
(1098,57,o),
(1103,45,o),
(1103,33,cs),
(1103,15,o),
(1089,0,o),
(1069,0,cs),
(1055,0,o),
(1037,6,o),
(1021,24,cs),
(620,452,l),
(246,452,l),
(246,76,ls),
(246,37,o),
(240,0,o),
(208,0,cs),
(169,0,o),
(161,35,o),
(161,76,cs),
(161,1077,ls),
(161,1116,o),
(159,1114,o),
(198,1114,cs),
(488,1114,ls),
(860,1114,o),
(1141,1106,o),
(1141,768,cs)
);
},
{
closed = 1;
nodes = (
(876,1577,ls),
(883,1584,o),
(892,1588,o),
(901,1588,cs),
(930,1588,o),
(965,1556,o),
(965,1527,cs),
(965,1516,o),
(960,1507,o),
(950,1499,cs),
(658,1262,ls),
(654,1259,o),
(649,1257,o),
(643,1257,cs),
(628,1257,o),
(616,1268,o),
(616,1283,cs),
(616,1290,o),
(619,1296,o),
(624,1301,cs)
);
}
);
};
layerId = master01;
shapes = (
{
alignment = -1;
ref = R;
},
{
alignment = -1;
pos = (601,300);
ref = acute;
}
);
userData = {
com.fontlab.hintData = {
hhints = (
{
position = 0;
width = 21;
},
{
position = 452;
width = 66;
},
{
position = 1048;
width = 66;
},
{
position = 1257;
width = 331;
}
);
vhints = (
{
position = 161;
width = 85;
},
{
position = 616;
width = 349;
},
{
position = 1056;
width = 85;
}
);
};
};
width = 1256;
}
);
unicode = 340;
},
{
glyphname = Rcaron;
lastChange = "2023-04-21 12:17:44 +0000";
layers = (
{
background = {
shapes = (
{
closed = 1;
nodes = (
(1056,1033,o),
(858,1048,o),
(488,1048,cs),
(246,1048,l),
(246,518,l),
(621,518,ls),
(853,518,o),
(1056,548,o),
(1056,768,cs)
);
},
{
closed = 1;
nodes = (
(1141,525,o),
(912,464,o),
(718,456,c),
(1086,69,ls),
(1098,57,o),
(1103,45,o),
(1103,33,cs),
(1103,15,o),
(1089,0,o),
(1069,0,cs),
(1055,0,o),
(1037,6,o),
(1021,24,cs),
(620,452,l),
(246,452,l),
(246,76,ls),
(246,37,o),
(240,0,o),
(208,0,cs),
(169,0,o),
(161,35,o),
(161,76,cs),
(161,1077,ls),
(161,1116,o),
(159,1114,o),
(198,1114,cs),
(488,1114,ls),
(860,1114,o),
(1141,1106,o),
(1141,768,cs)
);
},
{
closed = 1;
nodes = (
(651,1312,l),
(781,1530,l),
(857,1530,l),
(704,1295,ls),
(687,1270,o),
(667,1257,o),
(651,1257,cs),
(632,1257,o),
(614,1270,o),
(598,1295,cs),
(445,1530,l),
(521,1530,l)
);
}
);
};
layerId = master01;
shapes = (
{
alignment = -1;
ref = R;
},
{
alignment = -1;
pos = (372,282);
ref = caron;
}
);
userData = {
com.fontlab.hintData = {
hhints = (
{
position = 0;
width = 21;
},
{
position = 452;
width = 66;
},
{
position = 1048;
width = 66;
},
{
position = 1257;
width = 273;
}
);
vhints = (
{
position = 161;
width = 85;
},
{
position = 445;
width = 412;
},
{
position = 1056;
width = 85;
}
);
};
};
width = 1256;
}
);
unicode = 344;
},
{
glyphname = Rcommaaccent;
lastChange = "2023-04-21 12:17:44 +0000";
layers = (
{
background = {
shapes = (
{
closed = 1;
nodes = (
(1056,1033,o),
(858,1048,o),
(488,1048,cs),
(246,1048,l),
(246,518,l),
(621,518,ls),
(853,518,o),
(1056,548,o),
(1056,768,cs)
);
},
{
closed = 1;
nodes = (
(1141,525,o),
(912,464,o),
(718,456,c),
(1086,69,ls),
(1098,57,o),
(1103,45,o),
(1103,33,cs),
(1103,15,o),
(1089,0,o),
(1069,0,cs),
(1055,0,o),
(1037,6,o),
(1021,24,cs),
(620,452,l),
(246,452,l),
(246,76,ls),
(246,37,o),
(240,0,o),
(208,0,cs),
(169,0,o),
(161,35,o),
(161,76,cs),
(161,1077,ls),
(161,1116,o),
(159,1114,o),
(198,1114,cs),
(488,1114,ls),
(860,1114,o),
(1141,1106,o),
(1141,768,cs)
);
},
{
closed = 1;
nodes = (
(575,-315,l),
(624,-315,o),
(638,-287,o),
(638,-248,c),
(616,-241,o),
(589,-221,o),
(589,-181,cs),
(589,-142,o),
(621,-122,o),
(659,-122,cs),
(690,-122,o),
(727,-146,o),
(727,-196,cs),
(727,-264,o),
(677,-351,o),
(575,-351,c)
);
}
);
};
layerId = master01;
shapes = (
{
ref = R;
},
{
pos = (450.991,-27);
ref = commaaccentcomb;
}
);
userData = {
com.fontlab.hintData = {
hhints = (
{
position = -351;
width = 36;
},
{
position = 0;
width = 21;
},
{
position = 452;
width = 66;
},
{
position = 1048;
width = 66;
}
);
vhints = (
{
position = 161;
width = 85;
},
{
position = 638;
width = 89;
},
{
position = 1056;
width = 85;
}
);
};
};
width = 1256;
}
);
unicode = 342;
},
{
glyphname = Rdblgrave;
lastChange = "2023-04-21 12:21:45 +0000";
layers = (
{
background = {
shapes = (
{
closed = 1;
nodes = (
(1056,1033,o),
(858,1048,o),
(488,1048,cs),
(246,1048,l),
(246,518,l),
(621,518,ls),
(853,518,o),
(1056,548,o),
(1056,768,cs)
);
},
{
closed = 1;
nodes = (
(1141,525,o),
(912,464,o),
(718,456,c),
(1086,69,ls),
(1098,57,o),
(1103,45,o),
(1103,33,cs),
(1103,15,o),
(1089,0,o),
(1069,0,cs),
(1055,0,o),
(1037,6,o),
(1021,24,cs),
(620,452,l),
(246,452,l),
(246,76,ls),
(246,37,o),
(240,0,o),
(208,0,cs),
(169,0,o),
(161,35,o),
(161,76,cs),
(161,1077,ls),
(161,1116,o),
(159,1114,o),
(198,1114,cs),
(488,1114,ls),
(860,1114,o),
(1141,1106,o),
(1141,768,cs)
);
},
{
closed = 1;
nodes = (
(791,1301,ls),
(796,1296,o),
(799,1290,o),
(799,1283,cs),
(799,1268,o),
(787,1257,o),
(772,1257,cs),
(766,1257,o),
(761,1259,o),
(757,1262,cs),
(465,1499,ls),
(455,1507,o),
(450,1516,o),
(450,1527,cs),
(450,1551,o),
(480,1578,o),
(504,1578,cs),
(513,1578,o),
(522,1574,o),
(529,1567,cs)
);
},
{
closed = 1;
nodes = (
(563,1301,ls),
(568,1296,o),
(571,1290,o),
(571,1283,cs),
(571,1268,o),
(559,1257,o),
(544,1257,cs),
(538,1257,o),
(533,1259,o),
(529,1262,cs),
(237,1499,ls),
(227,1507,o),
(222,1516,o),
(222,1527,cs),
(222,1551,o),
(252,1578,o),
(276,1578,cs),
(285,1578,o),
(294,1574,o),
(301,1567,cs)
);
}
);
};
layerId = master01;
shapes = (
{
ref = R;
},
{
pos = (444.491,296);
ref = dblgravecomb;
}
);
userData = {
com.fontlab.hintData = {
hhints = (
{
position = 0;
width = 21;
},
{
position = 452;
width = 66;
},
{
position = 1048;
width = 66;
},
{
position = 1257;
width = 321;
}
);
vhints = (
{
position = 161;
width = 85;
},
{
position = 222;
width = 577;
},
{
position = 1056;
width = 85;
}
);
};
};
width = 1256;
}
);
unicode = 528;
},
{
glyphname = Rinvertedbreve;
lastChange = "2023-04-21 12:21:45 +0000";
layers = (
{
background = {
shapes = (
{
closed = 1;
nodes = (
(1056,1033,o),
(858,1048,o),
(488,1048,cs),
(246,1048,l),
(246,518,l),
(621,518,ls),
(853,518,o),
(1056,548,o),
(1056,768,cs)
);
},
{
closed = 1;
nodes = (
(1141,525,o),
(912,464,o),
(718,456,c),
(1086,69,ls),
(1098,57,o),
(1103,45,o),
(1103,33,cs),
(1103,15,o),
(1089,0,o),
(1069,0,cs),
(1055,0,o),
(1037,6,o),
(1021,24,cs),
(620,452,l),
(246,452,l),
(246,76,ls),
(246,37,o),
(240,0,o),
(208,0,cs),
(169,0,o),
(161,35,o),
(161,76,cs),
(161,1077,ls),
(161,1116,o),
(159,1114,o),
(198,1114,cs),
(488,1114,ls),
(860,1114,o),
(1141,1106,o),
(1141,768,cs)
);
},
{
closed = 1;
nodes = (
(789,1257,l),
(784,1312,o),
(756,1381,o),
(651,1381,cs),
(543,1381,o),
(515,1311,o),
(513,1257,c),
(466,1257,l),
(466,1330,o),
(485,1443,o),
(651,1443,cs),
(812,1443,o),
(836,1337,o),
(836,1257,c)
);
}
);
};
layerId = master01;
shapes = (
{
ref = R;
},
{
pos = (291.991,268);
ref = breveinvertedcomb;
}
);
userData = {
com.fontlab.hintData = {
hhints = (
{
position = 0;
width = 21;
},
{
position = 452;
width = 66;
},
{
position = 1048;
width = 66;
},
{
position = 1381;
width = 62;
}
);
vhints = (
{
position = 161;
width = 85;
},
{
position = 466;
width = 47;
},
{
position = 789;
width = 47;
},
{
position = 1056;
width = 85;
}
);
};
};
width = 1256;
}
);
unicode = 530;
},
{
glyphname = S;
lastChange = "2023-04-21 12:17:34 +0000";
layers = (
{
background = {
shapes = (
{
closed = 1;
nodes = (
(1427,55,o),
(1135,-20,o),
(829,-20,cs),
(545,-20,o),
(244,45,o),
(149,90,cs),
(130,99,o),
(122,114,o),
(122,129,cs),
(122,145,o),
(131,158,o),
(148,158,cs),
(152,158,o),
(157,157,o),
(162,155,cs),
(266,112,o),
(570,46,o),
(844,46,cs),
(1110,46,o),
(1342,110,o),
(1342,311,cs),
(1342,730,o),
(110,349,o),
(110,815,cs),
(110,1072,o),
(414,1135,o),
(716,1135,cs),
(963,1135,o),
(1209,1084,o),
(1311,1036,cs),
(1322,1031,o),
(1327,1020,o),
(1327,1009,cs),
(1327,990,o),
(1314,971,o),
(1291,971,cs),
(1285,971,o),
(1279,972,o),
(1274,975,cs),
(1134,1033,o),
(921,1069,o),
(720,1069,cs),
(443,1069,o),
(195,1012,o),
(195,821,cs),
(195,455,o),
(1427,814,o),
(1427,311,cs)
);
}
);
};
layerId = master01;
shapes = (
{
closed = 1;
nodes = (
(1427,55,o),
(1135,-20,o),
(829,-20,cs),
(545,-20,o),
(244,45,o),
(149,90,cs),
(130,99,o),
(122,114,o),
(122,129,cs),
(122,145,o),
(131,158,o),
(148,158,cs),
(152,158,o),
(157,157,o),
(162,155,cs),
(266,112,o),
(570,46,o),
(844,46,cs),
(1110,46,o),
(1342,110,o),
(1342,311,cs),
(1342,730,o),
(110,349,o),
(110,815,cs),
(110,1072,o),
(414,1135,o),
(716,1135,cs),
(963,1135,o),
(1209,1084,o),
(1311,1036,cs),
(1322,1031,o),
(1327,1020,o),
(1327,1009,cs),
(1327,990,o),
(1314,971,o),
(1291,971,cs),
(1285,971,o),
(1279,972,o),
(1274,975,cs),
(1134,1033,o),
(921,1069,o),
(720,1069,cs),
(443,1069,o),
(195,1012,o),
(195,821,cs),
(195,455,o),
(1427,814,o),
(1427,311,cs)
);
}
);
userData = {
com.fontlab.hintData = {
hhints = (
{
position = -20;
width = 66;
},
{
position = 1069;
width = 66;
}
);
vhints = (
{
position = 110;
width = 85;
},
{
position = 1342;
width = 85;
}
);
};
};
width = 1540;
}
);
unicode = 83;
},
{
glyphname = Sacute;
lastChange = "2023-04-21 12:17:44 +0000";
layers = (
{
background = {
shapes = (
{
closed = 1;
nodes = (
(1427,55,o),
(1135,-20,o),
(829,-20,cs),
(545,-20,o),
(244,45,o),
(149,90,cs),
(130,99,o),
(122,114,o),
(122,129,cs),
(122,145,o),
(131,158,o),
(148,158,cs),
(152,158,o),
(157,157,o),
(162,155,cs),
(266,112,o),
(570,46,o),
(844,46,cs),
(1110,46,o),
(1342,110,o),
(1342,311,cs),
(1342,730,o),
(110,349,o),
(110,815,cs),
(110,1072,o),
(414,1135,o),
(716,1135,cs),
(963,1135,o),
(1209,1084,o),
(1311,1036,cs),
(1322,1031,o),
(1327,1020,o),
(1327,1009,cs),
(1327,990,o),
(1314,971,o),
(1291,971,cs),
(1285,971,o),
(1279,972,o),
(1274,975,cs),
(1134,1033,o),
(921,1069,o),
(720,1069,cs),
(443,1069,o),
(195,1012,o),
(195,821,cs),
(195,455,o),
(1427,814,o),
(1427,311,cs)
);
},
{
closed = 1;
nodes = (
(994,1577,ls),
(1001,1584,o),
(1010,1588,o),
(1019,1588,cs),
(1048,1588,o),
(1083,1556,o),
(1083,1527,cs),
(1083,1516,o),
(1078,1507,o),
(1068,1499,cs),
(776,1262,ls),
(772,1259,o),
(767,1257,o),
(761,1257,cs),
(746,1257,o),
(734,1268,o),
(734,1283,cs),
(734,1290,o),
(737,1296,o),
(742,1301,cs)
);
}
);
};
layerId = master01;
shapes = (
{
alignment = -1;
ref = S;
},
{
alignment = -1;
pos = (719,300);
ref = acute;
}
);
userData = {
com.fontlab.hintData = {
hhints = (
{
position = -20;
width = 66;
},
{
position = 1069;
width = 66;
},
{
position = 1257;
width = 331;
}
);
vhints = (
{
position = 110;
width = 85;
},
{
position = 734;
width = 349;
},
{
position = 1342;
width = 85;
}
);
};
};
width = 1540;
}
);
unicode = 346;
},
{
glyphname = Scaron;
lastChange = "2023-04-21 12:17:44 +0000";
layers = (
{
background = {
shapes = (
{
closed = 1;
nodes = (
(1427,55,o),
(1135,-20,o),
(829,-20,cs),
(545,-20,o),
(244,45,o),
(149,90,cs),
(130,99,o),
(122,114,o),
(122,129,cs),
(122,145,o),
(131,158,o),
(148,158,cs),
(152,158,o),
(157,157,o),
(162,155,cs),
(266,112,o),
(570,46,o),
(844,46,cs),
(1110,46,o),
(1342,110,o),
(1342,311,cs),
(1342,730,o),
(110,349,o),
(110,815,cs),
(110,1072,o),
(414,1135,o),
(716,1135,cs),
(963,1135,o),
(1209,1084,o),
(1311,1036,cs),
(1322,1031,o),
(1327,1020,o),
(1327,1009,cs),
(1327,990,o),
(1314,971,o),
(1291,971,cs),
(1285,971,o),
(1279,972,o),
(1274,975,cs),
(1134,1033,o),
(921,1069,o),
(720,1069,cs),
(443,1069,o),
(195,1012,o),
(195,821,cs),
(195,455,o),
(1427,814,o),
(1427,311,cs)
);
},
{
closed = 1;
nodes = (
(769,1312,l),
(899,1530,l),
(975,1530,l),
(822,1295,ls),
(805,1270,o),
(785,1257,o),
(769,1257,cs),
(750,1257,o),
(732,1270,o),
(716,1295,cs),
(563,1530,l),
(639,1530,l)
);
}
);
};
layerId = master01;
shapes = (
{
alignment = -1;
ref = S;
},
{
alignment = -1;
pos = (490,282);
ref = caron;
}
);
userData = {
com.fontlab.hintData = {
hhints = (
{
position = -20;
width = 66;
},
{
position = 1069;
width = 66;
},
{
position = 1257;
width = 273;
}
);
vhints = (
{
position = 110;
width = 85;
},
{
position = 562;
width = 412;
},
{
position = 1342;
width = 85;
}
);
};
};
width = 1540;
}
);
unicode = 352;
},
{
glyphname = Scedilla;
lastChange = "2023-04-21 12:17:44 +0000";
layers = (
{
background = {
shapes = (
{
closed = 1;
nodes = (
(1427,55,o),
(1135,-20,o),
(829,-20,cs),
(545,-20,o),
(244,45,o),
(149,90,cs),
(130,99,o),
(122,114,o),
(122,129,cs),
(122,145,o),
(131,158,o),
(148,158,cs),
(152,158,o),
(157,157,o),
(162,155,cs),
(266,112,o),
(570,46,o),
(844,46,cs),
(1110,46,o),
(1342,110,o),
(1342,311,cs),
(1342,730,o),
(110,349,o),
(110,815,cs),
(110,1072,o),
(414,1135,o),
(716,1135,cs),
(963,1135,o),
(1209,1084,o),
(1311,1036,cs),
(1322,1031,o),
(1327,1020,o),
(1327,1009,cs),
(1327,990,o),
(1314,971,o),
(1291,971,cs),
(1285,971,o),
(1279,972,o),
(1274,975,cs),
(1134,1033,o),
(921,1069,o),
(720,1069,cs),
(443,1069,o),
(195,1012,o),
(195,821,cs),
(195,455,o),
(1427,814,o),
(1427,311,cs)
);
},
{
closed = 1;
nodes = (
(743,-27,ls),
(752,-14,o),
(760,-8,o),
(769,-8,cs),
(780,-8,o),
(787,-18,o),
(787,-30,cs),
(787,-35,o),
(786,-40,o),
(783,-45,cs),
(617,-335,ls),
(606,-354,o),
(593,-361,o),
(578,-361,cs),
(559,-361,o),
(544,-347,o),
(544,-328,cs),
(544,-319,o),
(547,-310,o),
(554,-301,cs)
);
}
);
};
layerId = master01;
shapes = (
{
alignment = -1;
ref = S;
},
{
alignment = -1;
pos = (533,-37);
ref = cedilla;
}
);
userData = {
com.fontlab.hintData = {
hhints = (
{
position = -361;
width = 353;
},
{
position = -20;
width = 66;
},
{
position = 1069;
width = 66;
}
);
vhints = (
{
position = 110;
width = 85;
},
{
position = 544;
width = 243;
},
{
position = 1342;
width = 85;
}
);
};
};
width = 1540;
}
);
unicode = 350;
},
{
glyphname = Scommaaccent;
lastChange = "2023-04-21 12:17:44 +0000";
layers = (
{
background = {
shapes = (
{
closed = 1;
nodes = (
(1427,55,o),
(1135,-20,o),
(829,-20,cs),
(545,-20,o),
(244,45,o),
(149,90,cs),
(130,99,o),
(122,114,o),
(122,129,cs),
(122,145,o),
(131,158,o),
(148,158,cs),
(152,158,o),
(157,157,o),
(162,155,cs),
(266,112,o),
(570,46,o),
(844,46,cs),
(1110,46,o),
(1342,110,o),
(1342,311,cs),
(1342,730,o),
(110,349,o),
(110,815,cs),
(110,1072,o),
(414,1135,o),
(716,1135,cs),
(963,1135,o),
(1209,1084,o),
(1311,1036,cs),
(1322,1031,o),
(1327,1020,o),
(1327,1009,cs),
(1327,990,o),
(1314,971,o),
(1291,971,cs),
(1285,971,o),
(1279,972,o),
(1274,975,cs),
(1134,1033,o),
(921,1069,o),
(720,1069,cs),
(443,1069,o),
(195,1012,o),
(195,821,cs),
(195,455,o),
(1427,814,o),
(1427,311,cs)
);
},
{
closed = 1;
nodes = (
(693,-335,l),
(742,-335,o),
(756,-307,o),
(756,-268,c),
(734,-261,o),
(707,-241,o),
(707,-201,cs),
(707,-162,o),
(739,-142,o),
(777,-142,cs),
(808,-142,o),
(845,-166,o),
(845,-216,cs),
(845,-284,o),
(795,-371,o),
(693,-371,c)
);
}
);
};
layerId = master01;
shapes = (
{
ref = S;
},
{
pos = (568.5,-47);
ref = commaaccentcomb;
}
);
userData = {
com.fontlab.hintData = {
hhints = (
{
position = -371;
width = 36;
},
{
position = -20;
width = 66;
},
{
position = 1069;
width = 66;
}
);
vhints = (
{
position = 110;
width = 85;
},
{
position = 756;
width = 89;
},
{
position = 1342;
width = 85;
}
);
};
};
width = 1540;
}
);
unicode = 536;
},
{
glyphname = T;
lastChange = "2023-04-21 12:17:34 +0000";
layers = (
{
background = {
shapes = (
{
closed = 1;
nodes = (
(1325,1044,o),
(1292,1048,o),
(1253,1048,cs),
(716,1048,l),
(716,74,ls),
(716,35,o),
(713,0,o),
(674,0,cs),
(639,0,o),
(631,35,o),
(631,74,cs),
(631,1048,l),
(92,1048,ls),
(55,1048,o),
(18,1044,o),
(18,1077,cs),
(18,1116,o),
(59,1114,o),
(92,1114,cs),
(1253,1114,ls),
(1292,1114,o),
(1325,1116,o),
(1325,1077,cs)
);
}
);
};
layerId = master01;
shapes = (
{
closed = 1;
nodes = (
(1325,1044,o),
(1292,1048,o),
(1253,1048,cs),
(716,1048,l),
(716,74,ls),
(716,35,o),
(713,0,o),
(674,0,cs),
(639,0,o),
(631,35,o),
(631,74,cs),
(631,1048,l),
(92,1048,ls),
(55,1048,o),
(18,1044,o),
(18,1077,cs),
(18,1116,o),
(59,1114,o),
(92,1114,cs),
(1253,1114,ls),
(1292,1114,o),
(1325,1116,o),
(1325,1077,cs)
);
}
);
userData = {
com.fontlab.hintData = {
hhints = (
{
position = 0;
width = 21;
},
{
position = 1048;
width = 66;
}
);
vhints = (
{
position = 631;
width = 85;
}
);
};
};
width = 1343;
}
);
unicode = 84;
},
{
glyphname = Tcaron;
lastChange = "2023-04-21 12:17:44 +0000";
layers = (
{
background = {
shapes = (
{
closed = 1;
nodes = (
(1325,1044,o),
(1292,1048,o),
(1253,1048,cs),
(716,1048,l),
(716,74,ls),
(716,35,o),
(713,0,o),
(674,0,cs),
(639,0,o),
(631,35,o),
(631,74,cs),
(631,1048,l),
(92,1048,ls),
(55,1048,o),
(18,1044,o),
(18,1077,cs),
(18,1116,o),
(59,1114,o),
(92,1114,cs),
(1253,1114,ls),
(1292,1114,o),
(1325,1116,o),
(1325,1077,cs)
);
},
{
closed = 1;
nodes = (
(672,1312,l),
(802,1530,l),
(878,1530,l),
(725,1295,ls),
(708,1270,o),
(688,1257,o),
(672,1257,cs),
(653,1257,o),
(635,1270,o),
(619,1295,cs),
(466,1530,l),
(542,1530,l)
);
}
);
};
layerId = master01;
shapes = (
{
alignment = -1;
ref = T;
},
{
alignment = -1;
pos = (393,282);
ref = caron;
}
);
userData = {
com.fontlab.hintData = {
hhints = (
{
position = 0;
width = 21;
},
{
position = 1048;
width = 66;
},
{
position = 1257;
width = 273;
}
);
vhints = (
{
position = 466;
width = 412;
},
{
position = 631;
width = 85;
}
);
};
};
width = 1343;
}
);
unicode = 356;
},
{
glyphname = Tcedilla;
lastChange = "2023-04-21 12:21:45 +0000";
layers = (
{
background = {
shapes = (
{
closed = 1;
nodes = (
(1325,1044,o),
(1292,1048,o),
(1253,1048,cs),
(716,1048,l),
(716,74,ls),
(716,35,o),
(713,0,o),
(674,0,cs),
(639,0,o),
(631,35,o),
(631,74,cs),
(631,1048,l),
(92,1048,ls),
(55,1048,o),
(18,1044,o),
(18,1077,cs),
(18,1116,o),
(59,1114,o),
(92,1114,cs),
(1253,1114,ls),
(1292,1114,o),
(1325,1116,o),
(1325,1077,cs)
);
},
{
closed = 1;
nodes = (
(646,-7,ls),
(655,6,o),
(663,12,o),
(672,12,cs),
(683,12,o),
(690,2,o),
(690,-10,cs),
(690,-15,o),
(689,-20,o),
(686,-25,cs),
(520,-315,ls),
(509,-334,o),
(496,-341,o),
(481,-341,cs),
(462,-341,o),
(447,-327,o),
(447,-308,cs),
(447,-299,o),
(450,-290,o),
(457,-281,cs)
);
}
);
};
layerId = master01;
shapes = (
{
alignment = -1;
ref = T;
},
{
alignment = -1;
pos = (436,-17);
ref = cedilla;
}
);
userData = {
com.fontlab.hintData = {
hhints = (
{
position = -341;
width = 353;
},
{
position = 0;
width = 21;
},
{
position = 1048;
width = 66;
}
);
vhints = (
{
position = 446;
width = 243;
},
{
position = 631;
width = 85;
}
);
};
};
width = 1343;
}
);
unicode = 354;
},
{
glyphname = Tcommaaccent;
lastChange = "2023-04-21 12:21:45 +0000";
layers = (
{
background = {
shapes = (
{
closed = 1;
nodes = (
(1325,1044,o),
(1292,1048,o),
(1253,1048,cs),
(716,1048,l),
(716,74,ls),
(716,35,o),
(713,0,o),
(674,0,cs),
(639,0,o),
(631,35,o),
(631,74,cs),
(631,1048,l),
(92,1048,ls),
(55,1048,o),
(18,1044,o),
(18,1077,cs),
(18,1116,o),
(59,1114,o),
(92,1114,cs),
(1253,1114,ls),
(1292,1114,o),
(1325,1116,o),
(1325,1077,cs)
);
},
{
closed = 1;
nodes = (
(600,-288,l),
(649,-288,o),
(663,-260,o),
(663,-221,c),
(641,-214,o),
(614,-194,o),
(614,-154,cs),
(614,-115,o),
(646,-95,o),
(684,-95,cs),
(715,-95,o),
(752,-119,o),
(752,-169,cs),
(752,-237,o),
(702,-324,o),
(600,-324,c)
);
}
);
};
layerId = master01;
shapes = (
{
ref = T;
},
{
pos = (515,-200);
ref = comma;
}
);
userData = {
com.fontlab.hintData = {
hhints = (
{
position = -324;
width = 36;
},
{
position = 0;
width = 21;
},
{
position = 1048;
width = 66;
}
);
vhints = (
{
position = 631;
width = 85;
},
{
position = 663;
width = 89;
}
);
};
};
width = 1343;
}
);
unicode = 538;
},
{
glyphname = U;
lastChange = "2023-04-21 12:17:34 +0000";
layers = (
{
background = {
shapes = (
{
closed = 1;
nodes = (
(1230,45,o),
(1360,212,o),
(1360,560,cs),
(1360,1044,ls),
(1360,1079,o),
(1368,1114,o),
(1401,1114,cs),
(1440,1114,o),
(1445,1079,o),
(1445,1044,cs),
(1445,560,ls),
(1445,143,o),
(1230,-21,o),
(794,-21,cs),
(358,-21,o),
(141,143,o),
(141,560,cs),
(141,1044,ls),
(141,1079,o),
(147,1114,o),
(186,1114,cs),
(219,1114,o),
(226,1079,o),
(226,1044,cs),
(226,560,ls),
(226,212,o),
(358,45,o),
(794,45,cs)
);
}
);
};
layerId = master01;
shapes = (
{
closed = 1;
nodes = (
(1230,45,o),
(1360,212,o),
(1360,560,cs),
(1360,1044,ls),
(1360,1079,o),
(1368,1114,o),
(1401,1114,cs),
(1440,1114,o),
(1445,1079,o),
(1445,1044,cs),
(1445,560,ls),
(1445,143,o),
(1230,-21,o),
(794,-21,cs),
(358,-21,o),
(141,143,o),
(141,560,cs),
(141,1044,ls),
(141,1079,o),
(147,1114,o),
(186,1114,cs),
(219,1114,o),
(226,1079,o),
(226,1044,cs),
(226,560,ls),
(226,212,o),
(358,45,o),
(794,45,cs)
);
}
);
userData = {
com.fontlab.hintData = {
hhints = (
{
position = -21;
width = 66;
},
{
position = 1094;
width = 20;
}
);
vhints = (
{
position = 141;
width = 85;
},
{
position = 1360;
width = 85;
}
);
};
};
width = 1586;
}
);
unicode = 85;
},
{
glyphname = Uacute;
lastChange = "2023-04-21 12:17:44 +0000";
layers = (
{
background = {
shapes = (
{
closed = 1;
nodes = (
(1230,45,o),
(1360,212,o),
(1360,560,cs),
(1360,1044,ls),
(1360,1079,o),
(1368,1114,o),
(1401,1114,cs),
(1440,1114,o),
(1445,1079,o),
(1445,1044,cs),
(1445,560,ls),
(1445,143,o),
(1230,-21,o),
(794,-21,cs),
(358,-21,o),
(141,143,o),
(141,560,cs),
(141,1044,ls),
(141,1079,o),
(147,1114,o),
(186,1114,cs),
(219,1114,o),
(226,1079,o),
(226,1044,cs),
(226,560,ls),
(226,212,o),
(358,45,o),
(794,45,cs)
);
},
{
closed = 1;
nodes = (
(1019,1577,ls),
(1026,1584,o),
(1035,1588,o),
(1044,1588,cs),
(1073,1588,o),
(1108,1556,o),
(1108,1527,cs),
(1108,1516,o),
(1103,1507,o),
(1093,1499,cs),
(801,1262,ls),
(797,1259,o),
(792,1257,o),
(786,1257,cs),
(771,1257,o),
(759,1268,o),
(759,1283,cs),
(759,1290,o),
(762,1296,o),
(767,1301,cs)
);
}
);
};
layerId = master01;
shapes = (
{
alignment = -1;
ref = U;
},
{
alignment = -1;
pos = (744,300);
ref = acute;
}
);
userData = {
com.fontlab.hintData = {
hhints = (
{
position = -21;
width = 66;
},
{
position = 1094;
width = 20;
},
{
position = 1257;
width = 331;
}
);
vhints = (
{
position = 141;
width = 85;
},
{
position = 758;
width = 349;
},
{
position = 1360;
width = 85;
}
);
};
};
width = 1586;
}
);
unicode = 218;
},
{
glyphname = Ubreve;
lastChange = "2023-04-21 12:17:44 +0000";
layers = (
{
background = {
shapes = (
{
closed = 1;
nodes = (
(1230,45,o),
(1360,212,o),
(1360,560,cs),
(1360,1044,ls),
(1360,1079,o),
(1368,1114,o),
(1401,1114,cs),
(1440,1114,o),
(1445,1079,o),
(1445,1044,cs),
(1445,560,ls),
(1445,143,o),
(1230,-21,o),
(794,-21,cs),
(358,-21,o),
(141,143,o),
(141,560,cs),
(141,1044,ls),
(141,1079,o),
(147,1114,o),
(186,1114,cs),
(219,1114,o),
(226,1079,o),
(226,1044,cs),
(226,560,ls),
(226,212,o),
(358,45,o),
(794,45,cs)
);
},
{
closed = 1;
nodes = (
(978,1443,l),
(978,1363,o),
(954,1257,o),
(793,1257,cs),
(627,1257,o),
(608,1370,o),
(608,1443,c),
(645,1443,l),
(647,1385,o),
(677,1309,o),
(793,1309,cs),
(906,1309,o),
(936,1384,o),
(941,1443,c)
);
}
);
};
layerId = master01;
shapes = (
{
alignment = -1;
ref = U;
},
{
alignment = -1;
pos = (434,268);
ref = breve;
}
);
userData = {
com.fontlab.hintData = {
hhints = (
{
position = -21;
width = 66;
},
{
position = 1094;
width = 20;
},
{
position = 1257;
width = 52;
}
);
vhints = (
{
position = 141;
width = 85;
},
{
position = 608;
width = 37;
},
{
position = 941;
width = 37;
},
{
position = 1360;
width = 85;
}
);
};
};
width = 1586;
}
);
unicode = 364;
},
{
glyphname = Ucircumflex;
lastChange = "2023-04-21 12:17:44 +0000";
layers = (
{
background = {
shapes = (
{
closed = 1;
nodes = (
(1230,45,o),
(1360,212,o),
(1360,560,cs),
(1360,1044,ls),
(1360,1079,o),
(1368,1114,o),
(1401,1114,cs),
(1440,1114,o),
(1445,1079,o),
(1445,1044,cs),
(1445,560,ls),
(1445,143,o),
(1230,-21,o),
(794,-21,cs),
(358,-21,o),
(141,143,o),
(141,560,cs),
(141,1044,ls),
(141,1079,o),
(147,1114,o),
(186,1114,cs),
(219,1114,o),
(226,1079,o),
(226,1044,cs),
(226,560,ls),
(226,212,o),
(358,45,o),
(794,45,cs)
);
},
{
closed = 1;
nodes = (
(663,1257,l),
(587,1257,l),
(740,1492,ls),
(756,1517,o),
(774,1530,o),
(793,1530,cs),
(809,1530,o),
(829,1517,o),
(846,1492,cs),
(999,1257,l),
(923,1257,l),
(793,1475,l)
);
}
);
};
layerId = master01;
shapes = (
{
alignment = -1;
ref = U;
},
{
alignment = -1;
pos = (552,365);
ref = circumflex;
}
);
userData = {
com.fontlab.hintData = {
hhints = (
{
position = -21;
width = 66;
},
{
position = 1094;
width = 20;
},
{
position = 1257;
width = 273;
}
);
vhints = (
{
position = 141;
width = 85;
},
{
position = 587;
width = 412;
},
{
position = 1360;
width = 85;
}
);
};
};
width = 1586;
}
);
unicode = 219;
},
{
glyphname = Udblgrave;
lastChange = "2023-04-21 12:21:45 +0000";
layers = (
{
background = {
shapes = (
{
closed = 1;
nodes = (
(1230,45,o),
(1360,212,o),
(1360,560,cs),
(1360,1044,ls),
(1360,1079,o),
(1368,1114,o),
(1401,1114,cs),
(1440,1114,o),
(1445,1079,o),
(1445,1044,cs),
(1445,560,ls),
(1445,143,o),
(1230,-21,o),
(794,-21,cs),
(358,-21,o),
(141,143,o),
(141,560,cs),
(141,1044,ls),
(141,1079,o),
(147,1114,o),
(186,1114,cs),
(219,1114,o),
(226,1079,o),
(226,1044,cs),
(226,560,ls),
(226,212,o),
(358,45,o),
(794,45,cs)
);
},
{
closed = 1;
nodes = (
(934,1301,ls),
(938,1296,o),
(942,1290,o),
(942,1283,cs),
(942,1268,o),
(930,1257,o),
(915,1257,cs),
(909,1257,o),
(904,1259,o),
(900,1262,cs),
(608,1499,ls),
(598,1507,o),
(593,1516,o),
(593,1527,cs),
(593,1551,o),
(622,1578,o),
(647,1578,cs),
(656,1578,o),
(665,1574,o),
(672,1567,cs)
);
},
{
closed = 1;
nodes = (
(706,1301,ls),
(710,1296,o),
(714,1290,o),
(714,1283,cs),
(714,1268,o),
(702,1257,o),
(687,1257,cs),
(681,1257,o),
(676,1259,o),
(672,1262,cs),
(380,1499,ls),
(370,1507,o),
(365,1516,o),
(365,1527,cs),
(365,1551,o),
(394,1578,o),
(419,1578,cs),
(428,1578,o),
(437,1574,o),
(444,1567,cs)
);
}
);
};
layerId = master01;
shapes = (
{
ref = U;
},
{
pos = (586.5,296);
ref = dblgravecomb;
}
);
userData = {
com.fontlab.hintData = {
hhints = (
{
position = -21;
width = 66;
},
{
position = 1094;
width = 20;
},
{
position = 1257;
width = 321;
}
);
vhints = (
{
position = 141;
width = 85;
},
{
position = 364;
width = 577;
},
{
position = 1360;
width = 85;
}
);
};
};
width = 1586;
}
);
unicode = 532;
},
{
glyphname = Udieresis;
lastChange = "2023-04-21 12:17:44 +0000";
layers = (
{
background = {
shapes = (
{
closed = 1;
nodes = (
(1230,45,o),
(1360,212,o),
(1360,560,cs),
(1360,1044,ls),
(1360,1079,o),
(1368,1114,o),
(1401,1114,cs),
(1440,1114,o),
(1445,1079,o),
(1445,1044,cs),
(1445,560,ls),
(1445,143,o),
(1230,-21,o),
(794,-21,cs),
(358,-21,o),
(141,143,o),
(141,560,cs),
(141,1044,ls),
(141,1079,o),
(147,1114,o),
(186,1114,cs),
(219,1114,o),
(226,1079,o),
(226,1044,cs),
(226,560,ls),
(226,212,o),
(358,45,o),
(794,45,cs)
);
},
{
closed = 1;
nodes = (
(954,1348,o),
(977,1372,o),
(1012,1372,cs),
(1045,1372,o),
(1072,1348,o),
(1072,1313,cs),
(1072,1280,o),
(1045,1257,o),
(1012,1257,cs),
(977,1257,o),
(954,1280,o),
(954,1313,cs)
);
},
{
closed = 1;
nodes = (
(515,1348,o),
(538,1372,o),
(573,1372,cs),
(606,1372,o),
(633,1348,o),
(633,1313,cs),
(633,1280,o),
(606,1257,o),
(573,1257,cs),
(538,1257,o),
(515,1280,o),
(515,1313,cs)
);
}
);
};
layerId = master01;
shapes = (
{
alignment = -1;
ref = U;
},
{
alignment = -1;
pos = (428,317);
ref = dieresis;
}
);
userData = {
com.fontlab.hintData = {
hhints = (
{
position = -21;
width = 66;
},
{
position = 1094;
width = 20;
},
{
position = 1257;
width = 115;
}
);
vhints = (
{
position = 141;
width = 85;
},
{
position = 514;
width = 118;
},
{
position = 954;
width = 118;
},
{
position = 1360;
width = 85;
}
);
};
};
width = 1586;
}
);
unicode = 220;
},
{
glyphname = Ugrave;
lastChange = "2023-04-21 12:17:44 +0000";
layers = (
{
background = {
shapes = (
{
closed = 1;
nodes = (
(1230,45,o),
(1360,212,o),
(1360,560,cs),
(1360,1044,ls),
(1360,1079,o),
(1368,1114,o),
(1401,1114,cs),
(1440,1114,o),
(1445,1079,o),
(1445,1044,cs),
(1445,560,ls),
(1445,143,o),
(1230,-21,o),
(794,-21,cs),
(358,-21,o),
(141,143,o),
(141,560,cs),
(141,1044,ls),
(141,1079,o),
(147,1114,o),
(186,1114,cs),
(219,1114,o),
(226,1079,o),
(226,1044,cs),
(226,560,ls),
(226,212,o),
(358,45,o),
(794,45,cs)
);
},
{
closed = 1;
nodes = (
(820,1301,ls),
(825,1296,o),
(828,1290,o),
(828,1283,cs),
(828,1268,o),
(816,1257,o),
(801,1257,cs),
(795,1257,o),
(790,1259,o),
(786,1262,cs),
(494,1499,ls),
(484,1507,o),
(479,1516,o),
(479,1527,cs),
(479,1556,o),
(514,1588,o),
(543,1588,cs),
(552,1588,o),
(561,1584,o),
(568,1577,cs)
);
}
);
};
layerId = master01;
shapes = (
{
alignment = -1;
ref = U;
},
{
alignment = -1;
pos = (467,288);
ref = grave;
}
);
userData = {
com.fontlab.hintData = {
hhints = (
{
position = -21;
width = 66;
},
{
position = 1094;
width = 20;
},
{
position = 1257;
width = 331;
}
);
vhints = (
{
position = 141;
width = 85;
},
{
position = 478;
width = 349;
},
{
position = 1360;
width = 85;
}
);
};
};
width = 1586;
}
);
unicode = 217;
},
{
glyphname = Uhungarumlaut;
lastChange = "2023-04-21 12:17:44 +0000";
layers = (
{
background = {
shapes = (
{
closed = 1;
nodes = (
(1230,45,o),
(1360,212,o),
(1360,560,cs),
(1360,1044,ls),
(1360,1079,o),
(1368,1114,o),
(1401,1114,cs),
(1440,1114,o),
(1445,1079,o),
(1445,1044,cs),
(1445,560,ls),
(1445,143,o),
(1230,-21,o),
(794,-21,cs),
(358,-21,o),
(141,143,o),
(141,560,cs),
(141,1044,ls),
(141,1079,o),
(147,1114,o),
(186,1114,cs),
(219,1114,o),
(226,1079,o),
(226,1044,cs),
(226,560,ls),
(226,212,o),
(358,45,o),
(794,45,cs)
);
},
{
closed = 1;
nodes = (
(1145,1567,ls),
(1152,1574,o),
(1161,1578,o),
(1170,1578,cs),
(1194,1578,o),
(1222,1551,o),
(1222,1527,cs),
(1222,1516,o),
(1217,1507,o),
(1207,1499,cs),
(915,1262,ls),
(911,1259,o),
(906,1257,o),
(900,1257,cs),
(885,1257,o),
(873,1268,o),
(873,1283,cs),
(873,1290,o),
(876,1296,o),
(881,1301,cs)
);
},
{
closed = 1;
nodes = (
(917,1567,ls),
(924,1574,o),
(933,1578,o),
(942,1578,cs),
(966,1578,o),
(994,1551,o),
(994,1527,cs),
(994,1516,o),
(989,1507,o),
(979,1499,cs),
(687,1262,ls),
(683,1259,o),
(678,1257,o),
(672,1257,cs),
(657,1257,o),
(645,1268,o),
(645,1283,cs),
(645,1290,o),
(648,1296,o),
(653,1301,cs)
);
}
);
};
layerId = master01;
shapes = (
{
alignment = -1;
ref = U;
},
{
alignment = -1;
pos = (382,296);
ref = hungarumlaut;
}
);
userData = {
com.fontlab.hintData = {
hhints = (
{
position = -21;
width = 66;
},
{
position = 1094;
width = 20;
},
{
position = 1257;
width = 321;
}
);
vhints = (
{
position = 141;
width = 85;
},
{
position = 644;
width = 577;
},
{
position = 1360;
width = 85;
}
);
};
};
width = 1586;
}
);
unicode = 368;
},
{
glyphname = Uinvertedbreve;
lastChange = "2023-04-21 12:21:45 +0000";
layers = (
{
background = {
shapes = (
{
closed = 1;
nodes = (
(1230,45,o),
(1360,212,o),
(1360,560,cs),
(1360,1044,ls),
(1360,1079,o),
(1368,1114,o),
(1401,1114,cs),
(1440,1114,o),
(1445,1079,o),
(1445,1044,cs),
(1445,560,ls),
(1445,143,o),
(1230,-21,o),
(794,-21,cs),
(358,-21,o),
(141,143,o),
(141,560,cs),
(141,1044,ls),
(141,1079,o),
(147,1114,o),
(186,1114,cs),
(219,1114,o),
(226,1079,o),
(226,1044,cs),
(226,560,ls),
(226,212,o),
(358,45,o),
(794,45,cs)
);
},
{
closed = 1;
nodes = (
(931,1257,l),
(926,1312,o),
(898,1381,o),
(793,1381,cs),
(685,1381,o),
(657,1311,o),
(655,1257,c),
(608,1257,l),
(608,1330,o),
(627,1443,o),
(793,1443,cs),
(954,1443,o),
(978,1337,o),
(978,1257,c)
);
}
);
};
layerId = master01;
shapes = (
{
ref = U;
},
{
pos = (434,268);
ref = breveinvertedcomb;
}
);
userData = {
com.fontlab.hintData = {
hhints = (
{
position = -21;
width = 66;
},
{
position = 1094;
width = 20;
},
{
position = 1381;
width = 62;
}
);
vhints = (
{
position = 141;
width = 85;
},
{
position = 608;
width = 47;
},
{
position = 931;
width = 47;
},
{
position = 1360;
width = 85;
}
);
};
};
width = 1586;
}
);
unicode = 534;
},
{
glyphname = Umacron;
lastChange = "2023-04-21 12:17:44 +0000";
layers = (
{
background = {
shapes = (
{
closed = 1;
nodes = (
(1230,45,o),
(1360,212,o),
(1360,560,cs),
(1360,1044,ls),
(1360,1079,o),
(1368,1114,o),
(1401,1114,cs),
(1440,1114,o),
(1445,1079,o),
(1445,1044,cs),
(1445,560,ls),
(1445,143,o),
(1230,-21,o),
(794,-21,cs),
(358,-21,o),
(141,143,o),
(141,560,cs),
(141,1044,ls),
(141,1079,o),
(147,1114,o),
(186,1114,cs),
(219,1114,o),
(226,1079,o),
(226,1044,cs),
(226,560,ls),
(226,212,o),
(358,45,o),
(794,45,cs)
);
},
{
closed = 1;
nodes = (
(969,1312,ls),
(988,1312,o),
(996,1295,o),
(996,1283,cs),
(996,1272,o),
(988,1257,o),
(969,1257,cs),
(617,1257,ls),
(598,1257,o),
(590,1272,o),
(590,1283,cs),
(590,1295,o),
(598,1312,o),
(617,1312,cs)
);
}
);
};
layerId = master01;
shapes = (
{
alignment = -1;
ref = U;
},
{
alignment = -1;
pos = (455,331);
ref = macron;
}
);
userData = {
com.fontlab.hintData = {
hhints = (
{
position = -21;
width = 66;
},
{
position = 1094;
width = 20;
},
{
position = 1257;
width = 55;
}
);
vhints = (
{
position = 141;
width = 85;
},
{
position = 590;
width = 406;
},
{
position = 1360;
width = 85;
}
);
};
};
width = 1586;
}
);
unicode = 362;
},
{
glyphname = Uogonek;
lastChange = "2023-04-21 12:17:44 +0000";
layers = (
{
background = {
shapes = (
{
closed = 1;
nodes = (
(1230,45,o),
(1360,212,o),
(1360,560,cs),
(1360,1044,ls),
(1360,1079,o),
(1368,1114,o),
(1401,1114,cs),
(1440,1114,o),
(1445,1079,o),
(1445,1044,cs),
(1445,560,ls),
(1445,143,o),
(1230,-21,o),
(794,-21,cs),
(358,-21,o),
(141,143,o),
(141,560,cs),
(141,1044,ls),
(141,1079,o),
(147,1114,o),
(186,1114,cs),
(219,1114,o),
(226,1079,o),
(226,1044,cs),
(226,560,ls),
(226,212,o),
(358,45,o),
(794,45,cs)
);
},
{
closed = 1;
nodes = (
(808,-11,l),
(761,-66,o),
(738,-125,o),
(738,-168,cs),
(738,-223,o),
(768,-240,o),
(789,-240,cs),
(816,-240,o),
(843,-221,o),
(860,-210,c),
(870,-219,l),
(847,-266,o),
(795,-296,o),
(744,-296,cs),
(699,-296,o),
(649,-268,o),
(649,-199,cs),
(649,-135,o),
(703,-72,o),
(778,-11,c)
);
}
);
};
layerId = master01;
shapes = (
{
alignment = -1;
ref = U;
},
{
alignment = -1;
pos = (603,-17);
ref = ogonek;
}
);
userData = {
com.fontlab.hintData = {
hhints = (
{
position = -296;
width = 56;
},
{
position = -21;
width = 66;
},
{
position = 1094;
width = 20;
}
);
vhints = (
{
position = 141;
width = 85;
},
{
position = 649;
width = 89;
},
{
position = 1360;
width = 85;
}
);
};
};
width = 1586;
}
);
unicode = 370;
},
{
glyphname = Uring;
lastChange = "2023-04-21 12:17:44 +0000";
layers = (
{
background = {
shapes = (
{
closed = 1;
nodes = (
(1230,45,o),
(1360,212,o),
(1360,560,cs),
(1360,1044,ls),
(1360,1079,o),
(1368,1114,o),
(1401,1114,cs),
(1440,1114,o),
(1445,1079,o),
(1445,1044,cs),
(1445,560,ls),
(1445,143,o),
(1230,-21,o),
(794,-21,cs),
(358,-21,o),
(141,143,o),
(141,560,cs),
(141,1044,ls),
(141,1079,o),
(147,1114,o),
(186,1114,cs),
(219,1114,o),
(226,1079,o),
(226,1044,cs),
(226,560,ls),
(226,212,o),
(358,45,o),
(794,45,cs)
);
},
{
closed = 1;
nodes = (
(727,1334,o),
(757,1304,o),
(794,1304,cs),
(831,1304,o),
(862,1334,o),
(862,1369,cs),
(862,1405,o),
(831,1433,o),
(794,1433,cs),
(757,1433,o),
(727,1405,o),
(727,1369,cs)
);
},
{
closed = 1;
nodes = (
(911,1305,o),
(858,1257,o),
(794,1257,cs),
(731,1257,o),
(676,1305,o),
(676,1369,cs),
(676,1433,o),
(727,1482,o),
(794,1482,cs),
(858,1482,o),
(911,1433,o),
(911,1369,cs)
);
}
);
};
layerId = master01;
shapes = (
{
alignment = -1;
ref = U;
},
{
alignment = -1;
pos = (610,372);
ref = ring;
}
);
userData = {
com.fontlab.hintData = {
hhints = (
{
position = -21;
width = 66;
},
{
position = 1094;
width = 20;
},
{
position = 1257;
width = 47;
},
{
position = 1433;
width = 49;
}
);
vhints = (
{
position = 141;
width = 85;
},
{
position = 676;
width = 51;
},
{
position = 862;
width = 49;
},
{
position = 1360;
width = 85;
}
);
};
};
width = 1586;
}
);
unicode = 366;
},
{
glyphname = Utilde;
lastChange = "2023-04-21 12:17:44 +0000";
layers = (
{
background = {
shapes = (
{
closed = 1;
nodes = (
(1230,45,o),
(1360,212,o),
(1360,560,cs),
(1360,1044,ls),
(1360,1079,o),
(1368,1114,o),
(1401,1114,cs),
(1440,1114,o),
(1445,1079,o),
(1445,1044,cs),
(1445,560,ls),
(1445,143,o),
(1230,-21,o),
(794,-21,cs),
(358,-21,o),
(141,143,o),
(141,560,cs),
(141,1044,ls),
(141,1079,o),
(147,1114,o),
(186,1114,cs),
(219,1114,o),
(226,1079,o),
(226,1044,cs),
(226,560,ls),
(226,212,o),
(358,45,o),
(794,45,cs)
);
},
{
closed = 1;
nodes = (
(960,1325,o),
(966,1348,o),
(966,1393,c),
(1029,1393,l),
(1032,1375,o),
(1034,1357,o),
(1034,1338,cs),
(1034,1290,o),
(998,1257,o),
(935,1257,cs),
(825,1257,o),
(740,1327,o),
(653,1327,cs),
(625,1327,o),
(621,1307,o),
(621,1289,cs),
(621,1279,o),
(622,1270,o),
(622,1262,c),
(559,1262,l),
(555,1279,o),
(553,1298,o),
(553,1317,cs),
(553,1364,o),
(590,1398,o),
(653,1398,cs),
(760,1398,o),
(851,1325,o),
(931,1325,cs)
);
}
);
};
layerId = master01;
shapes = (
{
alignment = -1;
ref = U;
},
{
alignment = -1;
pos = (327,341);
ref = tilde;
}
);
userData = {
com.fontlab.hintData = {
hhints = (
{
position = -21;
width = 66;
},
{
position = 1094;
width = 20;
},
{
position = 1257;
width = 68;
},
{
position = 1327;
width = 71;
}
);
vhints = (
{
position = 141;
width = 85;
},
{
position = 552;
width = 68;
},
{
position = 966;
width = 68;
},
{
position = 1360;
width = 85;
}
);
};
};
width = 1586;
}
);
unicode = 360;
},
{
glyphname = V;
lastChange = "2023-04-21 12:17:34 +0000";
layers = (
{
background = {
shapes = (
{
closed = 1;
nodes = (
(714,90,l),
(1285,1064,ls),
(1300,1089,o),
(1315,1110,o),
(1334,1113,c),
(1359,1113,o),
(1369,1093,o),
(1369,1078,cs),
(1369,1063,o),
(1358,1046,o),
(1348,1029,cs),
(765,35,ls),
(751,11,o),
(731,0,o),
(713,0,cs),
(693,0,o),
(675,13,o),
(662,35,cs),
(77,1029,ls),
(66,1048,o),
(58,1064,o),
(58,1080,cs),
(58,1091,o),
(68,1113,o),
(91,1113,c),
(114,1110,o),
(127,1089,o),
(142,1064,cs)
);
}
);
};
layerId = master01;
shapes = (
{
closed = 1;
nodes = (
(714,90,l),
(1285,1064,ls),
(1300,1089,o),
(1315,1110,o),
(1334,1113,c),
(1359,1113,o),
(1369,1093,o),
(1369,1078,cs),
(1369,1063,o),
(1358,1046,o),
(1348,1029,cs),
(765,35,ls),
(751,11,o),
(731,0,o),
(713,0,cs),
(693,0,o),
(675,13,o),
(662,35,cs),
(77,1029,ls),
(66,1048,o),
(58,1064,o),
(58,1080,cs),
(58,1091,o),
(68,1113,o),
(91,1113,c),
(114,1110,o),
(127,1089,o),
(142,1064,cs)
);
}
);
userData = {
com.fontlab.hintData = {
hhints = (
{
position = 0;
width = 21;
},
{
position = 1093;
width = 20;
}
);
};
};
width = 1427;
}
);
unicode = 86;
},
{
glyphname = W;
lastChange = "2023-04-21 12:17:34 +0000";
layers = (
{
background = {
shapes = (
{
closed = 1;
nodes = (
(1276,125,l),
(1610,1059,ls),
(1620,1086,o),
(1632,1114,o),
(1655,1114,cs),
(1682,1114,o),
(1690,1096,o),
(1690,1081,cs),
(1690,1066,o),
(1685,1051,o),
(1678,1032,cs),
(1325,53,l),
(1310,22,o),
(1303,0,o),
(1276,0,cs),
(1249,0,o),
(1240,22,o),
(1229,53,cs),
(895,981,l),
(563,53,ls),
(552,22,o),
(539,0,o),
(514,0,cs),
(487,0,o),
(478,22,o),
(467,53,cs),
(115,1032,ls),
(108,1051,o),
(101,1066,o),
(101,1081,cs),
(101,1096,o),
(110,1114,o),
(137,1114,cs),
(162,1114,o),
(173,1086,o),
(183,1059,cs),
(514,125,l),
(848,1059,ls),
(858,1086,o),
(869,1114,o),
(893,1114,cs),
(924,1114,o),
(932,1092,o),
(944,1059,cs)
);
}
);
};
layerId = master01;
shapes = (
{
closed = 1;
nodes = (
(1276,125,l),
(1610,1059,ls),
(1620,1086,o),
(1632,1114,o),
(1655,1114,cs),
(1682,1114,o),
(1690,1096,o),
(1690,1081,cs),
(1690,1066,o),
(1685,1051,o),
(1678,1032,cs),
(1325,53,l),
(1310,22,o),
(1303,0,o),
(1276,0,cs),
(1249,0,o),
(1240,22,o),
(1229,53,cs),
(895,981,l),
(563,53,ls),
(552,22,o),
(539,0,o),
(514,0,cs),
(487,0,o),
(478,22,o),
(467,53,cs),
(115,1032,ls),
(108,1051,o),
(101,1066,o),
(101,1081,cs),
(101,1096,o),
(110,1114,o),
(137,1114,cs),
(162,1114,o),
(173,1086,o),
(183,1059,cs),
(514,125,l),
(848,1059,ls),
(858,1086,o),
(869,1114,o),
(893,1114,cs),
(924,1114,o),
(932,1092,o),
(944,1059,cs)
);
}
);
userData = {
com.fontlab.hintData = {
hhints = (
{
position = 0;
width = 21;
},
{
position = 1094;
width = 20;
}
);
vhints = (
{
position = 101;
width = 82;
},
{
position = 1610;
width = 80;
}
);
};
};
width = 1792;
}
);
unicode = 87;
},
{
glyphname = X;
lastChange = "2023-04-21 12:17:34 +0000";
layers = (
{
background = {
shapes = (
{
closed = 1;
nodes = (
(717,596,l),
(1213,1093,ls),
(1227,1107,o),
(1241,1113,o),
(1253,1113,cs),
(1271,1113,o),
(1284,1098,o),
(1284,1079,cs),
(1284,1068,o),
(1279,1054,o),
(1267,1042,cs),
(769,547,l),
(1276,75,ls),
(1293,59,o),
(1300,41,o),
(1300,28,cs),
(1300,12,o),
(1289,0,o),
(1273,0,cs),
(1260,0,o),
(1244,7,o),
(1226,24,cs),
(717,498,l),
(208,23,ls),
(190,6,o),
(173,0,o),
(161,0,cs),
(144,0,o),
(133,11,o),
(133,27,cs),
(133,41,o),
(141,58,o),
(158,74,cs),
(665,547,l),
(167,1042,ls),
(155,1054,o),
(149,1067,o),
(149,1079,cs),
(149,1098,o),
(162,1113,o),
(181,1113,cs),
(193,1113,o),
(207,1107,o),
(221,1093,cs)
);
}
);
};
layerId = master01;
shapes = (
{
closed = 1;
nodes = (
(717,596,l),
(1213,1093,ls),
(1227,1107,o),
(1241,1113,o),
(1253,1113,cs),
(1271,1113,o),
(1284,1098,o),
(1284,1079,cs),
(1284,1068,o),
(1279,1054,o),
(1267,1042,cs),
(769,547,l),
(1276,75,ls),
(1293,59,o),
(1300,41,o),
(1300,28,cs),
(1300,12,o),
(1289,0,o),
(1273,0,cs),
(1260,0,o),
(1244,7,o),
(1226,24,cs),
(717,498,l),
(208,23,ls),
(190,6,o),
(173,0,o),
(161,0,cs),
(144,0,o),
(133,11,o),
(133,27,cs),
(133,41,o),
(141,58,o),
(158,74,cs),
(665,547,l),
(167,1042,ls),
(155,1054,o),
(149,1067,o),
(149,1079,cs),
(149,1098,o),
(162,1113,o),
(181,1113,cs),
(193,1113,o),
(207,1107,o),
(221,1093,cs)
);
}
);
userData = {
com.fontlab.hintData = {
hhints = (
{
position = 0;
width = 21;
},
{
position = 1093;
width = 20;
}
);
};
};
width = 1435;
}
);
unicode = 88;
},
{
glyphname = Y;
lastChange = "2023-04-21 12:17:34 +0000";
layers = (
{
background = {
shapes = (
{
closed = 1;
nodes = (
(583,535,l),
(1040,1089,ls),
(1054,1106,o),
(1069,1113,o),
(1082,1113,cs),
(1103,1113,o),
(1115,1099,o),
(1115,1077,cs),
(1115,1066,o),
(1109,1053,o),
(1098,1040,cs),
(626,471,l),
(626,69,ls),
(626,30,o),
(619,0,o),
(586,0,cs),
(547,0,o),
(541,32,o),
(541,67,cs),
(541,473,l),
(67,1040,ls),
(54,1055,o),
(50,1066,o),
(50,1080,cs),
(50,1100,o),
(64,1114,o),
(83,1114,cs),
(96,1114,o),
(112,1106,o),
(126,1089,cs)
);
}
);
};
layerId = master01;
shapes = (
{
closed = 1;
nodes = (
(583,535,l),
(1040,1089,ls),
(1054,1106,o),
(1069,1113,o),
(1082,1113,cs),
(1103,1113,o),
(1115,1099,o),
(1115,1077,cs),
(1115,1066,o),
(1109,1053,o),
(1098,1040,cs),
(626,471,l),
(626,69,ls),
(626,30,o),
(619,0,o),
(586,0,cs),
(547,0,o),
(541,32,o),
(541,67,cs),
(541,473,l),
(67,1040,ls),
(54,1055,o),
(50,1066,o),
(50,1080,cs),
(50,1100,o),
(64,1114,o),
(83,1114,cs),
(96,1114,o),
(112,1106,o),
(126,1089,cs)
);
}
);
userData = {
com.fontlab.hintData = {
hhints = (
{
position = 0;
width = 21;
},
{
position = 1093;
width = 21;
}
);
vhints = (
{
position = 541;
width = 85;
}
);
};
};
width = 1165;
}
);
unicode = 89;
},
{
glyphname = Yacute;
lastChange = "2023-04-21 12:17:44 +0000";
layers = (
{
background = {
shapes = (
{
closed = 1;
nodes = (
(583,535,l),
(1040,1089,ls),
(1054,1106,o),
(1069,1113,o),
(1082,1113,cs),
(1103,1113,o),
(1115,1099,o),
(1115,1077,cs),
(1115,1066,o),
(1109,1053,o),
(1098,1040,cs),
(626,471,l),
(626,69,ls),
(626,30,o),
(619,0,o),
(586,0,cs),
(547,0,o),
(541,32,o),
(541,67,cs),
(541,473,l),
(67,1040,ls),
(54,1055,o),
(50,1066,o),
(50,1080,cs),
(50,1100,o),
(64,1114,o),
(83,1114,cs),
(96,1114,o),
(112,1106,o),
(126,1089,cs)
);
},
{
closed = 1;
nodes = (
(668,1616,ls),
(675,1623,o),
(684,1627,o),
(693,1627,cs),
(722,1627,o),
(757,1595,o),
(757,1566,cs),
(757,1555,o),
(752,1546,o),
(742,1538,cs),
(450,1301,ls),
(446,1298,o),
(441,1296,o),
(435,1296,cs),
(420,1296,o),
(408,1307,o),
(408,1322,cs),
(408,1329,o),
(411,1335,o),
(416,1340,cs)
);
}
);
};
layerId = master01;
shapes = (
{
alignment = -1;
ref = Y;
},
{
alignment = -1;
pos = (393,339);
ref = acute;
}
);
userData = {
com.fontlab.hintData = {
hhints = (
{
position = 0;
width = 21;
},
{
position = 1093;
width = 21;
},
{
position = 1296;
width = 331;
}
);
vhints = (
{
position = 408;
width = 349;
},
{
position = 541;
width = 85;
}
);
};
};
width = 1165;
}
);
unicode = 221;
},
{
glyphname = Ydieresis;
lastChange = "2023-04-21 12:17:44 +0000";
layers = (
{
background = {
shapes = (
{
closed = 1;
nodes = (
(583,535,l),
(1040,1089,ls),
(1054,1106,o),
(1069,1113,o),
(1082,1113,cs),
(1103,1113,o),
(1115,1099,o),
(1115,1077,cs),
(1115,1066,o),
(1109,1053,o),
(1098,1040,cs),
(626,471,l),
(626,69,ls),
(626,30,o),
(619,0,o),
(586,0,cs),
(547,0,o),
(541,32,o),
(541,67,cs),
(541,473,l),
(67,1040,ls),
(54,1055,o),
(50,1066,o),
(50,1080,cs),
(50,1100,o),
(64,1114,o),
(83,1114,cs),
(96,1114,o),
(112,1106,o),
(126,1089,cs)
);
},
{
closed = 1;
nodes = (
(743,1348,o),
(766,1372,o),
(801,1372,cs),
(834,1372,o),
(861,1348,o),
(861,1313,cs),
(861,1280,o),
(834,1257,o),
(801,1257,cs),
(766,1257,o),
(743,1280,o),
(743,1313,cs)
);
},
{
closed = 1;
nodes = (
(304,1348,o),
(327,1372,o),
(362,1372,cs),
(395,1372,o),
(422,1348,o),
(422,1313,cs),
(422,1280,o),
(395,1257,o),
(362,1257,cs),
(327,1257,o),
(304,1280,o),
(304,1313,cs)
);
}
);
};
layerId = master01;
shapes = (
{
alignment = -1;
ref = Y;
},
{
alignment = -1;
pos = (217,317);
ref = dieresis;
}
);
userData = {
com.fontlab.hintData = {
hhints = (
{
position = 0;
width = 21;
},
{
position = 1093;
width = 21;
},
{
position = 1257;
width = 115;
}
);
vhints = (
{
position = 304;
width = 118;
},
{
position = 541;
width = 85;
},
{
position = 743;
width = 118;
}
);
};
};
width = 1165;
}
);
unicode = 376;
},
{
glyphname = Z;
lastChange = "2023-04-21 12:17:34 +0000";
layers = (
{
background = {
shapes = (
{
closed = 1;
nodes = (
(172,66,l),
(1212,66,ls),
(1243,66,o),
(1259,49,o),
(1259,33,cs),
(1259,16,o),
(1243,0,o),
(1212,0,cs),
(120,0,ls),
(71,0,o),
(47,0,o),
(47,36,cs),
(47,57,o),
(58,69,o),
(79,88,cs),
(1163,1048,l),
(120,1048,ls),
(89,1048,o),
(75,1064,o),
(75,1081,cs),
(75,1097,o),
(89,1114,o),
(120,1114,cs),
(1208,1114,ls),
(1255,1114,o),
(1290,1112,o),
(1290,1079,cs),
(1290,1060,o),
(1272,1042,o),
(1257,1026,c)
);
}
);
};
layerId = master01;
shapes = (
{
closed = 1;
nodes = (
(172,66,l),
(1212,66,ls),
(1243,66,o),
(1259,49,o),
(1259,33,cs),
(1259,16,o),
(1243,0,o),
(1212,0,cs),
(120,0,ls),
(71,0,o),
(47,0,o),
(47,36,cs),
(47,57,o),
(58,69,o),
(79,88,cs),
(1163,1048,l),
(120,1048,ls),
(89,1048,o),
(75,1064,o),
(75,1081,cs),
(75,1097,o),
(89,1114,o),
(120,1114,cs),
(1208,1114,ls),
(1255,1114,o),
(1290,1112,o),
(1290,1079,cs),
(1290,1060,o),
(1272,1042,o),
(1257,1026,c)
);
}
);
userData = {
com.fontlab.hintData = {
hhints = (
{
position = 0;
width = 66;
},
{
position = 1048;
width = 66;
}
);
};
};
width = 1335;
}
);
unicode = 90;
},
{
glyphname = Zacute;
lastChange = "2023-04-21 12:17:44 +0000";
layers = (
{
background = {
shapes = (
{
closed = 1;
nodes = (
(172,66,l),
(1212,66,ls),
(1243,66,o),
(1259,49,o),
(1259,33,cs),
(1259,16,o),
(1243,0,o),
(1212,0,cs),
(120,0,ls),
(71,0,o),
(47,0,o),
(47,36,cs),
(47,57,o),
(58,69,o),
(79,88,cs),
(1163,1048,l),
(120,1048,ls),
(89,1048,o),
(75,1064,o),
(75,1081,cs),
(75,1097,o),
(89,1114,o),
(120,1114,cs),
(1208,1114,ls),
(1255,1114,o),
(1290,1112,o),
(1290,1079,cs),
(1290,1060,o),
(1272,1042,o),
(1257,1026,c)
);
},
{
closed = 1;
nodes = (
(894,1577,ls),
(901,1584,o),
(910,1588,o),
(919,1588,cs),
(948,1588,o),
(983,1556,o),
(983,1527,cs),
(983,1516,o),
(978,1507,o),
(968,1499,cs),
(676,1262,ls),
(672,1259,o),
(667,1257,o),
(661,1257,cs),
(646,1257,o),
(634,1268,o),
(634,1283,cs),
(634,1290,o),
(637,1296,o),
(642,1301,cs)
);
}
);
};
layerId = master01;
shapes = (
{
alignment = -1;
ref = Z;
},
{
alignment = -1;
pos = (619,300);
ref = acute;
}
);
userData = {
com.fontlab.hintData = {
hhints = (
{
position = 0;
width = 66;
},
{
position = 1048;
width = 66;
},
{
position = 1257;
width = 331;
}
);
vhints = (
{
position = 634;
width = 349;
}
);
};
};
width = 1335;
}
);
unicode = 377;
},
{
glyphname = Zcaron;
lastChange = "2023-04-21 12:17:44 +0000";
layers = (
{
background = {
shapes = (
{
closed = 1;
nodes = (
(172,66,l),
(1212,66,ls),
(1243,66,o),
(1259,49,o),
(1259,33,cs),
(1259,16,o),
(1243,0,o),
(1212,0,cs),
(120,0,ls),
(71,0,o),
(47,0,o),
(47,36,cs),
(47,57,o),
(58,69,o),
(79,88,cs),
(1163,1048,l),
(120,1048,ls),
(89,1048,o),
(75,1064,o),
(75,1081,cs),
(75,1097,o),
(89,1114,o),
(120,1114,cs),
(1208,1114,ls),
(1255,1114,o),
(1290,1112,o),
(1290,1079,cs),
(1290,1060,o),
(1272,1042,o),
(1257,1026,c)
);
},
{
closed = 1;
nodes = (
(669,1312,l),
(799,1530,l),
(875,1530,l),
(722,1295,ls),
(705,1270,o),
(685,1257,o),
(669,1257,cs),
(650,1257,o),
(632,1270,o),
(616,1295,cs),
(463,1530,l),
(539,1530,l)
);
}
);
};
layerId = master01;
shapes = (
{
alignment = -1;
ref = Z;
},
{
alignment = -1;
pos = (390,282);
ref = caron;
}
);
userData = {
com.fontlab.hintData = {
hhints = (
{
position = 0;
width = 66;
},
{
position = 1048;
width = 66;
},
{
position = 1257;
width = 273;
}
);
vhints = (
{
position = 462;
width = 412;
}
);
};
};
width = 1335;
}
);
unicode = 381;
},
{
glyphname = Zdotaccent;
lastChange = "2023-04-21 12:17:44 +0000";
layers = (
{
background = {
shapes = (
{
closed = 1;
nodes = (
(172,66,l),
(1212,66,ls),
(1243,66,o),
(1259,49,o),
(1259,33,cs),
(1259,16,o),
(1243,0,o),
(1212,0,cs),
(120,0,ls),
(71,0,o),
(47,0,o),
(47,36,cs),
(47,57,o),
(58,69,o),
(79,88,cs),
(1163,1048,l),
(120,1048,ls),
(89,1048,o),
(75,1064,o),
(75,1081,cs),
(75,1097,o),
(89,1114,o),
(120,1114,cs),
(1208,1114,ls),
(1255,1114,o),
(1290,1112,o),
(1290,1079,cs),
(1290,1060,o),
(1272,1042,o),
(1257,1026,c)
);
},
{
closed = 1;
nodes = (
(610,1348,o),
(633,1372,o),
(668,1372,cs),
(701,1372,o),
(728,1348,o),
(728,1313,cs),
(728,1280,o),
(701,1257,o),
(668,1257,cs),
(633,1257,o),
(610,1280,o),
(610,1313,cs)
);
}
);
};
layerId = master01;
shapes = (
{
ref = Z;
},
{
pos = (505.5,258);
ref = dotaccentcomb;
}
);
userData = {
com.fontlab.hintData = {
hhints = (
{
position = 0;
width = 66;
},
{
position = 1048;
width = 66;
},
{
position = 1257;
width = 115;
}
);
vhints = (
{
position = 610;
width = 118;
}
);
};
};
width = 1335;
}
);
unicode = 379;
},
{
glyphname = a;
lastChange = "2023-04-21 12:17:34 +0000";
layers = (
{
background = {
shapes = (
{
closed = 1;
nodes = (
(963,686.746,o),
(813.993,727.849,o),
(587.172,727.849,cs),
(379.237,727.849,o),
(290.67,697.025,o),
(227,676,cs),
(224,675,o),
(222,674,o),
(219,674,cs),
(203,674,o),
(187,694,o),
(187,712,cs),
(187,720,o),
(191,727,o),
(199,731,cs),
(220.608,741.564,o),
(344.114,786.233,o),
(615.648,786.233,cs),
(861.831,786.233,o),
(1044,723.483,o),
(1044,388,cs),
(1044,70,ls),
(1044,39,o),
(1040,0,o),
(1003,0,cs),
(972,0,o),
(963,31,o),
(963,74,cs),
(963,130,l),
(903.552,68.693,o),
(779.049,-10,o),
(502,-10,cs),
(296.871,-10,o),
(134,56,o),
(134,224,cs),
(134,419,o),
(308,477,o),
(532,477,cs),
(702,477,o),
(878,458.059,o),
(963,421,c)
);
},
{
closed = 1;
nodes = (
(214,97,o),
(331.091,49,o),
(494,49,cs),
(755.924,49,o),
(895.84,123,o),
(963,178,c),
(963,379,l),
(833,397,o),
(682,418,o),
(540,418,cs),
(335,418,o),
(214,376,o),
(214,224,cs)
);
}
);
};
layerId = master01;
shapes = (
{
closed = 1;
nodes = (
(963,686.746,o),
(813.993,727.849,o),
(587.172,727.849,cs),
(379.237,727.849,o),
(290.67,697.025,o),
(227,676,cs),
(224,675,o),
(222,674,o),
(219,674,cs),
(203,674,o),
(187,694,o),
(187,712,cs),
(187,720,o),
(191,727,o),
(199,731,cs),
(220.608,741.564,o),
(344.114,786.233,o),
(615.648,786.233,cs),
(861.831,786.233,o),
(1044,723.483,o),
(1044,388,cs),
(1044,70,ls),
(1044,39,o),
(1040,0,o),
(1003,0,cs),
(972,0,o),
(963,31,o),
(963,74,cs),
(963,130,l),
(903.552,68.693,o),
(779.049,-10,o),
(502,-10,cs),
(296.871,-10,o),
(134,56,o),
(134,224,cs),
(134,419,o),
(308,477,o),
(532,477,cs),
(702,477,o),
(878,458.059,o),
(963,421,c)
);
},
{
closed = 1;
nodes = (
(214,97,o),
(331.091,49,o),
(494,49,cs),
(755.924,49,o),
(895.84,123,o),
(963,178,c),
(963,379,l),
(833,397,o),
(682,418,o),
(540,418,cs),
(335,418,o),
(214,376,o),
(214,224,cs)
);
}
);
userData = {
com.fontlab.hintData = {
hhints = (
{
position = -10;
width = 59;
},
{
position = 0;
width = 21;
},
{
position = 418;
width = 59;
},
{
position = 728;
width = 58;
}
);
vhints = (
{
position = 134;
width = 80;
},
{
position = 963;
width = 81;
}
);
};
};
width = 1191;
}
);
unicode = 97;
},
{
glyphname = aacute;
lastChange = "2023-04-21 12:17:44 +0000";
layers = (
{
background = {
shapes = (
{
closed = 1;
nodes = (
(963,686.746,o),
(813.993,727.849,o),
(587.172,727.849,cs),
(379.237,727.849,o),
(290.67,697.025,o),
(227,676,cs),
(224,675,o),
(222,674,o),
(219,674,cs),
(203,674,o),
(187,694,o),
(187,712,cs),
(187,720,o),
(191,727,o),
(199,731,cs),
(220.608,741.564,o),
(344.114,786.233,o),
(615.648,786.233,cs),
(861.831,786.233,o),
(1044,723.483,o),
(1044,388,cs),
(1044,70,ls),
(1044,39,o),
(1040,0,o),
(1003,0,cs),
(972,0,o),
(963,31,o),
(963,74,cs),
(963,130,l),
(903.552,68.693,o),
(779.049,-10,o),
(502,-10,cs),
(296.871,-10,o),
(134,56,o),
(134,224,cs),
(134,419,o),
(308,477,o),
(532,477,cs),
(702,477,o),
(878,458.059,o),
(963,421,c)
);
},
{
closed = 1;
nodes = (
(214,97,o),
(331.091,49,o),
(494,49,cs),
(755.924,49,o),
(895.84,123,o),
(963,178,c),
(963,379,l),
(833,397,o),
(682,418,o),
(540,418,cs),
(335,418,o),
(214,376,o),
(214,224,cs)
);
},
{
closed = 1;
nodes = (
(815,1228,ls),
(822,1235,o),
(831,1239,o),
(840,1239,cs),
(869,1239,o),
(904,1207,o),
(904,1178,cs),
(904,1167,o),
(899,1158,o),
(889,1150,cs),
(597,913,ls),
(593,910,o),
(588,908,o),
(582,908,cs),
(567,908,o),
(555,919,o),
(555,934,cs),
(555,941,o),
(558,947,o),
(563,952,cs)
);
}
);
};
layerId = master01;
shapes = (
{
alignment = -1;
ref = a;
},
{
alignment = -1;
pos = (540,-49);
ref = acute;
}
);
userData = {
com.fontlab.hintData = {
hhints = (
{
position = -10;
width = 59;
},
{
position = 0;
width = 21;
},
{
position = 418;
width = 59;
},
{
position = 728;
width = 58;
},
{
position = 908;
width = 331;
}
);
vhints = (
{
position = 134;
width = 80;
},
{
position = 554;
width = 349;
},
{
position = 963;
width = 81;
}
);
};
};
width = 1191;
}
);
unicode = 225;
},
{
glyphname = abreve;
lastChange = "2023-04-21 12:17:44 +0000";
layers = (
{
background = {
shapes = (
{
closed = 1;
nodes = (
(963,686.746,o),
(813.993,727.849,o),
(587.172,727.849,cs),
(379.237,727.849,o),
(290.67,697.025,o),
(227,676,cs),
(224,675,o),
(222,674,o),
(219,674,cs),
(203,674,o),
(187,694,o),
(187,712,cs),
(187,720,o),
(191,727,o),
(199,731,cs),
(220.608,741.564,o),
(344.114,786.233,o),
(615.648,786.233,cs),
(861.831,786.233,o),
(1044,723.483,o),
(1044,388,cs),
(1044,70,ls),
(1044,39,o),
(1040,0,o),
(1003,0,cs),
(972,0,o),
(963,31,o),
(963,74,cs),
(963,130,l),
(903.552,68.693,o),
(779.049,-10,o),
(502,-10,cs),
(296.871,-10,o),
(134,56,o),
(134,224,cs),
(134,419,o),
(308,477,o),
(532,477,cs),
(702,477,o),
(878,458.059,o),
(963,421,c)
);
},
{
closed = 1;
nodes = (
(214,97,o),
(331.091,49,o),
(494,49,cs),
(755.924,49,o),
(895.84,123,o),
(963,178,c),
(963,379,l),
(833,397,o),
(682,418,o),
(540,418,cs),
(335,418,o),
(214,376,o),
(214,224,cs)
);
},
{
closed = 1;
nodes = (
(774,1094,l),
(774,1014,o),
(750,908,o),
(589,908,cs),
(423,908,o),
(404,1021,o),
(404,1094,c),
(441,1094,l),
(443,1036,o),
(473,960,o),
(589,960,cs),
(702,960,o),
(732,1035,o),
(737,1094,c)
);
}
);
};
layerId = master01;
shapes = (
{
alignment = -1;
ref = a;
},
{
alignment = -1;
pos = (230,-81);
ref = breve;
}
);
userData = {
com.fontlab.hintData = {
hhints = (
{
position = -10;
width = 59;
},
{
position = 0;
width = 21;
},
{
position = 418;
width = 59;
},
{
position = 728;
width = 58;
},
{
position = 908;
width = 52;
}
);
vhints = (
{
position = 134;
width = 80;
},
{
position = 404;
width = 37;
},
{
position = 737;
width = 37;
},
{
position = 963;
width = 81;
}
);
};
};
width = 1191;
}
);
unicode = 259;
},
{
glyphname = acircumflex;
lastChange = "2023-04-21 12:17:44 +0000";
layers = (
{
background = {
shapes = (
{
closed = 1;
nodes = (
(963,686.746,o),
(813.993,727.849,o),
(587.172,727.849,cs),
(379.237,727.849,o),
(290.67,697.025,o),
(227,676,cs),
(224,675,o),
(222,674,o),
(219,674,cs),
(203,674,o),
(187,694,o),
(187,712,cs),
(187,720,o),
(191,727,o),
(199,731,cs),
(220.608,741.564,o),
(344.114,786.233,o),
(615.648,786.233,cs),
(861.831,786.233,o),
(1044,723.483,o),
(1044,388,cs),
(1044,70,ls),
(1044,39,o),
(1040,0,o),
(1003,0,cs),
(972,0,o),
(963,31,o),
(963,74,cs),
(963,130,l),
(903.552,68.693,o),
(779.049,-10,o),
(502,-10,cs),
(296.871,-10,o),
(134,56,o),
(134,224,cs),
(134,419,o),
(308,477,o),
(532,477,cs),
(702,477,o),
(878,458.059,o),
(963,421,c)
);
},
{
closed = 1;
nodes = (
(214,97,o),
(331.091,49,o),
(494,49,cs),
(755.924,49,o),
(895.84,123,o),
(963,178,c),
(963,379,l),
(833,397,o),
(682,418,o),
(540,418,cs),
(335,418,o),
(214,376,o),
(214,224,cs)
);
},
{
closed = 1;
nodes = (
(459,892,l),
(383,892,l),
(536,1127,ls),
(552,1152,o),
(570,1165,o),
(589,1165,cs),
(605,1165,o),
(625,1152,o),
(642,1127,cs),
(795,892,l),
(719,892,l),
(589,1110,l)
);
}
);
};
layerId = master01;
shapes = (
{
alignment = -1;
ref = a;
},
{
alignment = -1;
pos = (348,0);
ref = circumflex;
}
);
userData = {
com.fontlab.hintData = {
hhints = (
{
position = -10;
width = 59;
},
{
position = 0;
width = 21;
},
{
position = 418;
width = 59;
},
{
position = 728;
width = 58;
},
{
position = 892;
width = 273;
}
);
vhints = (
{
position = 134;
width = 80;
},
{
position = 383;
width = 412;
},
{
position = 963;
width = 81;
}
);
};
};
width = 1191;
}
);
unicode = 226;
},
{
glyphname = adblgrave;
lastChange = "2023-04-21 12:21:45 +0000";
layers = (
{
background = {
shapes = (
{
closed = 1;
nodes = (
(963,686.746,o),
(813.993,727.849,o),
(587.172,727.849,cs),
(379.237,727.849,o),
(290.67,697.025,o),
(227,676,cs),
(224,675,o),
(222,674,o),
(219,674,cs),
(203,674,o),
(187,694,o),
(187,712,cs),
(187,720,o),
(191,727,o),
(199,731,cs),
(220.608,741.564,o),
(344.114,786.233,o),
(615.648,786.233,cs),
(861.831,786.233,o),
(1044,723.483,o),
(1044,388,cs),
(1044,70,ls),
(1044,39,o),
(1040,0,o),
(1003,0,cs),
(972,0,o),
(963,31,o),
(963,74,cs),
(963,130,l),
(903.552,68.693,o),
(779.049,-10,o),
(502,-10,cs),
(296.871,-10,o),
(134,56,o),
(134,224,cs),
(134,419,o),
(308,477,o),
(532,477,cs),
(702,477,o),
(878,458.059,o),
(963,421,c)
);
},
{
closed = 1;
nodes = (
(214,97,o),
(331.091,49,o),
(494,49,cs),
(755.924,49,o),
(895.84,123,o),
(963,178,c),
(963,379,l),
(833,397,o),
(682,418,o),
(540,418,cs),
(335,418,o),
(214,376,o),
(214,224,cs)
);
},
{
closed = 1;
nodes = (
(730,952,ls),
(734,947,o),
(738,941,o),
(738,934,cs),
(738,919,o),
(726,908,o),
(711,908,cs),
(705,908,o),
(700,910,o),
(696,913,cs),
(404,1150,ls),
(394,1158,o),
(389,1167,o),
(389,1178,cs),
(389,1202,o),
(418,1229,o),
(443,1229,cs),
(452,1229,o),
(461,1225,o),
(468,1218,cs)
);
},
{
closed = 1;
nodes = (
(502,952,ls),
(506,947,o),
(510,941,o),
(510,934,cs),
(510,919,o),
(498,908,o),
(483,908,cs),
(477,908,o),
(472,910,o),
(468,913,cs),
(176,1150,ls),
(166,1158,o),
(161,1167,o),
(161,1178,cs),
(161,1202,o),
(190,1229,o),
(215,1229,cs),
(224,1229,o),
(233,1225,o),
(240,1218,cs)
);
}
);
};
layerId = master01;
shapes = (
{
ref = a;
},
{
pos = (382.5,-52.767);
ref = dblgravecomb;
}
);
userData = {
com.fontlab.hintData = {
hhints = (
{
position = -10;
width = 59;
},
{
position = 0;
width = 21;
},
{
position = 418;
width = 59;
},
{
position = 728;
width = 58;
},
{
position = 908;
width = 321;
}
);
vhints = (
{
position = 134;
width = 80;
},
{
position = 160;
width = 577;
},
{
position = 963;
width = 81;
}
);
};
};
width = 1191;
}
);
unicode = 513;
},
{
glyphname = adieresis;
lastChange = "2023-04-21 12:17:44 +0000";
layers = (
{
background = {
shapes = (
{
closed = 1;
nodes = (
(963,686.746,o),
(813.993,727.849,o),
(587.172,727.849,cs),
(379.237,727.849,o),
(290.67,697.025,o),
(227,676,cs),
(224,675,o),
(222,674,o),
(219,674,cs),
(203,674,o),
(187,694,o),
(187,712,cs),
(187,720,o),
(191,727,o),
(199,731,cs),
(220.608,741.564,o),
(344.114,786.233,o),
(615.648,786.233,cs),
(861.831,786.233,o),
(1044,723.483,o),
(1044,388,cs),
(1044,70,ls),
(1044,39,o),
(1040,0,o),
(1003,0,cs),
(972,0,o),
(963,31,o),
(963,74,cs),
(963,130,l),
(903.552,68.693,o),
(779.049,-10,o),
(502,-10,cs),
(296.871,-10,o),
(134,56,o),
(134,224,cs),
(134,419,o),
(308,477,o),
(532,477,cs),
(702,477,o),
(878,458.059,o),
(963,421,c)
);
},
{
closed = 1;
nodes = (
(214,97,o),
(331.091,49,o),
(494,49,cs),
(755.924,49,o),
(895.84,123,o),
(963,178,c),
(963,379,l),
(833,397,o),
(682,418,o),
(540,418,cs),
(335,418,o),
(214,376,o),
(214,224,cs)
);
},
{
closed = 1;
nodes = (
(740,1040,o),
(763,1064,o),
(798,1064,cs),
(831,1064,o),
(858,1040,o),
(858,1005,cs),
(858,972,o),
(831,949,o),
(798,949,cs),
(763,949,o),
(740,972,o),
(740,1005,cs)
);
},
{
closed = 1;
nodes = (
(301,1040,o),
(324,1064,o),
(359,1064,cs),
(392,1064,o),
(419,1040,o),
(419,1005,cs),
(419,972,o),
(392,949,o),
(359,949,cs),
(324,949,o),
(301,972,o),
(301,1005,cs)
);
}
);
};
layerId = master01;
shapes = (
{
alignment = -1;
ref = a;
},
{
alignment = -1;
pos = (214,9);
ref = dieresis;
}
);
userData = {
com.fontlab.hintData = {
hhints = (
{
position = -10;
width = 59;
},
{
position = 0;
width = 21;
},
{
position = 418;
width = 59;
},
{
position = 728;
width = 58;
},
{
position = 949;
width = 115;
}
);
vhints = (
{
position = 134;
width = 80;
},
{
position = 301;
width = 118;
},
{
position = 740;
width = 118;
},
{
position = 963;
width = 81;
}
);
};
};
width = 1191;
}
);
unicode = 228;
},
